<svg xmlns="http://www.w3.org/2000/svg" viewBox="0 0 43.25 35.67"><defs><style>.cls-1{fill:#2db473;}.cls-2{fill:#f9f7f6;}</style></defs><title>Ресурс 29</title><g id="Слой_2" data-name="Слой 2"><g id="эксперт"><path id="_Контур_" data-name="&lt;Контур&gt;" class="cls-1" d="M16.54,35.67,15,29.56S1.54,29.5.23,21,2.85-.64,19.85,0,45.43,8.94,42.78,15.61,35.75,32,21.63,30.12Z"/><path class="cls-2" d="M17.63,4.33c-1.11-1.27-3.29-.87-4.43.2-1.79,1.67-1.47,5.08-.7,7.11.7,1.82,2.62,3.39,4.65,2.18a3.59,3.59,0,0,0,.72-5.17l-.78,1.08.37-.05c.92,0,2.22-1.41.73-1.37a6,6,0,0,0-1.52.24c-.4.12-1.18.61-.78,1.08s.94,2.18.31,2.87c-.34.37-.43.14-.82-.32a4.29,4.29,0,0,1-.81-1.5,8.83,8.83,0,0,1-.4-2.93c0-.26.3-3.79,1.49-2.43.53.61,2.6-.27,2-1Z"/><path class="cls-2" d="M24.91,4.74a2.68,2.68,0,0,0-4.19.71c-1,1.75-1.07,4.89.3,6.49a2.63,2.63,0,0,0,4.26-.45A6.07,6.07,0,0,0,24.82,5c-.45-.64-2.51.2-2.16.7a5.92,5.92,0,0,1,1.13,2.95,5.55,5.55,0,0,1-.12,1.77c0,.15-.09.3-.13.45-.29.82-.37,1-.23.42A4,4,0,0,1,22.23,8.6a7,7,0,0,1,.14-2,7.46,7.46,0,0,1,.31-1c-.17-.26-.09-.2.24.17.51.48,2.56-.39,2-.94Z"/><path class="cls-2" d="M11.62,16.65c-.93-1.46-3.1-.94-4,.25a6.07,6.07,0,0,0-.26,6.44c.91,1.43,2.7,2.49,4.24,1.36s2.15-3.73-.23-4.12c0,.38,0,.77,0,1.16l1.29-.49c1.22-.46.19-1.41-.77-1.05l-1.29.48c-.67.26-.77,1,0,1.16s.38,1.14.21,1.47-.4.48-.61.43c-.69-.15-1.33-1.46-1.51-2a5.29,5.29,0,0,1-.16-2.34c0-.2.75-2.89,1.31-2,.43.67,2.27.05,1.77-.73Z"/><path class="cls-2" d="M14.42,19.65A15.89,15.89,0,0,1,15.37,24l1.91-.43a3.2,3.2,0,0,1,1.29-4.07c.28-.15.55-.42.21-.65s-1,0-1.34.15a4,4,0,0,0-2.07,5c.23.57,2,.19,1.91-.43a15.89,15.89,0,0,0-1-4.36c-.22-.6-2.1-.09-1.91.43Z"/><path class="cls-2" d="M20.81,22c1.29-.29,3.13-1.44,3.08-3-.06-1.8-2.76-1.15-3.62-.44-1,.84-1.8,3-1,4.23,1,1.4,3.45,1.05,4.73.39s.17-1.63-.79-1.13a2.08,2.08,0,0,1-1.89.19c-.62-.35-.44-1.26-.29-1.85a2.32,2.32,0,0,1,.42-.9c.25-.28.53-.44.4.06a1.85,1.85,0,0,1-1.36,1.14c-1.17.27-.89,1.56.29,1.29Z"/><path class="cls-2" d="M25.64,20.92c1.75.2,4-1,4.05-3s-2.9-1.56-3.89-.78c-1.26,1-1.85,3.76-.52,4.93,1.66,1.47,4.1-.13,5.32-1.33.33-.32-.25-.48-.47-.49a1.72,1.72,0,0,0-1.27.44c-.3.29-.89,1-1.38,1s-.72-.54-.85-.89a3.62,3.62,0,0,1,0-2.16c.08-.27.26-1,.56-1.1-.08-.13,0-.13.19,0a.81.81,0,0,1,.34.39A1.46,1.46,0,0,1,27.55,19c-.05.09-.55,1-.7,1a1.84,1.84,0,0,0-1.35.31c-.24.22-.3.54.14.58Z"/><path class="cls-2" d="M30.64,17c.36,1.53.71,3.06,1.06,4.58.16.74,1.86.42,1.91-.27a13.07,13.07,0,0,1,.29-2.15,6.08,6.08,0,0,1,.78-2.26l-1.14.35s.38,1.33.43,1.47a3.26,3.26,0,0,0,.64,1.17,2.22,2.22,0,0,0,2.23.58c1.15-.29.9-1.46-.26-1.17-.93.24-.75-3.9-2.93-3.2-.82.26-1.06,1.21-1.31,1.95a13.32,13.32,0,0,0-.65,3.37l1.92-.27c-.35-1.52-.71-3.05-1.06-4.58-.18-.79-2.09-.36-1.91.43Z"/></g></g></svg>