<svg xmlns="http://www.w3.org/2000/svg" viewBox="0 0 33.42 36.19"><defs><style>.cls-1{fill:#76cbeb;}.cls-2{fill:#2db473;}.cls-3{fill:#009244;}</style></defs><title>Ресурс 28</title><g id="Слой_2" data-name="Слой 2"><g id="эксперт"><g id="_Группа_" data-name="&lt;Группа&gt;"><path id="_Контур_" data-name="&lt;Контур&gt;" class="cls-1" d="M20.37,21.48a13.42,13.42,0,0,0,4.45-.57l1.06-.18a7.29,7.29,0,0,0,.5-3,11.18,11.18,0,0,0-.2-1.54c-1.7.13-1.73.9-3.26,1.59-1.68.77-3.45.09-3.33-1.05s0-1.57-1.4-4.66A4.33,4.33,0,0,1,17.7,9.7c-1.84-.11-3.37-.06-3.37-.06a8,8,0,0,0-4.66,2.47,3.94,3.94,0,0,1,2.51,2c1,1.71-1.44,2.82,0,3.76s1.58,3.8,1.58,5.09a3.6,3.6,0,0,1-.87,2.38,12.7,12.7,0,0,0,2.69.62l1.15.09a9.09,9.09,0,0,1,.35-2.09C17.61,22.05,18.13,21.34,20.37,21.48Z"/><path id="_Контур_2" data-name="&lt;Контур&gt;" class="cls-2" d="M12.18,17.82c-1.44-.94,1-2.05,0-3.76a3.94,3.94,0,0,0-2.51-2,5.62,5.62,0,0,0-1.19,2.38c-.87,3.74-.93,8.89,4.41,10.8a3.6,3.6,0,0,0,.87-2.38C13.76,21.62,13.62,18.77,12.18,17.82Z"/><path id="_Контур_3" data-name="&lt;Контур&gt;" class="cls-2" d="M18.19,12.11c1.42,3.09,1.51,3.52,1.4,4.66s1.65,1.82,3.33,1.05c1.53-.69,1.56-1.46,3.26-1.59-.56-2.93-2.24-5.41-4.69-6A21.36,21.36,0,0,0,17.7,9.7,4.33,4.33,0,0,0,18.19,12.11Z"/><path id="_Контур_4" data-name="&lt;Контур&gt;" class="cls-2" d="M25.88,20.73l-1.06.18a13.42,13.42,0,0,1-4.45.57c-2.24-.14-2.76.57-3.29,2.43A9.09,9.09,0,0,0,16.73,26C22,26.26,24.82,23.54,25.88,20.73Z"/></g><path class="cls-3" d="M33.09,20.24a19.73,19.73,0,0,0,.32-4.07,26.94,26.94,0,0,0-.69-4.27,6.62,6.62,0,0,0-.86-2.85.23.23,0,0,0-.12-.1.19.19,0,0,0-.13,0c-.89.45-1.66,1.09-2.55,1.54-.44.23-1.92.69-2.06,1.19s.56,1.33.69,1.7a13.57,13.57,0,0,1,.57,2,16.86,16.86,0,0,1-.12,8,11.5,11.5,0,0,1-4.31,6.13c-2.32,1.67-5.87,1.78-8.6,1.27-.93-.17-2.46-.24-2.47-1.35a10.49,10.49,0,0,1,.25-2,23.46,23.46,0,0,1-5.53,1.2c-1.17,0-2.34-.07-3.51,0-1.5.16,0,1.61.37,2.05.27.29.53.59.82.87a14,14,0,0,0,1.19,1l2.53,1.91c.61.46,1.3,1.39,2,1.67.23-.61.37-1.27.54-1.9.08-.29.21-1.45.49-1.59s1.3.37,1.6.43c.56.1,1.13.17,1.69.3a18.86,18.86,0,0,0,3.17.42,14.33,14.33,0,0,0,6.12-1.05A11.23,11.23,0,0,0,26.13,32a15.75,15.75,0,0,0,6.42-9.32C32.76,21.84,33,21,33.09,20.24Z"/><path class="cls-3" d="M.33,16A19.58,19.58,0,0,0,0,20,27.25,27.25,0,0,0,.7,24.29a6.66,6.66,0,0,0,.86,2.85.23.23,0,0,0,.12.1.28.28,0,0,0,.13,0c.89-.44,1.66-1.08,2.55-1.54.44-.22,1.91-.69,2.06-1.18s-.56-1.34-.69-1.7a13.94,13.94,0,0,1-.57-2,16.9,16.9,0,0,1,.12-8A11.44,11.44,0,0,1,9.59,6.65c2.32-1.67,5.87-1.79,8.6-1.28.93.18,2.46.24,2.46,1.35a10,10,0,0,1-.24,2,23,23,0,0,1,5.53-1.2c1.17-.06,2.34.07,3.51-.06,1.5-.16,0-1.61-.38-2a11.12,11.12,0,0,0-.81-.87c-.37-.35-.78-.66-1.19-1l-2.53-1.9c-.61-.46-1.3-1.4-2-1.67A17.7,17.7,0,0,0,22,1.89c-.08.3-.21,1.46-.49,1.59s-1.3-.36-1.6-.42c-.56-.11-1.13-.18-1.69-.3a18.87,18.87,0,0,0-3.17-.43A14.56,14.56,0,0,0,8.94,3.39a10.67,10.67,0,0,0-1.65.84C4,6.27,1.88,9.88.87,13.55Q.54,14.75.33,16Z"/></g></g></svg>