<svg xmlns="http://www.w3.org/2000/svg" viewBox="0 0 30.97 41.43"><defs><style>.cls-1{fill:#ffc96f;}.cls-2{fill:#faae3b;}.cls-3{fill:#fff;}</style></defs><title>Ресурс 27</title><g id="Слой_2" data-name="Слой 2"><g id="эксперт"><path class="cls-1" d="M.46,19.81a8,8,0,0,1-.46-3A8,8,0,0,0,.46,19.81Z"/><path class="cls-1" d="M0,16.85A23.3,23.3,0,0,1,1,10,23.3,23.3,0,0,0,0,16.85Z"/><path class="cls-1" d="M22.15,41h0l-4.9-10.15Z"/><path class="cls-1" d="M19.78,21.86a7.33,7.33,0,0,0,2.52-1.57,9,9,0,0,0,1.84-2.44A8,8,0,0,0,25,14.91a7.9,7.9,0,0,0-.38-3,9.94,9.94,0,0,0-3.56-4.7,10.59,10.59,0,0,0-5.07-2,7.55,7.55,0,0,0-2.51.22l-.61.17a34,34,0,0,0,2.19,16.84,10.3,10.3,0,0,0,1.84.07A8.8,8.8,0,0,0,19.78,21.86Z"/><path class="cls-1" d="M17.17,25.07c-.23,0-.46,0-.7.06.36.64.71,1.29,1.06,1.95s.83,1.58,1.23,2.38l0,.08a30.51,30.51,0,0,0,4.61,5.14l.12-.85.31-2.67h0A.16.16,0,0,1,24,31a.12.12,0,0,1,.1.05c.35.38.69.78,1.05,1.16l1.15,1.05c.41.32.83.63,1.25.94l.9.53c-.41-.88-.82-1.76-1.22-2.64-.47-1-.9-2.1-1.33-3.15s-.92-2.09-1.36-3.15-.83-2-1.22-3A12.41,12.41,0,0,1,17.17,25.07Z"/><path class="cls-1" d="M16.22,25.14c.22.46.45.92.69,1.37-.19-.46-.38-.92-.56-1.38Z"/><path class="cls-1" d="M18.81,24.25c.28-.05.56-.14.83-.21l.42-.1.4-.15a10.72,10.72,0,0,0,3.06-1.58l.67-.53.61-.63a8.35,8.35,0,0,0,1.06-1.37,9.71,9.71,0,0,0,1.25-3.2,10.46,10.46,0,0,0-1-6.52A12.5,12.5,0,0,0,24.37,7.3a13.89,13.89,0,0,0-2.25-2,11.79,11.79,0,0,0-2.51-1.35c-.22-.09-.44-.16-.66-.24l-.65-.18c-.21-.05-.43-.12-.64-.16L17,3.23a13.09,13.09,0,0,0-3.76,0l-.06.24C13.1,4,13,4.46,13,4.93l.39-.11A7.52,7.52,0,0,1,16,4.59,10.49,10.49,0,0,1,21.27,6.9a11.19,11.19,0,0,1,3.53,4.92A8.21,8.21,0,0,1,24.47,18a9.31,9.31,0,0,1-1.8,2.63A8.06,8.06,0,0,1,20,22.42a9.4,9.4,0,0,1-3.07.71,14.23,14.23,0,0,1-1.6,0c.19.47.39.93.6,1.4.39,0,.79,0,1.19-.05A13.73,13.73,0,0,0,18.81,24.25Z"/><path class="cls-1" d="M15.77,27c0-.06.08-.12.11-.12S15.81,26.91,15.77,27Z"/><path class="cls-1" d="M26.29,23.82a14.82,14.82,0,0,0,3.35-10.13c-.08-4.23-1.7-8.6-5-11.18a13.38,13.38,0,0,0-10-2.36c-.18,0-.37.07-.55.1a24.13,24.13,0,0,0-.71,2.5,12.74,12.74,0,0,1,3.72-.07l.67.09c.23,0,.46.11.68.16l.7.18.67.23a11.26,11.26,0,0,1,2.65,1.45,12.34,12.34,0,0,1,4,5,11.48,11.48,0,0,1,.86,6.72,10,10,0,0,1-1.23,3.3,9.82,9.82,0,0,1-1,1.44l-.59.65-.69.59-.34.25c.53.95,1,1.92,1.52,2.89s1,2,1.52,3.07.91,2.1,1.32,3.17S28.57,34,29,35.1h0a.16.16,0,0,1-.09.2.14.14,0,0,1-.14,0l-1.31-.88-1.25-1L25,32.4l-.85-.85L24,33.88c0,.41-.09.82-.13,1.23l.64.55v0l.84-1.88c1.8,1.46,3.67,2.85,5.59,4.16Q28.41,31,26.29,23.82Z"/><path class="cls-2" d="M12.86,5.57a16.35,16.35,0,0,0-1.67.56,14.86,14.86,0,0,0-1.5.71l-.49.54c-.33.36-.81.89-1.37,1.61A9.28,9.28,0,0,0,6.26,11.8a4.27,4.27,0,0,0-.13.48,3.63,3.63,0,0,0,.23.76,3.44,3.44,0,0,0,.22.51,1.57,1.57,0,0,1,.08.18s0,0,0,0a0,0,0,0,1-.05,0l-.09-.17a4.17,4.17,0,0,1-.28-.49,4.4,4.4,0,0,1-.18-.42A7.22,7.22,0,0,0,6,13.73V14l0,.25a5.24,5.24,0,0,0,.08.53c0,.18.07.36.11.54l.18.54a9.9,9.9,0,0,0,2.8,4l.25.22.12.11.14.09.53.4a11,11,0,0,0,1.16.68,10.67,10.67,0,0,0,2.63.93,9,9,0,0,0,1,.17A34,34,0,0,1,12.86,5.57Z"/><path class="cls-2" d="M9.11,7.29,9.43,7A10.18,10.18,0,0,0,7.63,8.3,5.73,5.73,0,0,0,6.55,9.64,4.43,4.43,0,0,0,6.09,11a.38.38,0,0,0,0,.1A9.69,9.69,0,0,1,7.62,8.82C8.23,8.13,8.76,7.63,9.11,7.29Z"/><path class="cls-2" d="M23.91,35.11v.11l-.15,1.34a2.39,2.39,0,0,1-.17.73A1.13,1.13,0,0,1,23,38a.58.58,0,0,1-.29,0h-.26a.79.79,0,0,1-.25-.15.91.91,0,0,1-.17-.17,3.63,3.63,0,0,1-.36-.65c-.4-.8-.78-1.61-1.16-2.42C19.73,33,19,31.33,18.27,29.69c-.36-.81-.7-1.64-1.06-2.46l-.3-.72c-.24-.45-.47-.91-.69-1.37-.42,0-.84,0-1.26,0-.28.7-.56,1.4-.86,2.1s-.7,1.65-1.06,2.46c-.73,1.64-1.46,3.27-2.22,4.89-.38.81-.76,1.62-1.16,2.42a3.63,3.63,0,0,1-.36.65.91.91,0,0,1-.17.17.79.79,0,0,1-.25.15H8.62a.58.58,0,0,1-.29,0,1.13,1.13,0,0,1-.6-.67,2.39,2.39,0,0,1-.17-.73l-.15-1.34c0-.45-.1-.9-.14-1.34l-.11-2.33-.85.85-1.19,1-1.25,1-1.31.88a.15.15,0,0,1-.21,0,.16.16,0,0,1,0-.15h0c.41-1.07.8-2.15,1.21-3.22s.87-2.12,1.32-3.17,1-2.06,1.52-3.07,1-1.91,1.49-2.85l-.4-.31-.33-.25C7,22.12,7,22,6.84,21.94l-.55-.55a12.71,12.71,0,0,1-1-1.26c-.14-.22-.29-.43-.42-.65l-.36-.67-.18-.33-.15-.35c-.09-.23-.18-.45-.28-.68a12.76,12.76,0,0,1-.64-2.74,8.68,8.68,0,0,1,0-2.6,7.71,7.71,0,0,1,.75-2.23A10.77,10.77,0,0,1,6.4,7c.77-.7,1.41-1.19,1.85-1.53l.68-.5s0,0,.05,0A0,0,0,0,1,9,5l-.64.55c-.42.36-1,.89-1.74,1.62a10.85,10.85,0,0,0-2.14,2.94,7.77,7.77,0,0,0-.59,4.55,12,12,0,0,0,2,5.11,12.41,12.41,0,0,0,.91,1.15l.56.55.27.26.3.23c.2.16.4.32.61.47l.67.4a4.68,4.68,0,0,0,.7.37c.24.12.47.24.72.34a14.31,14.31,0,0,0,5.32,1c-.21-.47-.41-.93-.6-1.4a10.27,10.27,0,0,1-1.46-.21,10.27,10.27,0,0,1-2.81-1,4.89,4.89,0,0,1-.64-.34c-.21-.13-.42-.25-.62-.39l-.56-.43-.14-.11C9,20.63,9,20.6,9,20.56l-.25-.22a12.11,12.11,0,0,1-1.78-2A9.18,9.18,0,0,1,5.82,16c-.06-.19-.12-.39-.17-.58s-.07-.38-.11-.57a5.42,5.42,0,0,1-.06-.58l0-.29v-.28a5.89,5.89,0,0,1,.36-2,4.5,4.5,0,0,1,0-.74A4.85,4.85,0,0,1,7.32,8,11.38,11.38,0,0,1,11,5.6a15.85,15.85,0,0,1,2-.67c.07-.47.15-.95.24-1.43l.06-.24-.93.16A14.62,14.62,0,0,0,10.43,4c-.57.25-1.09.44-1.55.67a11.33,11.33,0,0,0-1.19.66A4.2,4.2,0,0,0,7,6l-.22.28c-.06.09-.09.17-.13.23l-.1.19s0,0,0,0a0,0,0,0,1,0,0,2,2,0,0,0,.08-.2c0-.06.06-.15.11-.24l.21-.31a4.27,4.27,0,0,1,.74-.73,9.56,9.56,0,0,1,1.17-.75c.44-.26,1-.49,1.53-.76A16.35,16.35,0,0,1,12.22,3c.37-.09.75-.17,1.15-.24a24.13,24.13,0,0,1,.71-2.5h0l-.35.07-.66.14L12.5.6l-.65.19L11.27,1l-.62.23-.58.24-.59.25L8.89,2c-.19.09-.38.18-.56.28l-.61.34c-.17.09-.34.18-.5.28s-.46.28-.68.43l-.41.25c-.35.24-.71.48-1,.73A11.62,11.62,0,0,0,2.64,6.55,10.91,10.91,0,0,0,1,10a23.3,23.3,0,0,0-1,6.84,8,8,0,0,0,.46,3c.9,2.24,3.31,3.48,5.66,4a83.71,83.71,0,0,0-5.06,12.6,16.59,16.59,0,0,0,5.21-1.55C6.82,37,7.36,39.19,7.9,41.35c.22.23.56-.1.7-.38q3.35-7,6.7-14c.15.32.27.3.36.2a.62.62,0,0,0,.11-.17c0-.06.08-.12.11-.12s.06.08.09.32A9,9,0,0,0,16.83,30l.42.89L22.15,41h0q1.19-2.67,2.39-5.32v0Z"/><path class="cls-2" d="M18.8,29.54c.79,1.57,1.58,3.14,2.34,4.73.38.81.77,1.62,1.14,2.43a3,3,0,0,0,.27.54l.09.1h.11c.06,0,.18-.15.25-.31a2.14,2.14,0,0,0,.14-.58c.08-.59.17-1.19.27-1.78A30.51,30.51,0,0,1,18.8,29.54Z"/><path class="cls-2" d="M8,22.85c-.38,1-.78,2-1.2,3S5.86,27.92,5.39,29s-.86,2.11-1.33,3.15c-.4.88-.81,1.76-1.22,2.64l.9-.53c.42-.31.84-.62,1.25-.94l1.15-1.05c.36-.38.7-.78,1.05-1.16a.16.16,0,0,1,.23,0,.14.14,0,0,1,0,.1h0l.31,2.67c.12.88.27,1.75.39,2.63a2.14,2.14,0,0,0,.14.58c.07.16.19.3.25.31h.11l.09-.1A3,3,0,0,0,9,36.7c.37-.81.76-1.62,1.14-2.43.77-1.61,1.57-3.21,2.38-4.81.4-.8.82-1.59,1.23-2.38s.7-1.31,1.06-1.95a15,15,0,0,1-4.49-1A12.09,12.09,0,0,1,8,22.85Z"/><path class="cls-3" d="M16.93,23.13A9.4,9.4,0,0,0,20,22.42a8.06,8.06,0,0,0,2.67-1.78A9.31,9.31,0,0,0,24.47,18a8.21,8.21,0,0,0,.33-6.19A11.19,11.19,0,0,0,21.27,6.9,10.49,10.49,0,0,0,16,4.59a7.52,7.52,0,0,0-2.7.23L13,4.93a15.85,15.85,0,0,0-2,.67A11.38,11.38,0,0,0,7.32,8a4.85,4.85,0,0,0-1.51,3,4.5,4.5,0,0,0,0,.74,5.89,5.89,0,0,0-.36,2V14l0,.29a5.42,5.42,0,0,0,.06.58c0,.19.07.38.11.57s.11.39.17.58A9.18,9.18,0,0,0,6.93,18.3a12.11,12.11,0,0,0,1.78,2l.25.22s.07.07.14.12l.14.11.56.43c.2.14.41.26.62.39a4.89,4.89,0,0,0,.64.34,10.27,10.27,0,0,0,2.81,1,10.27,10.27,0,0,0,1.46.21A14.23,14.23,0,0,0,16.93,23.13ZM6.09,11a4.43,4.43,0,0,1,.46-1.37A5.73,5.73,0,0,1,7.63,8.3,10.18,10.18,0,0,1,9.43,7l-.32.3c-.35.34-.88.84-1.49,1.53a9.69,9.69,0,0,0-1.54,2.29A.38.38,0,0,1,6.09,11Zm9,11.4a9,9,0,0,1-1-.17,10.67,10.67,0,0,1-2.63-.93,11,11,0,0,1-1.16-.68l-.53-.4-.14-.09L9.43,20l-.25-.22a9.9,9.9,0,0,1-2.8-4l-.18-.54c0-.18-.08-.36-.11-.54A5.24,5.24,0,0,1,6,14.24L6,14v-.26a7.22,7.22,0,0,1,.07-1.05,4.4,4.4,0,0,0,.18.42,4.17,4.17,0,0,0,.28.49l.09.17a0,0,0,0,0,.05,0s0,0,0,0a1.57,1.57,0,0,0-.08-.18A3.44,3.44,0,0,1,6.36,13a3.63,3.63,0,0,1-.23-.76,4.27,4.27,0,0,1,.13-.48A9.28,9.28,0,0,1,7.83,9c.56-.72,1-1.25,1.37-1.61l.49-.54a14.86,14.86,0,0,1,1.5-.71,16.35,16.35,0,0,1,1.67-.56l.61-.17A7.55,7.55,0,0,1,16,5.18a10.59,10.59,0,0,1,5.07,2,9.94,9.94,0,0,1,3.56,4.7,7.9,7.9,0,0,1,.38,3,8,8,0,0,1-.85,2.94,9,9,0,0,1-1.84,2.44,7.33,7.33,0,0,1-2.52,1.57,8.8,8.8,0,0,1-2.89.62A10.3,10.3,0,0,1,15.05,22.41Z"/><path class="cls-3" d="M10.28,3.63c-.55.27-1.09.5-1.53.76a9.56,9.56,0,0,0-1.17.75,4.27,4.27,0,0,0-.74.73l-.21.31c0,.09-.08.18-.11.24a2,2,0,0,1-.08.2,0,0,0,0,0,0,0s0,0,0,0l.1-.19c0-.06.07-.14.13-.23L7,6a4.2,4.2,0,0,1,.74-.65,11.33,11.33,0,0,1,1.19-.66c.46-.23,1-.42,1.55-.67a14.62,14.62,0,0,1,1.89-.55l.93-.16a13.09,13.09,0,0,1,3.76,0l.65.1c.21,0,.43.11.64.16l.65.18c.22.08.44.15.66.24a11.79,11.79,0,0,1,2.51,1.35,13.89,13.89,0,0,1,2.25,2A12.5,12.5,0,0,1,26.12,10a10.46,10.46,0,0,1,1,6.52,9.71,9.71,0,0,1-1.25,3.2,8.35,8.35,0,0,1-1.06,1.37l-.61.63-.67.53a10.72,10.72,0,0,1-3.06,1.58l-.4.15-.42.1c-.27.07-.55.16-.83.21a13.73,13.73,0,0,1-1.69.23c-.4,0-.8.05-1.19.05a14.31,14.31,0,0,1-5.32-1c-.25-.1-.48-.22-.72-.34a4.68,4.68,0,0,1-.7-.37l-.67-.4c-.21-.15-.41-.31-.61-.47l-.3-.23-.27-.26-.56-.55a12.41,12.41,0,0,1-.91-1.15,12,12,0,0,1-2-5.11,7.77,7.77,0,0,1,.59-4.55A10.85,10.85,0,0,1,6.59,7.14c.71-.73,1.32-1.26,1.74-1.62L9,5a0,0,0,0,0,0,0s0,0-.05,0l-.68.5C7.81,5.76,7.17,6.25,6.4,7A10.77,10.77,0,0,0,4.06,9.88a7.71,7.71,0,0,0-.75,2.23,8.68,8.68,0,0,0,0,2.6,12.76,12.76,0,0,0,.64,2.74c.1.23.19.45.28.68l.15.35.18.33.36.67c.13.22.28.43.42.65a12.71,12.71,0,0,0,1,1.26l.55.55c.11.1.17.18.3.29l.33.25.4.31c-.51.94-1,1.89-1.49,2.85s-1,2-1.52,3.07S4,30.81,3.54,31.88,2.74,34,2.33,35.1h0a.16.16,0,0,0,0,.15.15.15,0,0,0,.21,0l1.31-.88,1.25-1,1.19-1,.85-.85.11,2.33c0,.44.09.89.14,1.34l.15,1.34a2.39,2.39,0,0,0,.17.73,1.13,1.13,0,0,0,.6.67.58.58,0,0,0,.29,0h.26a.79.79,0,0,0,.25-.15.91.91,0,0,0,.17-.17A3.63,3.63,0,0,0,9.66,37c.4-.8.78-1.61,1.16-2.42.76-1.62,1.49-3.25,2.22-4.89.36-.81.7-1.64,1.06-2.46s.58-1.4.86-2.1c.42,0,.84,0,1.26,0h.13c.18.46.37.92.56,1.38l.3.72c.36.82.7,1.65,1.06,2.46.73,1.64,1.46,3.27,2.22,4.89.38.81.76,1.62,1.16,2.42a3.63,3.63,0,0,0,.36.65.91.91,0,0,0,.17.17.79.79,0,0,0,.25.15h.26A.58.58,0,0,0,23,38a1.13,1.13,0,0,0,.6-.67,2.39,2.39,0,0,0,.17-.73l.15-1.34v-.11c0-.41.09-.82.13-1.23l.11-2.33.85.85,1.19,1,1.25,1,1.31.88a.14.14,0,0,0,.14,0,.16.16,0,0,0,.09-.2h0c-.41-1.07-.8-2.15-1.21-3.22s-.87-2.12-1.32-3.17-1-2.06-1.52-3.07-1-1.94-1.52-2.89l.34-.25.69-.59.59-.65a9.82,9.82,0,0,0,1-1.44,10,10,0,0,0,1.23-3.3,11.48,11.48,0,0,0-.86-6.72,12.34,12.34,0,0,0-4-5,11.26,11.26,0,0,0-2.65-1.45l-.67-.23-.7-.18c-.22-.05-.45-.12-.68-.16l-.67-.09a12.74,12.74,0,0,0-3.72.07c-.4.07-.78.15-1.15.24A16.35,16.35,0,0,0,10.28,3.63Zm3.5,23.45c-.41.79-.83,1.58-1.23,2.38-.81,1.6-1.61,3.2-2.38,4.81-.38.81-.77,1.62-1.14,2.43a3,3,0,0,1-.27.54l-.09.1H8.56c-.06,0-.18-.15-.25-.31a2.14,2.14,0,0,1-.14-.58c-.12-.88-.27-1.75-.39-2.63l-.31-2.67h0a.14.14,0,0,0,0-.1.16.16,0,0,0-.23,0c-.35.38-.69.78-1.05,1.16L5,33.28c-.41.32-.83.63-1.25.94l-.9.53c.41-.88.82-1.76,1.22-2.64.47-1,.9-2.1,1.33-3.15s.92-2.09,1.36-3.15.82-2,1.2-3a12.09,12.09,0,0,0,2.4,1.31,15,15,0,0,0,4.49,1C14.48,25.77,14.13,26.42,13.78,27.08Zm10.78-1.27c.44,1.06.89,2.11,1.36,3.15s.86,2.11,1.33,3.15c.4.88.81,1.76,1.22,2.64l-.9-.53c-.42-.31-.84-.62-1.25-.94l-1.15-1.05c-.36-.38-.7-.78-1.05-1.16A.12.12,0,0,0,24,31a.16.16,0,0,0-.18.14h0l-.31,2.67-.12.85c-.1.59-.19,1.19-.27,1.78A2.14,2.14,0,0,1,23,37c-.07.16-.19.3-.25.31h-.11l-.09-.1a3,3,0,0,1-.27-.54c-.37-.81-.76-1.62-1.14-2.43-.76-1.59-1.55-3.16-2.34-4.73l0-.08c-.4-.8-.82-1.59-1.23-2.38s-.7-1.31-1.06-1.95c.24,0,.47,0,.7-.06a12.41,12.41,0,0,0,6.17-2.27C23.73,23.82,24.13,24.82,24.56,25.81Z"/></g></g></svg>