<svg xmlns="http://www.w3.org/2000/svg" viewBox="0 0 251 163.03"><defs><style>.cls-1{fill:#ac9671;}.cls-2{fill:#d6d5c6;}.cls-3{fill:#59595b;}.cls-4{fill:#394760;}.cls-5{fill:#5c473b;}.cls-6{fill:#e7cbae;}.cls-7{fill:#8ca09c;}.cls-8{fill:#3a3029;}.cls-9{fill:#607583;}.cls-10{fill:#fff;}.cls-11{fill:#f5ceb0;}.cls-12{fill:#cbe0da;}.cls-13{fill:#534741;}.cls-14{fill:#cfb298;}.cls-15{fill:#f4cdaf;}.cls-16{fill:#303030;}.cls-17{fill:#00b8a9;}.cls-18{fill:#433226;}.cls-19{fill:#4c4c4c;}.cls-20{fill:#80b7a2;}.cls-21{fill:#57453f;}.cls-22{fill:#0ea79b;}.cls-23{fill:#9ee1ef;}.cls-24{opacity:0.2;}.cls-25{fill:ivory;}.cls-26{opacity:0.1;}.cls-27{fill:#30353d;}.cls-28{fill:#00917d;}.cls-29{fill:#776562;}.cls-30{fill:#33a195;}.cls-31{fill:#5d8178;}.cls-32{fill:#009689;}.cls-33{fill:#008a7d;}</style></defs><title>Ресурс 42</title><g id="Слой_2" data-name="Слой 2"><g id="регистрация"><polygon class="cls-1" points="181.26 37.25 181.85 33.28 180.16 32.95 179.16 35.59 178.43 35.06 178.34 38.52 180.05 39.1 181.26 37.25"/><polygon class="cls-2" points="155.71 57.92 170.93 53.96 177.98 37.34 181.31 38.66 177.34 60.12 159.81 69.15 155.71 57.92"/><polygon class="cls-3" points="169.44 157.21 169.65 159.21 165.86 161.6 163.67 159.81 165.46 157.62 169.24 155.22 169.44 157.21"/><polygon class="cls-4" points="169.59 96.42 170.21 102.47 164.8 129.52 169.59 156.55 165.72 157.74 153.19 125.6 152.51 115.77 154.2 95.42 169.59 96.42"/><polygon class="cls-4" points="140.24 98.47 140.12 124.05 145.16 156.98 148.86 156.96 151 126.52 155.86 96.07 140.24 98.47"/><polygon class="cls-3" points="148.85 158.52 144.86 160.55 142.84 158.56 144.83 156.54 148.84 156.51 148.85 158.52"/><path class="cls-2" d="M137.12,94.72c2.67-8.28,3-17,3.73-25.59a22.84,22.84,0,0,1,1.54-7.48A8.72,8.72,0,0,1,148,56.81c3-1,6.5-.93,9.6-1.12,2.94-.09,5.54,11,8.54,16.33,1.84,3.28,3.74,6.19,5,9.77a77,77,0,0,1,3,10.52c1.05,5.4,3.72,9.17,1.17,11l-.68.23a62.7,62.7,0,0,1-12.93,3.2,52,52,0,0,1-11.83.22c-5.38-.53-10.6-1.29-15.34-4.1Q135.8,98.81,137.12,94.72Z"/><path class="cls-1" d="M159,47.46c-1.68-5.06-9.06-6.82-10.78-.94a11.76,11.76,0,0,0-.47,5.45,5.8,5.8,0,0,0,3.14,4.28h0l-.2,1.41a.39.39,0,0,0,0,.3.41.41,0,0,0,.31.13l1.67.26a1.83,1.83,0,0,0,.84,0,1.56,1.56,0,0,0,.85-1.5,3.23,3.23,0,0,0,0-.44C157.74,55.27,160.09,50.77,159,47.46Z"/><path class="cls-5" d="M150,38.82c-1.35-.2-2.5,1.11-3.75,1.8-1,.57-2.21.73-3.29,1.2a3.32,3.32,0,0,0-2.15,2.71,5.54,5.54,0,0,0-3.5-.92c-1.22.24-2.35,1.7-1.86,2.9s1.84,1.33,2.3,2.39c.74,1.67-1.26,4.28.11,5.39.33.26.77.33,1.09.6a3.24,3.24,0,0,1,.71,1.45,5.3,5.3,0,0,0,5.55,3.6,6.24,6.24,0,0,0,3.15-3.73c.63-2-.42-2.64-.59-4.47a7.94,7.94,0,0,1,1.71-5.69,5.06,5.06,0,0,1,3.24-2c.5,0,.34.37.91,0a2.58,2.58,0,0,0,.65-1.11C152.92,41.83,151.78,39.09,150,38.82Z"/><path class="cls-5" d="M164.62,41.43a14.77,14.77,0,0,1,2.12.45c1,.44.94,1.48,1.22,2.38a9.55,9.55,0,0,0,1.43,3.1,9.13,9.13,0,0,0,1.71,1.31,2.34,2.34,0,0,1,1.09,1.84c0,.74-.5,1.4-.57,2.14a10.5,10.5,0,0,1-.24,2.77,3.53,3.53,0,0,1-.8,1.59,2.48,2.48,0,0,1-2.1.38,4.66,4.66,0,0,0-2.16-.08c-1.53.52-1.25,2.06-1.65,3.36A3.72,3.72,0,0,1,160,63.09a4.09,4.09,0,0,1-2.27-4c0-.86.37-1.65.39-2.5s-.44-2,.31-2.61c.18-.16.41-.25.58-.43a1.24,1.24,0,0,0,.25-.53,2.36,2.36,0,0,0-.39-1.94c-.29-.38-.7-.65-.88-1.1a4.18,4.18,0,0,1,0-1.69A3.41,3.41,0,0,0,156.17,45a9.1,9.1,0,0,1-2.1-1.09c-.1-.08-1.61-1.41-1.65-1.13a3.07,3.07,0,0,1,.66-1.34,6,6,0,0,1,1.71-1.7c2.22-1.27,2.33,1.7,4.1,1.31a4.24,4.24,0,0,0,1.14-.73,2.6,2.6,0,0,1,2.38.05A17.15,17.15,0,0,0,164.62,41.43Z"/><polygon class="cls-1" points="140.75 28.38 142.96 25.02 144.44 25.91 143.43 28.54 144.32 28.64 142.08 31.27 140.42 30.56 140.75 28.38"/><polygon class="cls-2" points="147.99 58.42 137.3 47.72 143.14 30.64 139.78 29.39 128.41 48.03 143.06 66.18 147.99 58.42"/><polygon class="cls-6" points="192.98 59.25 191.26 57.62 191.24 55.54 190.79 55.32 190.5 55.85 189.98 54.13 188.76 53.32 186.94 54.01 185.9 55.73 186.78 57.46 188.71 58.73 190.97 61.05 192.98 59.25"/><polygon class="cls-7" points="192.82 57.29 189.72 60.96 198.03 73.57 201.12 74.57 214.28 64.07 210.76 56.88 200.94 65.22 192.82 57.29"/><polygon class="cls-8" points="234.59 156.32 235.05 158.43 231.41 161.43 228.9 159.77 230.49 157.21 234.13 154.21 234.59 156.32"/><polygon class="cls-9" points="221.85 91.48 225.92 100.85 226.3 127.23 234.66 155.59 230.77 157.32 213.72 124.38 211.77 113.95 211 91.97 221.85 91.48"/><polygon class="cls-9" points="202.17 93.58 201.85 121.22 207.06 156.85 211.06 156.85 213.59 123.97 219.07 91.09 202.17 93.58"/><polygon class="cls-8" points="211.04 156.38 211.04 158.54 206.71 160.71 204.54 158.54 206.71 156.38 211.04 156.38"/><path class="cls-7" d="M210.06,56.16l10.63-.4s6.37,5.59,9.66,20.1c3.35,14.77-.62,36-.62,36s-28.54-3.8-33.22-4.39l7.14-29.17Z"/><path class="cls-6" d="M213.87,57.24l3.73-.36a19.81,19.81,0,0,0-.2-3c1-.36,2.23-.9,2.41-2a3,3,0,0,0-.06-1L219,46.66a3.63,3.63,0,0,0-.44-1.41,3.16,3.16,0,0,0-2.22-1.2,7.75,7.75,0,0,0-6.25,1.51A3.41,3.41,0,0,0,209.07,47a4.56,4.56,0,0,0,.15,2.68l.63,2.43c.25.93.6,2,1.5,2.35a8,8,0,0,1,1.47.4C213.58,55.3,213.47,56.43,213.87,57.24Z"/><path class="cls-8" d="M201.73,43.17a11.86,11.86,0,0,1,.31-2.83c.33-1.51,2.11-2.19,3.66-2.3,3.34-.23,6.56-1.74,9.81-.57,1.87.66,4.37.82,6.06,1.77a5,5,0,0,1,1.7,1.68,7.51,7.51,0,0,1,0,7.93,11.1,11.1,0,0,1-1.17,1.47A8.05,8.05,0,0,1,219,52.8c0-1.08,1-4.49.14-5.38-1.32-1.41-4.3-.92-5.94-.58s-3.37,1.64-5.14,1.91a6.68,6.68,0,0,1-4-1.1A5.06,5.06,0,0,1,201.73,43.17Z"/><path class="cls-10" d="M213,57.47l-11.18,44.74-.92,5.86,13.93,1.84s-.55-21.43-.36-24.28,2.25-9,2.56-15.69c.19-3.85,1.41-10.77.55-13Z"/><polygon class="cls-11" points="39.8 44.76 41.72 45.53 43.36 42.52 42.13 40.75 40.27 40.85 40.45 42.48 40.09 42.33 39.88 41.82 39.37 42.04 39.8 44.76"/><polygon class="cls-12" points="20.21 58.18 33.63 55.41 39.26 43.92 42.24 44.97 37.87 59.72 20.21 64.99 20.21 58.18"/><polygon class="cls-11" points="9.47 99.89 13.55 129.23 12.1 150.43 15.07 151.47 17.73 131.88 23.41 96.08 9.47 99.89"/><polygon class="cls-13" points="15.07 152.07 15.4 154.26 14.65 158.44 12.2 158.21 11.74 152.02 12.1 151.03 15.07 152.07"/><polygon class="cls-11" points="33.51 99.01 32.2 123.9 26.65 158.7 23.64 158.66 24.98 126.4 21.08 96.65 33.51 99.01"/><polygon class="cls-13" points="26.6 158.1 30.45 160.92 29.96 163.03 22.93 161.35 23.5 158.31 26.6 158.1"/><polygon class="cls-14" points="34.17 102.74 34.05 131.64 30.51 151.12 22.46 149.81 22.69 127.3 21.02 102.57 21.85 98.82 33.5 100.14 34.17 102.74"/><polygon class="cls-14" points="19.88 127.72 17.39 148.21 10.38 147.12 11.99 127.62 9.39 102.67 10.92 95.92 22.69 97.9 19.88 127.72"/><path class="cls-15" d="M5.91,47.67c.54-5.08,7-8.2,9.77-3a11.43,11.43,0,0,1,1.53,5,5.62,5.62,0,0,1-2.05,4.64l0,0c.15.43.31.85.46,1.28a.37.37,0,0,1,0,.29.41.41,0,0,1-.25.19l-1.5.57a1.75,1.75,0,0,1-.77.16c-.58-.06-.95-.67-1.09-1.24a3.15,3.15,0,0,1-.09-.42C8.64,54.76,5.56,51,5.91,47.67Z"/><path class="cls-16" d="M15.83,46.17A6.26,6.26,0,0,1,17,50.25c0,1.39.37,2.71.27,4.11.17.19.48,0,.65-.19C19,53.08,20,52,21,50.85a1.08,1.08,0,0,0,.26-.38,1.15,1.15,0,0,0,0-.58c-.86-3.75-2.77-6.3-5.36-9-1.26-1.3-4.27-2.48-5.57-.5A3,3,0,0,0,10,42a2.4,2.4,0,0,0,.12,1c.47,1.2,1.63,1,2.6,1.21A6.38,6.38,0,0,1,15.83,46.17Z"/><path class="cls-16" d="M7.56,50a11.92,11.92,0,0,0,1.1,3.29c.17.34,1,1.06,1,1.3.17.7-1,2.57-1.3,3.24L1,55.11a1.23,1.23,0,0,1-.52-.3,1.3,1.3,0,0,1-.19-.52A23.56,23.56,0,0,1,1,43.93c.87-3.44,3.52-6.54,7.16-6.87,2.93-.26,5.3,1.57,4.7,4.73-.46,2.39-3.2,3.3-4.5,5.08A3.81,3.81,0,0,0,7.56,50Z"/><path class="cls-12" d="M9.1,57.22l-.16.09C6.3,58.72,4.7,63.68,3.79,66.58A58.07,58.07,0,0,0,1.66,89.49c.38,4.22,1,8.43,1.61,12.62.18,1.16,2.52,11.43,2,11.75a97.56,97.56,0,0,1,16.11-8.7c5.66-2.24,11.77-.25,17.83.28-3.42-13-7.71-29.36-13-41.63a34.91,34.91,0,0,0-2-4.41c-1-1.56-2.18-1.9-3.75-2.69A10.49,10.49,0,0,0,18.79,56,14.29,14.29,0,0,0,9.1,57.22Z"/><circle class="cls-17" cx="43.53" cy="64.99" r="28.29"/><polygon class="cls-10" points="55.96 45.1 43.48 44.35 32.33 67.12 41.48 67.67 33.02 86.31 53.98 63.52 43.85 62.02 55.96 45.1"/><g id="_Группа_" data-name="&lt;Группа&gt;"><polygon class="cls-18" points="98.04 158.17 98.04 160.04 93.26 162.43 90.87 160.04 93.26 157.65 93.57 157.65 93.65 158.17 98.04 158.17"/></g><g id="_Группа_2" data-name="&lt;Группа&gt;"><polygon class="cls-18" points="109.81 157.65 110.14 157.65 112.53 160.04 110.14 162.43 105.36 160.04 105.36 158.17 109.76 158.17 109.81 157.65"/></g><g id="_Группа_3" data-name="&lt;Группа&gt;"><path class="cls-9" d="M91.67,87.74C91.15,93.13,90.55,99,90.55,99s2.79.06,6.83.37l-.89,0c-2.81,0-5.73,1.19-8.42,2l.15-13Z"/></g><g id="_Группа_4" data-name="&lt;Группа&gt;"><path class="cls-9" d="M110.54,101c1.93.1,2.17-.26,2.17-.26s-1.74-7.1-3-13.28l5.5.82.07,14.75a14,14,0,0,0-1.47-.83A18.64,18.64,0,0,0,110.54,101Z"/></g><path class="cls-19" d="M88.07,101.29c2.69-.79,5.61-2,8.42-2l.89,0,.77.06c1.88.15,4,.35,6.21.62l.33,0a37.23,37.23,0,0,0,5.85.92,18.64,18.64,0,0,1,3.31,1.2,14,14,0,0,1,1.47.83l0,3.07L110,158.24h-4.42v.53h0l-4.85-35,0-.2L98,158.77h0v-.53H93.5l-5.63-39.18Z"/><path class="cls-20" d="M121.1,99c0-1.35-.12-2.48-.13-2.88a106,106,0,0,0-1-11c-.45-3.33-1-6.67-1.63-10a79.59,79.59,0,0,0-3.78-14.9A19,19,0,0,0,112,55.1a10.15,10.15,0,0,0-7.43-3.35c0,.11-.23,1.29-.11,1.28h.43l2.92,6.05s0,.31,0,.87.06,1.34.09,2.29l0,.66c.18,5,.5,13.51.59,16.8a58.91,58.91,0,0,0,1.17,7.72l5.5.82.07,14.75a43.18,43.18,0,0,0,4,2.57,1.27,1.27,0,0,0,.63.17C121.14,105.59,121.2,101.81,121.1,99Z"/><path class="cls-20" d="M107.87,60c0-.56,0-.87,0-.87L104.92,53h-.54l-2.24.27a1.26,1.26,0,0,1-.58,0,.58.58,0,0,1-.24-.14l-.08-.08-2.25,0,2.25,0a1.84,1.84,0,0,1-.34-.94,1.55,1.55,0,0,0,0-.21,12,12,0,0,0-1.92.5c-3.44,1.2-5.4,3.63-6.57,7.07l-2.8,8.32c-.77,2.27-1.54,4.55-2.21,6.86a118.53,118.53,0,0,0-3.53,18.51c-.38,3.13-.69,6.27-1,9.41-.18,1.92.41,1.55,1.75.61a10,10,0,0,1,2.9-1.75l.58-.16.15-13,3.45-.51,0-.41,0,.41C91.15,93.13,90.55,99,90.55,99s2.79.06,6.83.37l.77.06c1.88.15,4,.35,6.21.62l.33,0a37.23,37.23,0,0,0,5.85.92c1.93.1,2.17-.26,2.17-.26s-1.74-7.1-3-13.28a58.91,58.91,0,0,1-1.17-7.72c-.09-3.29-.41-11.8-.59-16.8l0-.66C107.93,61.3,107.9,60.51,107.87,60ZM97.5,58.46c-1.89,6.94-5,18.47-5.11,21.15,0,.2,0,.42,0,.68,0-.26,0-.48,0-.68.16-2.68,3.22-14.21,5.11-21.15.09-.32.17-.62.25-.92C97.67,57.84,97.59,58.14,97.5,58.46Zm-5.71,28.1v0Zm.06-.62c0-.37.06-.73.1-1.09C91.91,85.21,91.88,85.57,91.85,85.94ZM92,83.85v0Zm.1-1.09c0-.22,0-.44,0-.64C92.18,82.32,92.16,82.54,92.14,82.76Zm.08-1c0-.43.07-.83.1-1.18C92.29,80.93,92.26,81.33,92.22,81.76ZM98.3,55.55l-.2.74c-.07.26-.15.53-.23.82.08-.29.16-.56.23-.82l.2-.74q.11-.36.18-.66Q98.41,55.19,98.3,55.55Z"/><path class="cls-21" d="M97.15,38.62a8.29,8.29,0,0,0-.79,3.71,1.2,1.2,0,0,1-.26,1c-.28.23,0,.68-.23.41a6.43,6.43,0,0,1-1.09-1.59,13.62,13.62,0,0,1-.12-2.55,3.68,3.68,0,0,1,.59-2.11,4,4,0,0,1,1-.85,5.23,5.23,0,0,1,1.67-.87c1-.25,1.72.1.82.9A6.79,6.79,0,0,0,97.15,38.62Z"/><path class="cls-15" d="M104.48,52.75l-4.36.65a27.94,27.94,0,0,1-.59-3.88c-1.28-.15-2.79-.49-3.3-1.82A4.32,4.32,0,0,1,96,46.36l-.33-5.63a5.69,5.69,0,0,1,.12-1.93A3.89,3.89,0,0,1,98,36.6a8.18,8.18,0,0,1,7.55.07,4.15,4.15,0,0,1,1.59,1.47,6.73,6.73,0,0,1,.56,3.47l-.06,3.3c0,1.27-.14,2.74-1.07,3.45-.5.38-1.15.48-1.57,1C104.28,50.17,104.71,51.59,104.48,52.75Z"/><path class="cls-21" d="M95.74,47.47a4.61,4.61,0,0,0,1.87,2.85,6.48,6.48,0,0,0,3.69.64l2.07-.06c1.74,0,3.46-.37,4.26-2.28a5.77,5.77,0,0,0,.34-2.86,2,2,0,0,0-.21-.76.65.65,0,0,0-.62-.34c-.31.06-.48.41-.66.68a1.52,1.52,0,0,1-1.79.68,2.11,2.11,0,0,1-.52-.34l-.2-.15a4.39,4.39,0,0,0-2.3-.77c-.7-.06-1.74-.26-2.22.36l-.85,1.1a1.91,1.91,0,0,1-.39.41,1.29,1.29,0,0,1-1.72-.48,2.39,2.39,0,0,1-.1-.66,1.1,1.1,0,0,0-.21-.62c-.55-.61-.64.42-.65.77A7.56,7.56,0,0,0,95.74,47.47Zm4.76.08a1.93,1.93,0,0,0,1.75.1c.31-.11.47.41.16.53a2.38,2.38,0,0,1-2.14-.14C100,47.86,100.21,47.37,100.5,47.55Z"/><path class="cls-21" d="M94.76,35.48a9.14,9.14,0,0,1-.34-1.37,2.65,2.65,0,0,0,1.34,0l0-.81c0-.23,3-.54,3.21-.57,2.26-.31,4.33-.6,6.44.53a6.28,6.28,0,0,1,3.39,4.53,9.79,9.79,0,0,1-1.18,6.25,14.5,14.5,0,0,0,.07-2.27,4.81,4.81,0,0,0-.55-1.4A5.92,5.92,0,0,0,105,38.37a11.07,11.07,0,0,0-4.5-1.29,12,12,0,0,0-4.54.24c-.66.21-.77.39-1.21-.28a10.71,10.71,0,0,1-.66-1.51Z"/><path class="cls-22" d="M174.78,110.45l-7.15-8.13-.23,0-1.09-2.86L160.55,84.3c-1.69-4.43-2.9-11.87-8.64-12.4l-54.57-5A15.71,15.71,0,0,0,82.3,75L71.42,94.28l-.91-.07L51.7,98.29a18.78,18.78,0,0,0-12,15.84l-1,10.73,138.54,12.68,1.4-15.26A15.77,15.77,0,0,0,174.78,110.45Z"/><path class="cls-23" d="M122.32,96.62l36.4,3.33-6.4-21.12a2.63,2.63,0,0,0-2.26-1.89l-25.73-2.36Z"/><path class="cls-23" d="M118.11,74,97.25,72.1a11.48,11.48,0,0,0-11,5.94L78.06,92.56l38,3.49Z"/><g class="cls-24"><path class="cls-25" d="M152.87,83.85l1.38.91L152.49,79a2.6,2.6,0,0,0-2.25-1.89l-8.91-.82C145.16,78.82,149,81.32,152.87,83.85Z"/><path class="cls-25" d="M153.13,88.77c-6.35-4.23-13-9-19.28-13.32l-8.37-.63c5.28,5.44,12.12,10.47,18.16,15,3.63,2.72,7.35,5.31,11.19,7.73,1.25.8,2.58,1.53,3.9,2.28L156,90.67Z"/><path class="cls-25" d="M110.34,86.6c-2.65-2.08-5.41-4-8.19-5.9s-5.67-3.83-8.66-5.46c-1-.54-2-1-3-1.57A11.92,11.92,0,0,0,86.28,78l-.08.14c3,2.48,5.92,4.94,8.84,7.45,4.32,3.7,9.2,6.65,13.94,9.77l7.11.65.36-4C114.42,90.23,112.49,88.28,110.34,86.6Z"/></g><path class="cls-26" d="M91.14,129.66a9.87,9.87,0,0,0,.36-1.89c.59-6.42-5.06-12.18-12.63-12.87a15.46,15.46,0,0,0-8.12,1.42A26.2,26.2,0,0,1,82.3,123.8a21.27,21.27,0,0,1,3.61,5.35Z"/><path class="cls-26" d="M162.88,136.23a9.82,9.82,0,0,0,.36-1.9c.58-6.41-4.93-12.15-12.31-12.83a14.9,14.9,0,0,0-7.93,1.43,25.44,25.44,0,0,1,11.26,7.45,21.07,21.07,0,0,1,3.51,5.35Z"/><circle class="cls-27" cx="74.93" cy="126.82" r="12.23" transform="translate(-70.8 148.32) rotate(-67.82)"/><circle class="cls-25" cx="74.93" cy="126.82" r="6.94" transform="translate(-57.15 61.59) rotate(-33.14)"/><path class="cls-26" d="M75.7,131.75a5.62,5.62,0,0,0,3.72-1.18,4,4,0,0,1-2.9,2.28,8.24,8.24,0,0,1-2.67-.08,4.07,4.07,0,0,1-2.76-2.3c.17.37,1.5.74,1.83.83A11,11,0,0,0,75.7,131.75Z"/><circle class="cls-27" cx="146.89" cy="133.41" r="12.23"/><circle class="cls-25" cx="146.89" cy="133.41" r="6.94" transform="translate(-46.96 175.81) rotate(-54.58)"/><path class="cls-26" d="M147.67,138.34a5.62,5.62,0,0,0,3.72-1.18,4,4,0,0,1-2.9,2.28,8.24,8.24,0,0,1-2.67-.08,4.07,4.07,0,0,1-2.76-2.3c.17.37,1.5.74,1.83.83A11.45,11.45,0,0,0,147.67,138.34Z"/><rect class="cls-28" x="105.64" y="101.68" width="6.65" height="2.86" rx="1.43" ry="1.43" transform="translate(9.86 -9.51) rotate(5.23)"/><g id="_Группа_5" data-name="&lt;Группа&gt;"><g id="_Группа_6" data-name="&lt;Группа&gt;"><polygon class="cls-15" points="115.2 78.86 114.82 80.8 113.36 81.72 113.41 82.14 113.92 82.11 112.93 83.23 112.9 84.46 114.2 85.46 115.88 85.45 116.71 84.07 116.74 82.14 117.37 79.51 115.2 78.86"/></g><g id="_Группа_7" data-name="&lt;Группа&gt;"><path class="cls-20" d="M114.13,79.75q0-3.25,0-6.51c0-1.4,0-2.8,0-4.2,0-1.76-1.27-1.76-2.25-3.18-2.21-3.19-4.52-6.71-4.26-10.58a2.23,2.23,0,0,1,.31-1.11,1.66,1.66,0,0,1,2-.41,4.68,4.68,0,0,1,1.66,1.41c2.59,3,5.85,6.34,7.7,9.88.83,1.59,0,4.23-.23,6l-1.35,10.82Z"/></g></g><polygon class="cls-11" points="20.61 83.65 20.08 85.7 23.37 86.97 25.01 85.48 24.66 83.61 23.03 84 23.13 83.62 23.62 83.34 23.32 82.85 20.61 83.65"/><path class="cls-12" d="M5,67.88l.27-1.76a4.27,4.27,0,0,1,.89-2.36,4.4,4.4,0,0,1,2.87-1,2.9,2.9,0,0,1,2.57.62,2.92,2.92,0,0,1,.44,1.75c.08,2.79,0,5.6-.11,8.39-.11,2.2-1.18,5.21.56,6.44,2.24,1.58,6.23,2.1,8.87,3l-.67,3.17c-4.27-.67-8.53-1.4-12.8-2-3.53-.52-4.36-.79-4.15-4.67S4.46,71.72,5,67.88Z"/><path class="cls-29" d="M150.59,19.87s-6.4,4.23-12.7,19.1l3.85,1.78s4.68-13.37,10.63-19.4Z"/><path class="cls-30" d="M179.86,6.87S165.73,3.24,158.05,7s-7.6,14.25-7.6,14.25,8.23,6.51,15.91,2.76S179.86,6.87,179.86,6.87Z"/><path class="cls-31" d="M150.45,21.24s.47.37,1.29.89l17.2-9.93-18.4,7.47A14.49,14.49,0,0,0,150.45,21.24Z"/><path class="cls-30" d="M132.93,0s-3.19,12.62.18,19.46,12.74,6.74,12.74,6.74,5.79-7.37,2.41-14.21S132.93,0,132.93,0Z"/><path class="cls-31" d="M145.85,26.2s.33-.43.79-1.16L137.73,9.73l6.72,16.39A12.65,12.65,0,0,0,145.85,26.2Z"/><path class="cls-32" d="M150.45,21.24s15.3,4,24.39-5.48C174.84,15.76,165.4,32.8,150.45,21.24Z"/><path class="cls-33" d="M190.75,102.42H179a1.23,1.23,0,0,1-1.23-1.24v0A1.23,1.23,0,0,1,179,99.92h11.72Z"/><path class="cls-33" d="M210.76,108.79H196.22a9.1,9.1,0,0,1-9.1-9.11V91.07a9.1,9.1,0,0,1,9.1-9.11h14.54Z"/><path class="cls-33" d="M190.75,91.51H179a1.24,1.24,0,0,1-1.23-1.24v0A1.23,1.23,0,0,1,179,89h11.72Z"/><rect class="cls-33" x="208.1" y="93.13" width="42.9" height="4.48"/><polygon class="cls-10" points="204.55 88.14 200.08 87.87 196.08 96.02 199.36 96.22 196.33 102.89 203.84 94.73 200.21 94.2 204.55 88.14"/><polygon class="cls-6" points="212.59 85.52 210.74 87.36 208.43 87.32 208.18 87.8 208.76 88.14 206.84 88.66 205.9 89.97 206.6 92 208.46 93.22 210.4 92.31 211.87 90.22 214.51 87.8 212.59 85.52"/><path class="cls-7" d="M210.79,86.65l9.07-7.75c.82-.69,1.75-1.24,2.56-1.94,1.19-1,1.36-1.29,1-2.72-1.25-5.34-4-8.08-5.42-11.53a41.56,41.56,0,0,1,3.83-2.53c2.28-1.14,2.89.52,3.91,2.19,1.21,2,2.37,4,3.45,6.06.89,1.71,5.28,8.84,3.05,10.67-1.6,1.33-19.25,11.66-19.05,12Z"/></g></g></svg>