<svg xmlns="http://www.w3.org/2000/svg" viewBox="0 0 122.88 147.51"><defs><style>.cls-1{opacity:0.08;}.cls-2{fill:#4c4c4c;}.cls-3{fill:#89705e;}.cls-4{fill:#eeddd0;}.cls-5{fill:#acc7ba;}.cls-6{fill:#88b99c;}.cls-7{fill:#ecdbd1;}.cls-8{fill:#999;}.cls-9{fill:#ccc;}.cls-10{fill:#a7c2b5;}.cls-11{fill:#759c88;}.cls-12{fill:#986748;}.cls-13{fill:#b47d4f;}.cls-14{fill:#57453f;}.cls-15{fill:#303030;}.cls-16{fill:#169b71;}</style></defs><title>Ресурс 32</title><g id="Слой_2" data-name="Слой 2"><g id="программа"><path class="cls-1" d="M10.85,144.15c-.83,1.43,3,2.51,6.32,2.86,9.67,1,19.83.26,29.63-.52,3.52-.28,8-1.16,7.32-2.68-.38-.84-2.27-1.35-4-1.72-11.76-2.49-27-3-37,.73A4.56,4.56,0,0,0,10.85,144.15Z"/><path class="cls-1" d="M72.16,144.05c-.88,1,3.22,1.76,6.73,2,10.29.73,21.1.18,31.53-.37,3.74-.2,8.54-.81,7.79-1.88-.42-.58-2.43-.94-4.29-1.2-12.51-1.74-28.78-2.07-39.38.51A5.76,5.76,0,0,0,72.16,144.05Z"/><path class="cls-2" d="M16.32,88.82l8-.14c.17-.35-.53-.06-.52.33a175.81,175.81,0,0,1-3.56,36.1c-1,5.12-2.32,10.24-2.39,15.46l-3.29,0c-.12-9,.14-16.38-1.54-25.27C11.6,107.57,10.13,99.8,10.35,92,12.56,91.28,14.33,88.85,16.32,88.82Z"/><path class="cls-3" d="M17.12,143c.45.39-.17.69-.47.71a5,5,0,0,1-1.64-.12.91.91,0,0,1-.39-.17,1.38,1.38,0,0,1-.22-.26c-.17-.27-.58-.68-.64-1a1.11,1.11,0,0,1,.22-.71,3.55,3.55,0,0,0,.67-1.56c1.17.14,2.3-.25,3.27.08.08.41.38.74.24,1.06.1-.21,2.93.53,3.26.6a15.52,15.52,0,0,0,1.64.26c.43,0,1.25-.15,1.49.28a1.23,1.23,0,0,1,.12.51.87.87,0,0,1,0,.39.76.76,0,0,1-.49.45C21.8,144.39,19.49,143,17.12,143Z"/><path class="cls-4" d="M61.67,49.8a4.26,4.26,0,0,1,1.33.27c.41.15.86.48.81.92s-.54.65-1,.74a15.74,15.74,0,0,1-6-.28,6.64,6.64,0,0,1,.31-2.08,5.21,5.21,0,0,0,2.48.13,5,5,0,0,1,2.63-.24l-.08.34Z"/><path class="cls-5" d="M25.46,33.07c.11-3.91,4.78-5.64,6.64-1.09,1.69,4.11,2.82,8.43,5.55,12.18a8.2,8.2,0,0,0,5.67,3.29c4.79.62,9.6,1.14,14.4,1.54,0,1,0,2,0,3l-18,.76a9.83,9.83,0,0,1-3.46-.28,7.77,7.77,0,0,1-2.75-1.8C28.24,45.85,25.28,39.35,25.46,33.07Z"/><path class="cls-2" d="M24.56,89.71l8-1c.14-.36-.52,0-.48.39a175.18,175.18,0,0,1,.35,36.27c-.48,5.2-1.2,10.43-.71,15.62l-3.28.32L22.46,92.67a2.8,2.8,0,0,1,.42-2.35A2.82,2.82,0,0,1,24.56,89.71Z"/><path class="cls-5" d="M28.88,35.59c-.9-2.56-1.81-5.11-2.71-7.67a7.32,7.32,0,0,1-8-.22c2.07,23,1.49,46.15.9,69.24a32.91,32.91,0,0,1,14.48-2.36q.18-13.67.37-27.33c.08-6,.16-12-.93-17.86A91.7,91.7,0,0,0,28.88,35.59Z"/><path class="cls-6" d="M11.79,27.67C8.86,30.39,7.58,34.4,6.41,38.23,4.12,45.76.42,53.92.05,61.76c-.21,4.74.28,9.63.47,14.36.07,1.6,1.09,24,1.68,23.89A81.57,81.57,0,0,1,23,99.4a30.19,30.19,0,0,0,2-9.58,205.15,205.15,0,0,0,.32-38.39,110.48,110.48,0,0,0-3.48-19.27c-.56-1.95-1.18-6.45-3.18-6.83C17.76,25.15,13.26,27.49,11.79,27.67Z"/><path class="cls-6" d="M29.77,30.72a54.32,54.32,0,0,1-3-5.82,4,4,0,0,1-3.1,1.38c6.48,16,6.69,33.74,6.81,51l.15,21.21a30.77,30.77,0,0,1,10.65-.6c-2.19-5.9-3.86-12.08-3.92-18.38,0-3.85.52-7.69.76-11.54A69,69,0,0,0,29.77,30.72Z"/><path class="cls-7" d="M18.28,21.23A7.67,7.67,0,0,1,17,17.44,18.31,18.31,0,0,1,18,9.1c1.24-3,4.44-5.9,7.82-5.11,4,.92,3.78,6.25,3.56,9.79a11.46,11.46,0,0,1-3.06,7.56C23.39,24.17,20.06,23.77,18.28,21.23Z"/><path class="cls-8" d="M8.37,19.59c.25-1.27,1.45-2.19,2-3.33,1.19-2.31,1.14-4.73,1-7.33-.16-3,1-4.76,3.22-6.45A11.51,11.51,0,0,1,27.22,1.39l.31.18A9.7,9.7,0,0,1,30,6.79a9.21,9.21,0,0,1-.39,4l-.25.47c.13-1.37.09-2.85-.53-3.33s-3.8.14-4.73-.06C22.59,7.48,20,6,18.83,7.76c-.56.89-.22,2.09,0,3.06.5,2,1.17,2.36.4,4.21-2,4.91.4,8.1-2.45,10.42-2.46,2-5.59,1.75-7.38-1.42A8.18,8.18,0,0,1,8.37,19.59Z"/><path class="cls-3" d="M31.18,143.53c.5.33-.09.7-.39.75a5,5,0,0,1-1.63.06.94.94,0,0,1-.41-.13,1.13,1.13,0,0,1-.25-.24c-.2-.24-.65-.61-.74-.9a1.09,1.09,0,0,1,.14-.74,3.36,3.36,0,0,0,.49-1.61c1.19,0,2.27-.51,3.27-.29.12.4.46.71.35,1,.07-.22,3,.21,3.31.24a15.19,15.19,0,0,0,1.65.08c.43,0,1.23-.28,1.51.12a1.26,1.26,0,0,1,.18.49,1.08,1.08,0,0,1,0,.4.76.76,0,0,1-.44.49C36,144.38,33.54,143.26,31.18,143.53Z"/><path class="cls-9" d="M21.63,52.06A.17.17,0,0,1,22,52c.06.61.13,1.23.19,1.85a.18.18,0,0,1-.35,0Z"/><path class="cls-9" d="M31.71,54.91c0,.39.08.79.11,1.19a.17.17,0,0,1-.34,0c-.05-.4-.1-.8-.14-1.2A.19.19,0,0,1,31.71,54.91Z"/><path class="cls-4" d="M46.11,58.44a3.54,3.54,0,0,1,1,.37,1.15,1.15,0,0,1,.55.88.69.69,0,0,1-.66.69.35.35,0,0,1,0,.3,3,3,0,0,1-2.17-.4,9.07,9.07,0,0,0-1.68-.52,2.06,2.06,0,0,1-1.32-.6,1.3,1.3,0,0,1-.15-1,6.15,6.15,0,0,1,.38-1l2.66.22a1,1,0,0,1,.42.11.32.32,0,0,1,.14.37.79.79,0,0,0-.47.3Z"/><path class="cls-10" d="M11.43,37.76c.48-3.94,5.36-5.24,6.81-.48,1.31,4.3,2.05,8.76,4.45,12.81a8.24,8.24,0,0,0,5.41,3.84q7.15,1.62,14.38,2.91c-.11,1-.21,2-.31,3L24,59a9.72,9.72,0,0,1-3.47-.61,7.87,7.87,0,0,1-2.6-2.07C13,50.91,10.66,44.07,11.43,37.76Z"/><path class="cls-5" d="M21.35,69.82a19.31,19.31,0,0,1-10.73.6c.12,2.71.07,5.18.19,7.89.08,2,.2,4.13,1.3,5.82a5.63,5.63,0,0,0,8.75.84c1.66-1.71,2.07-4.28,2.12-6.67a32.43,32.43,0,0,0-.92-8.61A1.27,1.27,0,0,0,21.35,69.82Z"/><path class="cls-5" d="M37.7,69.58a4.93,4.93,0,0,1-5.22.6c.06,2.72,0,5.18.09,7.9a21.56,21.56,0,0,0,.64,5.82c.44,1.4,1.21,2.36,2,2.52s1.66-.48,2.23-1.68a17.49,17.49,0,0,0,1-6.67A64.8,64.8,0,0,0,38,69.45C37.91,69.41,37.82,69.49,37.7,69.58Z"/><path class="cls-11" d="M20.19,73.25a8.21,8.21,0,0,1-7.66.23c-.23-.11-.43.22-.2.34a8.38,8.38,0,0,0,8.19,0C20.9,73.62,20.56,73.05,20.19,73.25Z"/><path class="cls-11" d="M37.4,72.7a4.61,4.61,0,0,1-2.82.14c-.22-.06-.31.27-.09.35a4.2,4.2,0,0,0,3.1-.06C37.83,73,37.66,72.61,37.4,72.7Z"/><path class="cls-11" d="M9,63a25.25,25.25,0,0,1-2.71-.49.2.2,0,0,0-.1.38,12.32,12.32,0,0,0,2.75.56C9.16,63.48,9.22,63.06,9,63Z"/><path class="cls-11" d="M14.4,62.79c-.74.05-1.47.14-2.22.13a.19.19,0,0,0,0,.37,12.43,12.43,0,0,0,2.28-.08C14.7,63.18,14.64,62.77,14.4,62.79Z"/><path class="cls-11" d="M20.13,62.35l-1.87,0a.2.2,0,0,0,0,.39l1.87,0A.22.22,0,0,0,20.13,62.35Z"/><path class="cls-11" d="M33.4,61.06c-.39.11-.78.24-1.17.37a.18.18,0,0,0,.1.34l1.18-.31A.21.21,0,0,0,33.4,61.06Z"/><path class="cls-11" d="M36.78,60.93a2.54,2.54,0,0,0-1,.56c-.17.15.06.45.24.31a2.56,2.56,0,0,1,.89-.44A.22.22,0,0,0,36.78,60.93Z"/><path class="cls-8" d="M105,129.06c.2-.17-.06-.5-.28-.36-3.12,2.09-2.37,6.77-.5,9.43.3.42,1,0,.69-.4C103.12,135.19,102.37,131.33,105,129.06Z"/><path class="cls-8" d="M104.23,129.14c-7.65-1.32-14.82-3.1-21.43-7.34a57.58,57.58,0,0,1-15.56-15.44A107,107,0,0,1,56,84.76c-1.48-3.65-2.84-7.34-4.19-11-1.49-4.06-3.06-8.12-3.13-12.5a.25.25,0,0,0-.5,0c0,4,1.24,7.72,2.56,11.44,1.46,4.12,3,8.22,4.57,12.28a107.61,107.61,0,0,0,11.22,21.81,59.94,59.94,0,0,0,14.88,15.13c6.83,4.75,14.49,6.69,22.57,8.1C104.56,130.09,104.79,129.24,104.23,129.14Z"/><path class="cls-12" d="M76.35,143.61a1,1,0,0,0,.57.36c.53.08.9-.49,1.11-1a17.14,17.14,0,0,0,1.27-4.88,4.94,4.94,0,0,0-1-1.75c-.18-.21-.47-.41-.71-.27a.65.65,0,0,0-.23.36c-.36,1-.72,2-1.07,3C75.83,140.84,75.4,142.51,76.35,143.61Z"/><path class="cls-12" d="M95.52,142.92a1,1,0,0,0,.36.57c.44.3,1,0,1.42-.39a17.94,17.94,0,0,0,3.28-3.84,4.82,4.82,0,0,0-.12-2c-.07-.27-.24-.58-.51-.55a.62.62,0,0,0-.37.22l-2.28,2.26C96.27,140.2,95.15,141.52,95.52,142.92Z"/><path class="cls-13" d="M72.2,132.21c-.41,1.85,1,3.62,2.62,4.62,3.27,2.06,7.34,2.24,11.2,2.35l10.39.31c2.85.08,5.78.15,8.45-.86s5-3.36,5.13-6.21a3.22,3.22,0,0,0-.64-2.22,4.46,4.46,0,0,0-2.62-1.2,77,77,0,0,0-29.37-.2C75.21,129.21,72.68,130.08,72.2,132.21Z"/><path class="cls-13" d="M82.08,138.77a4.41,4.41,0,0,0-.7-2.81,1.85,1.85,0,0,0-2.58-.45v9.12a3.91,3.91,0,0,0,2,.42A17.35,17.35,0,0,0,82.08,138.77Z"/><path class="cls-13" d="M102,139.18a4.48,4.48,0,0,0-.69-2.81,1.87,1.87,0,0,0-2.59-.45V145a3.93,3.93,0,0,0,2.05.42A17.29,17.29,0,0,0,102,139.18Z"/><path class="cls-13" d="M105.82,128.92l3.52.18a4.36,4.36,0,0,1,2.47.65c1.12.86,1.12,2.51,1.11,3.92a2.4,2.4,0,0,0,.27,1.35c.6.88,2.23.81,2.52,1.84a1.31,1.31,0,0,1-.73,1.42,3.65,3.65,0,0,1-1.68.31,37.88,37.88,0,0,1-5.63-.31,3,3,0,0,1-1.67-.6,2.44,2.44,0,0,1-.61-1.27,6.19,6.19,0,0,1,2.14-6,.42.42,0,0,1,.34-.13A16.52,16.52,0,0,0,105.82,128.92Z"/><path class="cls-14" d="M109.55,136.64q.09-1.69,0-3.39a4.55,4.55,0,0,0-.52-2.32,1.71,1.71,0,0,0-2.07-.76c-.7.34-.91,1.22-1,2-.19,1-.37,2.05-.55,3.07a6.47,6.47,0,0,0,0,3.09,2.24,2.24,0,0,0,2.31,1.68,2.2,2.2,0,0,0,1.51-1.32A5.63,5.63,0,0,0,109.55,136.64Z"/><path class="cls-13" d="M72,132.32c.65.25,1.62,0,1.63-.69a4.66,4.66,0,0,1-1.88-2.82l-1,0A2.58,2.58,0,0,0,72,132.32Z"/><path class="cls-15" d="M69.68,126.61a2.05,2.05,0,0,0-2.2,1.7c0,.24.33.26.4.06a1.71,1.71,0,0,1,1.8-1.24C70,127.17,70,126.64,69.68,126.61Z"/><path class="cls-15" d="M66.81,126.7a1.09,1.09,0,0,0-1,.75,2.32,2.32,0,0,0,.41,1.91c.12.22.44,0,.33-.19-.27-.54-.82-2,.31-2C67.1,127.16,67.09,126.71,66.81,126.7Z"/><path id="_Составной_контур_" data-name="&lt;Составной контур&gt;" class="cls-16" d="M121.28,105.07c-5.22-7.95-10-6.71-10.7-6.47a20.45,20.45,0,0,0-5.11,1.08c-3.6,1.29-5.87,3.46-6.57,6.28a18.68,18.68,0,0,0-.7,6.4l0,.06.06,0a9,9,0,0,0,1.33,3.9c1.59,2.45,4.51,4.08,8.68,4.85a9.1,9.1,0,0,0,2.8.43,12.4,12.4,0,0,0,9.57-5C123.37,113,123.63,108.65,121.28,105.07Zm-1.45-.36a24.6,24.6,0,0,1-3.7,1.22,15.45,15.45,0,0,0-4.39-6.54C113.21,99.29,116.3,99.8,119.83,104.71Zm-9.16-5a15.07,15.07,0,0,1,4.48,6.39,24.52,24.52,0,0,1-5.26.47C110.25,103.29,110.58,100.5,110.67,99.75Zm-.42,7.86a26.35,26.35,0,0,0,5.16-.51,9.13,9.13,0,0,1,.16,2.55,11,11,0,0,1-1.86,5.09,31.31,31.31,0,0,1-4.64.16c.19-2.28.45-4.88.71-7.3Zm-1.36-1a27.56,27.56,0,0,1-3.4-.38,16.14,16.14,0,0,1,4.07-5.5C109.4,102,109.15,104.15,108.89,106.58Zm.19-6.79a17.16,17.16,0,0,0-4.59,6.22,24.85,24.85,0,0,1-4.09-1.21C102.16,101.41,106.64,100.2,109.08,99.79Zm-9.22,6.41c0-.17.1-.32.15-.48a25.89,25.89,0,0,0,4.15,1.23,12.3,12.3,0,0,0-.55,2.89,13.19,13.19,0,0,0,.47,4.33A14.61,14.61,0,0,1,99.15,112,18.13,18.13,0,0,1,99.86,106.2Zm.52,9.63a7.66,7.66,0,0,1-1-2.53,16.83,16.83,0,0,0,5.11,2,18,18,0,0,0,2.56,4.62C103.86,119.15,101.63,117.77,100.38,115.83Zm7.43,3.5a16.93,16.93,0,0,1-2.18-3.77,22.6,22.6,0,0,0,2.37.29C107.9,117.21,107.83,118.41,107.81,119.33Zm.27-4.49a24.43,24.43,0,0,1-2.87-.41,12.26,12.26,0,0,1-.61-4.53,11,11,0,0,1,.54-2.76,28.67,28.67,0,0,0,3.64.43C108.53,110,108.27,112.56,108.08,114.84Zm.91,1.08c.39,0,.79,0,1.2,0,.86,0,1.78,0,2.74-.13a21.15,21.15,0,0,1-4.14,4C108.79,118.89,108.87,117.52,109,115.92Zm10.81.09c-2.56,3.35-6.73,5.13-10.28,4.51a21.31,21.31,0,0,0,4.76-4.84,45.16,45.16,0,0,0,6.56-1.33A11.41,11.41,0,0,1,119.8,116Zm1.5-2.82a43.72,43.72,0,0,1-6.32,1.39,11.77,11.77,0,0,0,1.58-4.85,10,10,0,0,0-.18-2.84,25,25,0,0,0,4-1.35l0,.08a8.34,8.34,0,0,1,.87,7.65Z"/><path id="_Контур_" data-name="&lt;Контур&gt;" class="cls-16" d="M110.51,97.76s-3,.29-4.16-3.53-1.92-4.72-1.92-4.72.06-.28.77.09,5.34,1.61,5.79,4S110.93,97.25,110.51,97.76Z"/><g id="_Группа_" data-name="&lt;Группа&gt;"><path id="_Контур_2" data-name="&lt;Контур&gt;" class="cls-16" d="M111.13,98.94a.34.34,0,0,1-.66,0,1.37,1.37,0,0,0,0-.68,16.41,16.41,0,0,0-2.9-6.13c-.12-.13-.45-.38-.31-.51s.51.19.64.33c2.07,2.25,3.19,6.62,3.25,6.81A.62.62,0,0,1,111.13,98.94Z"/></g><path id="_Контур_3" data-name="&lt;Контур&gt;" class="cls-16" d="M111.24,98.13s1.86.75,3.31-1.47A10,10,0,0,1,116.66,94s0-.2-.51-.09-3.7,0-4.43,1.43A3.5,3.5,0,0,0,111.24,98.13Z"/><g id="_Группа_2" data-name="&lt;Группа&gt;"><path id="_Контур_4" data-name="&lt;Контур&gt;" class="cls-16" d="M110.63,98.76a.21.21,0,0,0,.1.23.24.24,0,0,0,.31-.07.91.91,0,0,1,.14-.43,11.14,11.14,0,0,1,3-3.36c.1-.06.35-.16.29-.26s-.36,0-.47.08a12.68,12.68,0,0,0-3.34,3.73A.13.13,0,0,0,110.63,98.76Z"/></g></g></g></svg>