<svg xmlns="http://www.w3.org/2000/svg" xmlns:xlink="http://www.w3.org/1999/xlink" viewBox="0 0 74.62 115.5"><defs><style>.cls-1{mask:url(#mask);filter:url(#luminosity-noclip-2);}.cls-2,.cls-7{mix-blend-mode:multiply;}.cls-2{fill:url(#linear-gradient);}.cls-3{isolation:isolate;}.cls-4{fill:#3d697c;}.cls-5{fill:#ffd8bf;}.cls-6{mask:url(#mask-2);}.cls-7{opacity:0.2;fill:url(#linear-gradient-2);}.cls-8{fill:#4c4c4c;}.cls-9{fill:#90a9b3;}.cls-10{fill:#417183;}.cls-11{fill:#4a7e92;}.cls-12{fill:#303030;}.cls-13{fill:#ccb696;}.cls-14{fill:#377a53;}.cls-15{fill:#2a6843;}.cls-16{fill:#5f9b76;}.cls-17{fill:#b7cace;}.cls-18{fill:#4774b2;}.cls-19{fill:#ececec;}.cls-20{filter:url(#luminosity-noclip);}</style><filter id="luminosity-noclip" x="25.52" y="-8654.21" width="37.14" height="32766" filterUnits="userSpaceOnUse" color-interpolation-filters="sRGB"><feFlood flood-color="#fff" result="bg"/><feBlend in="SourceGraphic" in2="bg"/></filter><mask id="mask" x="25.52" y="-8654.21" width="37.14" height="32766" maskUnits="userSpaceOnUse"><g class="cls-20"/></mask><linearGradient id="linear-gradient" x1="25.52" y1="114.01" x2="62.66" y2="114.01" gradientUnits="userSpaceOnUse"><stop offset="0" stop-color="#fff"/><stop offset="1"/></linearGradient><filter id="luminosity-noclip-2" x="25.52" y="112.51" width="37.14" height="2.99" filterUnits="userSpaceOnUse" color-interpolation-filters="sRGB"><feFlood flood-color="#fff" result="bg"/><feBlend in="SourceGraphic" in2="bg"/></filter><mask id="mask-2" x="25.52" y="112.51" width="37.14" height="2.99" maskUnits="userSpaceOnUse"><g class="cls-1"><path class="cls-2" d="M28.65,112.77A5.23,5.23,0,0,0,25.52,115l18.44.39c3.74.08,7.48.16,11.21.12a39.16,39.16,0,0,0,6.58-.48c.43-.08,1-.37.9-.87a.86.86,0,0,0-.62-.58,20.66,20.66,0,0,0-7.5-.88l-14.06.08c-2.24,0-4.54.2-6.77,0A13.61,13.61,0,0,0,28.65,112.77Z"/></g></mask><linearGradient id="linear-gradient-2" x1="25.52" y1="114.01" x2="62.66" y2="114.01" gradientUnits="userSpaceOnUse"><stop offset="0"/><stop offset="1"/></linearGradient></defs><title>Ресурс 10</title><g class="cls-3"><g id="Слой_2" data-name="Слой 2"><g id="для_кого" data-name="для кого"><path class="cls-4" d="M47,21.87a1.89,1.89,0,0,0-1.38,1A3.23,3.23,0,0,0,45.74,25a69,69,0,0,0,6.81,15.67,1.91,1.91,0,0,0,.46.58,1.49,1.49,0,0,0,.74.2A51.81,51.81,0,0,0,64,41.13a1.53,1.53,0,0,0,1.31-.93,1.32,1.32,0,0,0-.76-1.43A4.2,4.2,0,0,0,63,38.61a37.6,37.6,0,0,1-6.9-1,3.62,3.62,0,0,1-1.84-1.08A4.86,4.86,0,0,1,53.58,35l-2.64-8.52c-.36-1.14-.61-3-1.26-4C49.13,21.67,47.8,21.68,47,21.87Z"/><path class="cls-5" d="M64.29,40.14a2,2,0,0,0,.16.93.52.52,0,0,0,.17.19.51.51,0,0,0,.27.06,5.29,5.29,0,0,0,3.93-1.54,1.53,1.53,0,0,0,.6-1.25.75.75,0,0,0-.64-.62,1.81,1.81,0,0,0-.94.13c-.26.09-.59.16-.69-.1a1.39,1.39,0,0,0-.06-.19c-.06-.09-.19-.08-.3-.06a5,5,0,0,0-2,.73C64.24,38.78,64.29,39.57,64.29,40.14Z"/><g class="cls-6"><path class="cls-7" d="M28.65,112.77A5.23,5.23,0,0,0,25.52,115l18.44.39c3.74.08,7.48.16,11.21.12a39.16,39.16,0,0,0,6.58-.48c.43-.08,1-.37.9-.87a.86.86,0,0,0-.62-.58,20.66,20.66,0,0,0-7.5-.88l-14.06.08c-2.24,0-4.54.2-6.77,0A13.61,13.61,0,0,0,28.65,112.77Z"/></g><path class="cls-4" d="M33,24.91c-.87,2.56-2.21,4.87-3.29,7.33S27.93,37,27,39.38a3.54,3.54,0,0,1-.66,1.21,1.87,1.87,0,0,1-2.19.27,5.89,5.89,0,0,1-1.81-1.65,1.47,1.47,0,0,1-.35-.59,1.77,1.77,0,0,1,.21-1q1.58-3.59,2.94-7.28A30.91,30.91,0,0,1,27.42,25c.9-1.51,2.38-3.19,4-3.67a1.56,1.56,0,0,1,1.65.83A3.23,3.23,0,0,1,33,24.91Z"/><path class="cls-8" d="M49.68,88.91c-.18,6.25-.36,11.51-.42,21.06l-2.9.26c-.92-8.34-1-13.28-1.83-18.64A123.72,123.72,0,0,0,39.2,69.91,22.32,22.32,0,0,1,38,62.68a5.18,5.18,0,0,1,.4-2.15,4.54,4.54,0,0,1,3.25-2.24,13,13,0,0,1,6.32.05c.86.23,1.3.28,1.53,1.26a22.64,22.64,0,0,1,.14,4q.26,8.07.19,16.16C49.82,82.78,49.77,85.85,49.68,88.91Z"/><path class="cls-8" d="M29.75,70.66c.33,5.12,1.11,10.18,1.84,15.25,1.08,7.38,2.24,16.76,3.13,24.16.83,0,1.72.42,2.44-.06s.63-3.76.59-4.8a144.68,144.68,0,0,1,1.11-19.84c.69-6.67,1.37-13.35,2.69-19.89.46-2.29,1-4.83,0-6.9a5.46,5.46,0,0,0-3.43-2.8,13.76,13.76,0,0,0-4.29-.36c-1.07,0-2.81-.11-3.73.65s-.54,2.88-.56,4.12C29.5,63.68,29.52,67.17,29.75,70.66Z"/><path class="cls-5" d="M32.8,11.76a16.08,16.08,0,0,0,.91,5,5.49,5.49,0,0,0,3.15,3.35c1.88.58,4-.64,5-2.53a10.46,10.46,0,0,0,.9-6.53,9.56,9.56,0,0,0-.65-2.4C41.12,6.39,37.92,3,35.51,4S32.64,9.23,32.8,11.76Z"/><path class="cls-9" d="M40.63,20.9A18,18,0,0,1,44,20.14,3.39,3.39,0,0,1,47,21.53a7.13,7.13,0,0,1,.72,3.68,110.8,110.8,0,0,0,1.44,13.6c.83,5.62,1.68,11.37.89,17a7.59,7.59,0,0,1-1.68,4.33,4.57,4.57,0,0,1-2.19,1.18,11.53,11.53,0,0,1-3.66.15,73,73,0,0,1-12.82-2.71,2.71,2.71,0,0,1-.81-.33A2.49,2.49,0,0,1,28,56.57a9.66,9.66,0,0,1,.18-2.21,94.49,94.49,0,0,0,.58-14.58,52.52,52.52,0,0,1,.33-7.21c.21-1.57.55-3.12.8-4.69.32-2.06.52-6.41,2.71-7.08,1.08-.33,2.43.33,3.51.43A13.19,13.19,0,0,0,40.63,20.9Z"/><path class="cls-10" d="M34.76,29c-.5,3.69-1,7.39-1.28,11.11-.42,5.34-.4,10.71-.39,16.07q0,3.15,0,6.3a6.24,6.24,0,0,0-2.8-1.06c-1.1-.13-2.37,0-3.12-1a4.51,4.51,0,0,1-.6-2.87C26.72,45.92,27,34.06,30.13,23A4.55,4.55,0,0,1,31,21.11a2.67,2.67,0,0,1,2.4-.65c.44.07,1.85.12,2.16.46.48.51.1,1.58,0,2.31Q35.16,26.11,34.76,29Z"/><path class="cls-4" d="M33.75,23.52C32.17,29,31.64,35,31.08,40.77c-.6,6.13-1,12.29-1.21,18.45a.39.39,0,1,0,.77,0c.22-5.92.53-11.82,1.07-17.71s.93-12.12,2.36-17.89A.17.17,0,1,0,33.75,23.52Z"/><path class="cls-4" d="M32.13,22.1a208.81,208.81,0,0,0-4.47,35.58.15.15,0,1,0,.29,0A297,297,0,0,1,32.76,22.3C32.86,21.83,32.23,21.63,32.13,22.1Z"/><path class="cls-11" d="M33.58,35.67a18.26,18.26,0,0,0-5.16-.42c-.26,0-.26.46,0,.46a19,19,0,0,1,4.95.83C33.86,36.67,34.07,35.8,33.58,35.67Z"/><path class="cls-11" d="M33.1,37.08c-1.61-.29-3.23-.51-4.85-.71-.2,0-.25.36-.05.4,1.57.38,3.14.74,4.73,1C33.34,37.87,33.51,37.15,33.1,37.08Z"/><path class="cls-11" d="M32.93,38.39c-1.58-.36-3.2-.49-4.8-.7-.18,0-.22.32-.05.37,1.58.39,3.16.86,4.76,1.1C33.22,39.21,33.3,38.48,32.93,38.39Z"/><path class="cls-10" d="M42.43,42.46c.83,6.79,1.64,13.81.08,20.43a14.67,14.67,0,0,0,4.7-.56,4.87,4.87,0,0,0,3.34-2.49A6.4,6.4,0,0,0,51,58.1C52,49.86,50,41.52,49.86,33.19c0-1.35,0-2.71-.13-4-.1-1.11-.31-2.21-.52-3.31s-.46-2.37-.68-3.56A5,5,0,0,0,48,20.58c-.71-1.16-2.12-1.28-3.35-1.3s-4-.22-4.67,1.39c-.32.76.09,2.15.19,2.94.15,1.28.31,2.57.46,3.85Q41.54,35,42.43,42.46Z"/><path class="cls-4" d="M42.36,21.85c1.78,12.52,3.57,25.42,3,38.14a.38.38,0,1,0,.75,0c.4-13-1.49-25.5-3.47-38.22C42.57,21.59,42.33,21.67,42.36,21.85Z"/><path class="cls-4" d="M49,40A180.52,180.52,0,0,0,46,20.6c0-.19-.28-.11-.25.08.93,6.55,1.8,13.1,2.44,19.7.62,6.31,1.11,12.7.38,19-.06.51.73.64.79.12C50.14,53,49.64,46.5,49,40Z"/><path class="cls-11" d="M48.36,34.63a52.31,52.31,0,0,0-6.22.67c-.22,0-.17.48.06.47,2-.1,4.11-.23,6.16-.42C48.75,35.31,48.76,34.61,48.36,34.63Z"/><path class="cls-11" d="M48.24,36.75c.45,0,.47-.85,0-.82a50.47,50.47,0,0,0-5.73.75c-.18,0-.14.37,0,.36C44.44,37,46.36,36.94,48.24,36.75Z"/><path class="cls-11" d="M49.35,37.27a59.65,59.65,0,0,0-6.63.8c-.23,0-.24.46,0,.44a60.17,60.17,0,0,0,6.72-.44C49.84,38,49.74,37.27,49.35,37.27Z"/><path class="cls-4" d="M25.21,41.74a2.65,2.65,0,0,1-1.44.71A28.31,28.31,0,0,1,13.5,43a1,1,0,0,1-.74-.33,1.89,1.89,0,0,1-.24-.75l-.18-1a1.84,1.84,0,0,1,0-.81,1.21,1.21,0,0,1,1.18-.79,61.29,61.29,0,0,0,9.34-1.87A3.92,3.92,0,0,1,25,37.22C26.54,37.7,26.45,40.42,25.21,41.74Z"/><path class="cls-5" d="M12.35,40.34a1.46,1.46,0,0,0-.65-.73,1.36,1.36,0,0,0-.6-.06,7.75,7.75,0,0,1-1.73-.17,2.48,2.48,0,0,0-.89-.09.65.65,0,0,0-.55.61c0,.07,0,.16,0,.2a.17.17,0,0,1-.14,0,.9.9,0,0,0-.87.61,3,3,0,0,0-.15,1.17.92.92,0,0,0,.13.59.8.8,0,0,0,.29.22,5.82,5.82,0,0,0,2.8.4c.77,0,2.17.18,2.79-.35S12.66,40.94,12.35,40.34Z"/><path class="cls-12" d="M49.19,108.84a.59.59,0,0,1,.35.06.66.66,0,0,1,.18.34l.39,1.16a1.72,1.72,0,0,0,.38.75,1.58,1.58,0,0,0,.44.24,18.89,18.89,0,0,0,4,1,.46.46,0,0,1,.35.16.63.63,0,0,1,.07.22,4.93,4.93,0,0,1,.07.66.59.59,0,0,1-.05.35c-.11.2-.35.21-.56.2q-3.83-.18-7.67-.1a2.47,2.47,0,0,1-1.23-.19,21.3,21.3,0,0,0,0-2.26c0-.37,0-.75-.07-1.12a2.83,2.83,0,0,1,0-.82c.13-.49,1-.42,1.43-.47C47.91,108.94,48.55,108.88,49.19,108.84Z"/><path class="cls-12" d="M37.82,109.21c.07,0,.14,0,.19,0s.06.15.07.24a36.62,36.62,0,0,1,0,3.92.39.39,0,0,1-.1.29.4.4,0,0,1-.13,0c-2.6.33-5.2.57-7.82.72a.85.85,0,0,1-.66-.14,1.19,1.19,0,0,1-.25-.86,1.46,1.46,0,0,1,.07-.51,1.21,1.21,0,0,1,.84-.6l2.42-.76a1.8,1.8,0,0,0,.65-.32,2.15,2.15,0,0,0,.36-.48,4.67,4.67,0,0,1,.72-1.21c.24-.19.78-.12,1.07-.14Z"/><path class="cls-13" d="M43.46,10.88c-.38-.34-.23-1.07,0-1.54A2.33,2.33,0,0,0,44,7.8C43.79,7,42.68,6.8,42.52,6a4.6,4.6,0,0,1,.1-1.1A2,2,0,0,0,42,3.32a2.36,2.36,0,0,0-1.42-.52c-.41,0-.88,0-1.17-.34a3.39,3.39,0,0,1-.43-1A2.54,2.54,0,0,0,36.72,0,3.41,3.41,0,0,0,34,.77c-.29.28-.53.63-.8.93a18.57,18.57,0,0,1-2.33,1.74,1.27,1.27,0,0,0-.54.77c-.07.47.25.87.42,1.31a2.15,2.15,0,0,1,.1,1.23,7.28,7.28,0,0,1-.74,1.54A1.84,1.84,0,0,0,29.92,10c.21.36.59.52.83.85s1.48.59,1.41,1.17a1.31,1.31,0,0,0,.07.88c.25.36-.31.69,0,1s.13.61.22.91a.71.71,0,0,0,.77.53,4.17,4.17,0,0,0,0-2.19,2.16,2.16,0,0,1-.15-.9c.11-.74,1.06-.94,1.18-1.67.09-.52-.3-1-.28-1.54A1.27,1.27,0,0,1,34.66,8c.38-.19.81-.23,1.2-.39C36.45,7.34,37,6.8,37.64,7l.2-.5a1.3,1.3,0,0,0,.35,1.45,2.38,2.38,0,0,0,1.33.47,2.77,2.77,0,0,1,1.34.38.61.61,0,0,1,.22.23,1,1,0,0,1-.1.75c-.09.24-.14.56,0,.72s.37.05.55.14c.36.18.22.85.4,1.27a2.55,2.55,0,0,0,.24.39A2.25,2.25,0,0,1,42.52,14a6.67,6.67,0,0,0-.24,1c0,.34.15.74.43.76A5.25,5.25,0,0,1,43,14.22c.15-.36.37-.67.55-1a3.74,3.74,0,0,0,.39-1.28,1,1,0,0,0-.15-.81A3.71,3.71,0,0,0,43.46,10.88Z"/><path class="cls-14" d="M72.49,22.15,74,17.27a.92.92,0,0,0-.43-1.09l-1.06-.5a.71.71,0,0,0-1,.45l-1.84,4.71a.78.78,0,0,1-.77.51,2.36,2.36,0,0,0-2.37,1.72L62.15,35.75a.92.92,0,0,0,.42,1.13l5.51,2.56a.73.73,0,0,0,1-.48l4.38-12.68a3.05,3.05,0,0,0-.7-3.15A1,1,0,0,1,72.49,22.15Z"/><polygon class="cls-15" points="74.34 17.02 71.39 15.65 71.68 14.84 74.62 16.21 74.34 17.02"/><path class="cls-16" d="M71.13,31.41l-.44-.2,1.59-4.61c.57-1.93-.32-2.42-.36-2.44l.19-.51s1.33.7.62,3.14Z"/><path class="cls-17" d="M6.79,23A1.2,1.2,0,0,0,5,22.59L1.18,25.7a1.7,1.7,0,0,0-.31,2.12l2.33,3.8a3.7,3.7,0,0,0,1.87,1.57,4.33,4.33,0,0,0,.61,2.47l3.68,6a.93.93,0,0,0,1.41.28L15,38.43a1.3,1.3,0,0,0,.24-1.63l-3.69-6a3.35,3.35,0,0,0-1.81-1.48,4.76,4.76,0,0,0-.66-2.56Z"/><polygon class="cls-17" points="4.32 23.26 1.94 25.22 1.11 23.88 3.5 21.91 4.32 23.26"/><polygon class="cls-18" points="3.84 22.02 1.09 24.29 0 22.51 2.75 20.24 3.84 22.02"/><polygon class="cls-19" points="11.37 31.83 6.6 35.77 6.38 35.4 11.15 31.47 11.37 31.83"/><polygon class="cls-19" points="12.59 33.81 7.81 37.74 7.59 37.38 12.36 33.44 12.59 33.81"/><polygon class="cls-19" points="13.72 35.66 8.95 39.6 8.72 39.23 13.5 35.3 13.72 35.66"/></g></g></g></svg>