<svg xmlns="http://www.w3.org/2000/svg" xmlns:xlink="http://www.w3.org/1999/xlink" viewBox="0 0 63.27 121.07"><defs><style>.cls-1{filter:url(#luminosity-noclip-2);}.cls-2{mask:url(#mask);}.cls-3,.cls-6{mix-blend-mode:multiply;}.cls-3{fill:url(#linear-gradient);}.cls-4{isolation:isolate;}.cls-5{mask:url(#mask-2);}.cls-6{opacity:0.56;fill:url(#linear-gradient-2);}.cls-7{fill:#3393d3;}.cls-8{fill:#1c7cb7;}.cls-9{fill:#444244;}.cls-10{fill:#fff;}.cls-11{fill:#3c3b38;}.cls-12{fill:#8f9498;}.cls-13{fill:#d1cfd1;}.cls-14{fill:#e8d0b4;}.cls-15{fill:#e7cfb4;}.cls-16{fill:#443e3a;}.cls-17{fill:#8b7557;}.cls-18{fill:#e8e3d1;}.cls-19{fill:#e0e0e1;}.cls-20{fill:#c9cccd;}.cls-21{fill:#ececec;}.cls-22{fill:#c7c9c5;}.cls-23{fill:#b5b5b0;}.cls-24{fill:#d4d4d0;}.cls-25{fill:#9e846c;}.cls-26{fill:#b1936e;}.cls-27{fill:#907a5f;}.cls-28{fill:#a38362;}.cls-29{fill:#ccdbd9;}.cls-30{filter:url(#luminosity-noclip);}</style><filter id="luminosity-noclip" x="1.86" y="-8427.93" width="58.35" height="32766" filterUnits="userSpaceOnUse" color-interpolation-filters="sRGB"><feFlood flood-color="#fff" result="bg"/><feBlend in="SourceGraphic" in2="bg"/></filter><mask id="mask" x="1.86" y="-8427.93" width="58.35" height="32766" maskUnits="userSpaceOnUse"><g class="cls-30"/></mask><linearGradient id="linear-gradient" x1="9.76" y1="241.95" x2="67.93" y2="241.95" gradientTransform="translate(3.99 -124.38) rotate(2.79)" gradientUnits="userSpaceOnUse"><stop offset="0" stop-color="#4d4d4d"/><stop offset="1"/></linearGradient><filter id="luminosity-noclip-2" x="1.86" y="116.88" width="58.35" height="4.19" filterUnits="userSpaceOnUse" color-interpolation-filters="sRGB"><feFlood flood-color="#fff" result="bg"/><feBlend in="SourceGraphic" in2="bg"/></filter><mask id="mask-2" x="1.86" y="116.88" width="58.35" height="4.19" maskUnits="userSpaceOnUse"><g id="_Группа_2" data-name="&lt;Группа&gt;" class="cls-1"><g class="cls-2"><path id="_Контур_" data-name="&lt;Контур&gt;" class="cls-3" d="M2.2,120.7a2.73,2.73,0,0,0,.9.19c1.08.06,2.16.1,3.24.13,2.22.06,4.43.06,6.65,0,4.44,0,8.88-.19,13.32-.19.73,0,1.46.06,2.18,0,9.28-.52,14.65-.69,21.62-1.09,8.83-.52,18.13-2.31-1.61-2.82-4.22-.1-8.66,0-12.88-.07-3.75-.07-7.49,0-11.23.08-3.26.09-6.51.24-9.76.37S7.27,117,4.22,118.69c-.27.15-.53.31-.8.44a4.86,4.86,0,0,0-1.12.55C1.65,120.21,1.81,120.52,2.2,120.7Z"/></g></g></mask><linearGradient id="linear-gradient-2" x1="9.76" y1="241.95" x2="67.93" y2="241.95" gradientTransform="translate(3.99 -124.38) rotate(2.79)" gradientUnits="userSpaceOnUse"><stop offset="0"/><stop offset="1"/></linearGradient></defs><title>Ресурс 22</title><g class="cls-4"><g id="Слой_2" data-name="Слой 2"><g id="для_кого" data-name="для кого"><g class="cls-5"><path id="_Контур_2" data-name="&lt;Контур&gt;" class="cls-6" d="M2.2,120.7a2.73,2.73,0,0,0,.9.19c1.08.06,2.16.1,3.24.13,2.22.06,4.43.06,6.65,0,4.44,0,8.88-.19,13.32-.19.73,0,1.46.06,2.18,0,9.28-.52,14.65-.69,21.62-1.09,8.83-.52,18.13-2.31-1.61-2.82-4.22-.1-8.66,0-12.88-.07-3.75-.07-7.49,0-11.23.08-3.26.09-6.51.24-9.76.37S7.27,117,4.22,118.69c-.27.15-.53.31-.8.44a4.86,4.86,0,0,0-1.12.55C1.65,120.21,1.81,120.52,2.2,120.7Z"/></g><path class="cls-7" d="M1.7,71.83l2.23,44.09a2.18,2.18,0,0,0,2.14,2.14H32.3a2.18,2.18,0,0,0,2.14-2.14l2.22-44.09Z"/><rect class="cls-8" y="66.95" width="38.37" height="4.88"/><polygon class="cls-7" points="36.66 66.95 1.7 66.95 4.42 53.93 33.95 53.93 36.66 66.95"/><rect class="cls-9" x="7.9" y="58.12" width="22.57" height="6.4" rx="2.93" ry="2.93"/><path class="cls-10" d="M24.37,95.46a.56.56,0,0,0-.07-.19c0-.06-.13-.25-.25-.5Z"/><path class="cls-10" d="M19.51,88.84l1.22.38,1.57.49,1.22.37a.75.75,0,0,0,1-.6l.28-1.32.37-1.69.28-1.32c.1-.46-.19-.62-.63-.34l-.77.48-.67-1.2a1.71,1.71,0,0,0-1.64-.73l-3.68,0,1.53,2.87a.5.5,0,0,1,.1.14c.07.16.35.7.63,1.24l-.75.46C19.09,88.37,19.08,88.71,19.51,88.84Z"/><path class="cls-10" d="M15.25,84.34c-.39.63-1.39,2.33-1.39,2.33a.81.81,0,0,0,.25,1.1l2.45,1.53A.75.75,0,0,0,17.62,89l1.52-2.64c.13-.23.29-.27.41-.13L18,83.38h-.89A2,2,0,0,0,15.25,84.34Z"/><path class="cls-10" d="M10.91,95c.28.57,1,2,1.6,3.11l1.74-3c.21-.38.59-1.06.9-1.64L16,94c.46.27.74.11.62-.36l-.31-1.3L16,90.68l-.31-1.31a.75.75,0,0,0-1-.57l-1.21.4-1.56.53-1.21.41c-.43.14-.41.48,0,.75l.66.39c-.34.68-.73,1.5-.83,1.73A2.72,2.72,0,0,0,10.91,95Z"/><path class="cls-10" d="M14.25,95.14l-1.74,3c.32.6.56,1.08.63,1.21.18.37.45,1.1,2.11,1.09l2.41,0a.79.79,0,0,0,.76-.82v-3a.8.8,0,0,0-.78-.81l-3.29,0c-.3,0-.34-.21-.23-.4C14.12,95.37,14.18,95.27,14.25,95.14Z"/><path class="cls-10" d="M24.37,95.46l1.44,3.05c.5-1,1.35-2.7,1.7-3.44a3.09,3.09,0,0,0,.39-2.29l-1.28-2.65a.69.69,0,0,0-1-.29l-2.44,1.59a.9.9,0,0,0-.28,1.14l1.16,2.2c.12.25.22.44.25.5A.56.56,0,0,1,24.37,95.46Z"/><path class="cls-10" d="M25.45,99.19c.06-.1.19-.35.36-.68l-1.44-3.05a.24.24,0,0,1-.26.3H22.62v-1c0-.55-.27-.73-.6-.4l-.91.94-1.18,1.2-.92.93a.84.84,0,0,0,0,1.19l.93.92,1.2,1.18.93.91c.34.33.6.14.6-.41v-.89H23.8A1.86,1.86,0,0,0,25.45,99.19Z"/><polygon class="cls-11" points="50.21 114.96 50.26 115.44 50.41 117.04 53.52 118.43 54.86 116.72 53.22 115.23 53.07 115.17 53.06 115.36 50.21 114.96"/><path class="cls-12" d="M50.05,114.94l.16,0-.1-1.11,3,1.31,2.47-27,.3-1.27c-2.33,0-5.1.07-7.89.09Z"/><polygon class="cls-12" points="50.21 114.96 53.06 115.36 53.07 115.17 50.11 113.85 50.21 114.96"/><path class="cls-12" d="M37.6,87l.57,7.06,5.75,18.29,2.81-.38.05.35h0L44.72,93.48,46.5,87C43.23,87.06,40,87.05,37.6,87Z"/><polygon class="cls-11" points="43.92 112.36 43.74 112.39 42.46 114.22 44.16 115.64 46.94 113.6 46.78 112.33 44.03 112.71 43.92 112.36"/><polygon class="cls-11" points="43.92 112.36 44.03 112.71 46.78 112.33 46.73 111.98 43.92 112.36"/><path class="cls-13" d="M44.68,43A9.15,9.15,0,0,1,46,40.45a4.29,4.29,0,0,1,3.65-1.62h0a2.24,2.24,0,0,1-.08-.57c0-1,.72-1.89,1.2-2.8,0-.09.09-.18.13-.27a5.21,5.21,0,0,0,.25-.76l-.21.1a3.39,3.39,0,0,1-1.65.82L43.5,38.21,41.19,48l.59.27C43.61,47.51,44,44.65,44.68,43Z"/><path class="cls-13" d="M57.09,46c.36,1.76,1.7,3.06,3,4.28-1-2.58-2-4.86-3-6.82A6.21,6.21,0,0,0,57.09,46Z"/><path class="cls-13" d="M61.05,58.93a7.27,7.27,0,0,1-3.55.79,13,13,0,0,0-2.93.1,2.74,2.74,0,0,0-2.14,1.85c-.13.54-.09,1.22-.54,1.53a1.41,1.41,0,0,1-.74.16A2.7,2.7,0,0,1,49,62.77c-.8-.93-.33-2.78-1.42-3.3a4,4,0,0,0-1-.19c-1.47-.26-2.19-2-2.05-3.57a2.8,2.8,0,0,1-1.71.87,3.32,3.32,0,0,1-2-1c-.38-.31-.77-.62-1.17-.92l0,.1-6,32c.71.1,2.14.16,4,.19l-.43-5.21,10.4,1.33L46.5,87H48l-.29-4,9.93-3.48-1.75,7.34c3.58-.05,6.12-.11,6.12-.11S64.13,70.27,62.2,58A4.53,4.53,0,0,1,61.05,58.93Z"/><path class="cls-13" d="M47.66,83.07,48,87c2.79,0,5.56,0,7.89-.09l1.75-7.34Z"/><path class="cls-13" d="M37.17,81.8,37.6,87c2.44,0,5.63,0,8.9,0l1.07-3.9Z"/><path class="cls-14" d="M28.62,41.48c-.09-.4-2.11-2.53-2.22-2.23a4.72,4.72,0,0,0-.25,1c-.82-.46-2.81-2.24-2.69-.18a4.65,4.65,0,0,0,2.32,2.71l0,0,2.78-.5A1.6,1.6,0,0,0,28.62,41.48Z"/><path class="cls-13" d="M28.64,42.29h0a6,6,0,0,1-.78,1.23c-.66-.26-1.33-.49-2-.73l-.72.13c3.68,4.94,9.54,8,14.49,11.76L41.19,48Z"/><path class="cls-13" d="M42.77,56.58a2.8,2.8,0,0,0,1.71-.87,3.91,3.91,0,0,1,.2-1c.6-1.76,2-3.06,3.08-4.57,2.08-2.94,3.49-6.87,2.21-10.35a9.66,9.66,0,0,1-.34-1h0A4.29,4.29,0,0,0,46,40.45,9.15,9.15,0,0,0,44.68,43c-.65,1.69-1.07,4.55-2.9,5.3L41.19,48l-1.59,6.7c.4.3.79.61,1.17.92A3.32,3.32,0,0,0,42.77,56.58Z"/><path class="cls-13" d="M28.61,42.3l-2.78.5c.67.24,1.34.47,2,.73A6,6,0,0,0,28.61,42.3Z"/><path class="cls-15" d="M51.16,34.31c.54-2.43,0-6.27-1.62-7.7a2.87,2.87,0,0,0-2.1-.68c-.37,0-.49.1-.69.07a4.06,4.06,0,0,0-.9,2.63c.06.75.48,1.33.52,2.14.06,1.48,2.1,3,1.32,4.44a3.25,3.25,0,0,0,1.58.15l1.65-.82Z"/><path class="cls-15" d="M49.27,35.36a3.39,3.39,0,0,0,1.65-.82Z"/><path class="cls-15" d="M46.37,30.77c0-.81-.46-1.39-.52-2.14a4.06,4.06,0,0,1,.9-2.63,1.07,1.07,0,0,1-.32-.15,2.33,2.33,0,0,1-.67-1.05,3.49,3.49,0,0,0-1.4,2.66,10.1,10.1,0,0,0,.32,4.36,5.35,5.35,0,0,0,2.78,3.31l.23.08C48.47,33.74,46.43,32.25,46.37,30.77Z"/><path class="cls-16" d="M60.65,50.77l-.54-.51c.12.32.24.64.35,1l.36,1c.07.22.15.44.22.66-.07-.22-.15-.44-.22-.66l-.36-1c-.11-.33-.23-.65-.35-1-1.32-1.22-2.66-2.52-3-4.28a6.21,6.21,0,0,1,.07-2.54,41.93,41.93,0,0,0,1-4.1,27.93,27.93,0,0,0-.51-8.11,17.46,17.46,0,0,0-3.46-6.69c-1.89-2.37-5.42-5-7.91-1.92a.44.44,0,0,0-.08.11,4.44,4.44,0,0,0-.85-.34c-1.72,1.51-2.17,3.93-2,6.16s1.27,4.76.66,7a2.52,2.52,0,0,0-.14.65.59.59,0,0,0,.31.54.81.81,0,0,0,.38,0,4.45,4.45,0,0,0,2.91-1.15,2,2,0,0,0,.26-.36l-.23-.08a5.35,5.35,0,0,1-2.78-3.31,10.1,10.1,0,0,1-.32-4.36,3.49,3.49,0,0,1,1.4-2.66,2.33,2.33,0,0,0,.67,1.05,1.07,1.07,0,0,0,.32.15c.2,0,.32-.07.69-.07a2.87,2.87,0,0,1,2.1.68c1.57,1.43,2.16,5.27,1.62,7.7a6.21,6.21,0,0,0,1.09-6.49,3.78,3.78,0,0,0-.17-.35,3.78,3.78,0,0,1,.17.35,6.21,6.21,0,0,1-1.09,6.49l0,.13a5.21,5.21,0,0,1-.25.76c0,.09-.08.18-.13.27-.48.91-1.22,1.76-1.2,2.8a2.24,2.24,0,0,0,.08.57,9.66,9.66,0,0,0,.34,1c1.28,3.48-.13,7.41-2.21,10.35-1.07,1.51-2.48,2.81-3.08,4.57a3.91,3.91,0,0,0-.2,1c-.14,1.58.58,3.31,2.05,3.57a4,4,0,0,1,1,.19c1.09.52.62,2.37,1.42,3.3a2.7,2.7,0,0,0,2.17.59,1.41,1.41,0,0,0,.74-.16c.45-.31.41-1,.54-1.53a2.74,2.74,0,0,1,2.14-1.85,13,13,0,0,1,2.93-.1,7.27,7.27,0,0,0,3.55-.79A4.53,4.53,0,0,0,62.2,58c0-.26-.08-.52-.13-.78,0,.26.09.52.13.78a3.8,3.8,0,0,0,1-2C63.55,54,62.11,52.15,60.65,50.77ZM49.51,24.9q.3.17.6.36Q49.81,25.07,49.51,24.9Z"/><path class="cls-15" d="M31.3,36.4c-.29-.41-.59-.82-.89-1.22.07-.45.14-.89.2-1.34l-.25-.18-.23.31c-.05-.39-.1-.77-.14-1.16l-.67-.65-1.18.25-.82,1c.12.4.24.81.35,1.2.37.4.7.59,1.07,1s.77,1.19,1.14,1.7Z"/><path class="cls-13" d="M31.23,34.72c1.48,1.65,3,3.28,4.35,5,.84,1.09,2,4.16,3.47,3l5-3.85a3.33,3.33,0,0,1,.93-.57c2-.7,2.93,2.14,3.37,3.69a11.22,11.22,0,0,1,.41,1.48,3,3,0,0,1,0,1.51,2.4,2.4,0,0,1-1.19,1.2A28,28,0,0,1,41.12,49a27,27,0,0,1-3.65.8c-1.33.19-1.41-.07-2-1.34-2.11-4.48-4.53-7.45-6.53-12Z"/><path class="cls-17" d="M8,21.9l27.57-4.23,4.34-6.81L12.57,15.05S8.14,22.14,8,21.9Z"/><polygon class="cls-18" points="14.12 16.71 31.15 14.1 31.76 18.39 14.46 21.04 14.12 16.71"/><path class="cls-19" d="M11.16,8.73a24.78,24.78,0,0,0,1.52,4.4l6.82,17-1.86.8L9.1,9.62Z"/><path class="cls-19" d="M11.16,8.73c.3.75-.81,1.93-2.49,2.66s-3.26.7-3.56-.05.81-1.93,2.48-2.65S10.86,8,11.16,8.73Z"/><path class="cls-20" d="M6.75,10.05l.7,1.76a6.62,6.62,0,0,0,1-.34c1.14-.49,2.11-1.12,2.15-1.92C10.2,8.63,7.76,9.59,6.75,10.05Z"/><path class="cls-21" d="M8.62,11.41A6.63,6.63,0,0,1,7,11.88C6,12,5.3,11.82,5.11,11.34L9.68,22.77l4,9.9L19,30.37,10.79,9.92l-.15-.37C10.6,10.32,9.7,10.93,8.62,11.41Z"/><path class="cls-19" d="M42.54,3.62a39.87,39.87,0,0,0-2.07,4.92L33,28.26l-1.47-.61L40.91,3Z"/><path class="cls-19" d="M42.54,3.62c-.33.86-1.67,1.12-3,.58s-2.12-1.68-1.79-2.55,1.67-1.12,3-.57S42.87,2.76,42.54,3.62Z"/><path class="cls-20" d="M39.44,1.67l-.78,2a3.41,3.41,0,0,0,.75.43c.89.37,1.79.51,2.33-.17C42.11,2.85,40.25,2,39.44,1.67Z"/><path class="cls-21" d="M39.51,4.18a3.72,3.72,0,0,1-1.15-.76,1.71,1.71,0,0,1-.6-1.77l-5,13.24L28.33,26.36l4.2,1.73,9-23.69L41.74,4C41.22,4.62,40.37,4.52,39.51,4.18Z"/><path class="cls-19" d="M36.23,2a41.44,41.44,0,0,0-.84,5.3l-2.63,21-1.56-.21L34.49,1.81Z"/><path class="cls-19" d="M36.23,2c-.12.92-1.35,1.52-2.76,1.33s-2.45-1.09-2.34-2S32.48-.15,33.89,0,36.34,1.12,36.23,2Z"/><path class="cls-20" d="M32.76,1l-.27,2.17a3.11,3.11,0,0,0,.82.23c1,.12,1.87,0,2.23-.76C35.64,1.41,33.62,1.05,32.76,1Z"/><path class="cls-21" d="M33.43,3.36a3.63,3.63,0,0,1-1.3-.44,1.7,1.7,0,0,1-1-1.56L29.37,15.47,27.84,27.71l4.48.6L35.48,3l.06-.45C35.19,3.35,34.34,3.47,33.43,3.36Z"/><path class="cls-22" d="M22.88,6.27a27,27,0,0,0-.49,5.26l-.93,20.82-2.28-.11L20.35,6.15Z"/><path class="cls-22" d="M22.88,6.27c0,.91-1.73,1.57-3.78,1.47s-3.67-.92-3.63-1.83,1.73-1.57,3.78-1.47S22.92,5.36,22.88,6.27Z"/><path class="cls-23" d="M17.75,5.4l-.1,2.16a7.63,7.63,0,0,0,1.22.17c1.4.06,2.68-.08,3.09-.89C21.94,5.68,19,5.45,17.75,5.4Z"/><path class="cls-24" d="M19,7.73a7.22,7.22,0,0,1-1.92-.35c-1-.35-1.67-.89-1.64-1.47l-.63,14L14.3,32l6.52.32,1.12-25,0-.45C21.57,7.62,20.36,7.78,19,7.73Z"/><polygon class="cls-25" points="38.42 37.82 10.85 42.05 7.98 21.9 35.55 17.67 38.42 37.82"/><polygon class="cls-26" points="7.98 21.9 7.53 30.77 34.73 26.6 35.54 17.54 7.98 21.9"/><polygon class="cls-27" points="39.87 10.68 42.56 29.6 38.4 37.64 35.53 17.49 39.87 10.68"/><polygon class="cls-28" points="35.55 17.67 39.05 23.55 43.4 16.46 39.89 10.86 35.55 17.67"/><path class="cls-29" d="M19.45,20.15s5-.89,7.2,3.23c0,0,5.62-5.59,7-5.58l-4.27-2.33L26.3,16.9Z"/></g></g></g></svg>