<svg xmlns="http://www.w3.org/2000/svg" xmlns:xlink="http://www.w3.org/1999/xlink" viewBox="0 0 57.48 131.58"><defs><style>.cls-1{filter:url(#luminosity-noclip-2);}.cls-2{mask:url(#mask);}.cls-3,.cls-6{mix-blend-mode:multiply;}.cls-3{fill:url(#linear-gradient);}.cls-4{isolation:isolate;}.cls-5{mask:url(#mask-2);}.cls-6{opacity:0.56;fill:url(#linear-gradient-2);}.cls-7{fill:#88b99c;}.cls-8{fill:#303030;}.cls-9{fill:#f5d5bd;}.cls-10{fill:#acc7ba;}.cls-11{fill:#666;}.cls-12{fill:#6ab8a3;}.cls-13{fill:#fff;}.cls-14{filter:url(#luminosity-noclip);}</style><filter id="luminosity-noclip" x="7.35" y="-8672" width="50.13" height="32766" filterUnits="userSpaceOnUse" color-interpolation-filters="sRGB"><feFlood flood-color="#fff" result="bg"/><feBlend in="SourceGraphic" in2="bg"/></filter><mask id="mask" x="7.35" y="-8672" width="50.13" height="32766" maskUnits="userSpaceOnUse"><g class="cls-14"/></mask><linearGradient id="linear-gradient" x1="4.25" y1="267.33" x2="54.23" y2="267.33" gradientTransform="translate(16.21 -138.49) rotate(2.79)" gradientUnits="userSpaceOnUse"><stop offset="0" stop-color="#4d4d4d"/><stop offset="1"/></linearGradient><filter id="luminosity-noclip-2" x="7.35" y="127.98" width="50.13" height="3.6" filterUnits="userSpaceOnUse" color-interpolation-filters="sRGB"><feFlood flood-color="#fff" result="bg"/><feBlend in="SourceGraphic" in2="bg"/></filter><mask id="mask-2" x="7.35" y="127.98" width="50.13" height="3.6" maskUnits="userSpaceOnUse"><g id="_Группа_2" data-name="&lt;Группа&gt;" class="cls-1"><g class="cls-2"><path id="_Контур_" data-name="&lt;Контур&gt;" class="cls-3" d="M7.65,131.27a2.46,2.46,0,0,0,.77.16c.93,0,1.85.09,2.78.11,1.91.05,3.81.05,5.72,0,3.81,0,7.63-.16,11.44-.16.63,0,1.25.05,1.88,0,8-.45,12.58-.59,18.56-.94,7.6-.45,15.58-2-1.38-2.42-3.62-.09-7.44,0-11.07-.06-3.21-.06-6.43,0-9.64.07-2.8.08-5.59.2-8.38.32s-6.33-.29-8.95,1.14c-.23.12-.45.26-.69.37a4.31,4.31,0,0,0-1,.48C7.17,130.84,7.31,131.11,7.65,131.27Z"/></g></g></mask><linearGradient id="linear-gradient-2" x1="4.25" y1="267.33" x2="54.23" y2="267.33" gradientTransform="translate(16.21 -138.49) rotate(2.79)" gradientUnits="userSpaceOnUse"><stop offset="0"/><stop offset="1"/></linearGradient></defs><title>Ресурс 7</title><g class="cls-4"><g id="Слой_2" data-name="Слой 2"><g id="для_кого" data-name="для кого"><g class="cls-5"><path id="_Контур_2" data-name="&lt;Контур&gt;" class="cls-6" d="M7.65,131.27a2.46,2.46,0,0,0,.77.16c.93,0,1.85.09,2.78.11,1.91.05,3.81.05,5.72,0,3.81,0,7.63-.16,11.44-.16.63,0,1.25.05,1.88,0,8-.45,12.58-.59,18.56-.94,7.6-.45,15.58-2-1.38-2.42-3.62-.09-7.44,0-11.07-.06-3.21-.06-6.43,0-9.64.07-2.8.08-5.59.2-8.38.32s-6.33-.29-8.95,1.14c-.23.12-.45.26-.69.37a4.31,4.31,0,0,0-1,.48C7.17,130.84,7.31,131.11,7.65,131.27Z"/></g><g id="_Группа_3" data-name="&lt;Группа&gt;"><path id="_Контур_3" data-name="&lt;Контур&gt;" class="cls-7" d="M24.24,68c-2.17.18-4.2-1.31-6.37-1.21-1.09,0-2.46.4-3.07-.51a2.37,2.37,0,0,1-.25-1.42q.27-8,.55-16.09a17.46,17.46,0,0,0,10.22-.31l-.06,18.18a1.45,1.45,0,0,1-.34,1.14A1.25,1.25,0,0,1,24.24,68Z"/><g id="_Группа_4" data-name="&lt;Группа&gt;"><path id="_Контур_4" data-name="&lt;Контур&gt;" class="cls-8" d="M14.63,129.64a13.48,13.48,0,0,0,2-4.21,10.33,10.33,0,0,0,.27-1.92.72.72,0,0,0-.13-.54.76.76,0,0,0-.45-.18c-1-.16-2.2-.27-3,.46a3.14,3.14,0,0,0-.63,1.06,13.23,13.23,0,0,0-.94,6.29,1.28,1.28,0,0,0,1.6.31A3.41,3.41,0,0,0,14.63,129.64Z"/><path id="_Контур_5" data-name="&lt;Контур&gt;" class="cls-8" d="M26.11,128.9a13.74,13.74,0,0,1-2-4.2,9,9,0,0,1-.27-1.93.57.57,0,0,1,.57-.72c1-.15,2.21-.26,2.95.47a3,3,0,0,1,.64,1,13.12,13.12,0,0,1,.93,6.29,1.26,1.26,0,0,1-1.59.31A3.44,3.44,0,0,1,26.11,128.9Z"/></g><path id="_Контур_6" data-name="&lt;Контур&gt;" class="cls-9" d="M30.32,62.06c1.75-1.89,3.41-3.86,5-5.87a26.63,26.63,0,0,0,2.16-3,28.64,28.64,0,0,0,1.87-4,2.66,2.66,0,0,0,.31-1.4,1,1,0,0,0-1-.87,1.41,1.41,0,0,0-.82.63c-2.65,3.4-5.74,6.53-8.11,10.09-.46-2.63-1.45-6.48-2.91-6.88a1.19,1.19,0,0,0-1.1.35,2.17,2.17,0,0,0-.64,1.71,14.29,14.29,0,0,0,.56,3.09,59.51,59.51,0,0,0,1.6,6.28,1.14,1.14,0,0,0,.4.62l.12,0a1.33,1.33,0,0,0,1.1.2A3.2,3.2,0,0,0,30.32,62.06Z"/><path id="_Контур_7" data-name="&lt;Контур&gt;" class="cls-10" d="M28.92,72.37c-.79-7.88-2.87-15.75-2-23.62A4,4,0,0,0,24.43,48q-.21,8.28-.44,16.56H19.21l-.06.18h-3l-.45-16.55a3.87,3.87,0,0,0-2.51.72c.9,7.87-1.18,15.73-2,23.61A147,147,0,0,0,11,92.13q.54,16,1.07,32l4.06,0c0,.2,0,.4,0,.6l2.17-.94c.12-1.87.23-3.74.34-5.61q.95-5.39,1.48-10.82A141.38,141.38,0,0,0,22.7,124l5.38-.06,1.06-32A145.36,145.36,0,0,0,28.92,72.37Z"/><path id="_Контур_8" data-name="&lt;Контур&gt;" class="cls-9" d="M23.91,37.8a10.68,10.68,0,0,0-.93-2C21.64,33.62,18,31,15.5,32.88a6.11,6.11,0,0,0-1.4,1.71,11.82,11.82,0,0,0-1,2,7.46,7.46,0,0,0-.33,4.31,11.7,11.7,0,0,0,1.85,3.64c1,1.47,2.22,2.93,3.94,3.35,2.28.55,4.68-1.08,5.6-3.24A9.62,9.62,0,0,0,23.91,37.8Z"/><path id="_Контур_9" data-name="&lt;Контур&gt;" class="cls-8" d="M25.22,50.69a.74.74,0,0,0-.43-.26h0c2.08-3.7,1.57-8.64,1.1-11.45a10.82,10.82,0,0,0-1.68-4.43,6.63,6.63,0,0,0-3.8-2.73,10.35,10.35,0,0,0-2.23-.22,2,2,0,0,0-1.62.49,2.27,2.27,0,0,0-2.19.46,5.61,5.61,0,0,0-1.42,2,17,17,0,0,0-1.33,3.72,14.11,14.11,0,0,0,.14,6.1,7.34,7.34,0,0,0,.77,2,9.33,9.33,0,0,0,2.16,2.23,1.27,1.27,0,0,0,.49.28.39.39,0,0,0,.47-.22.58.58,0,0,0-.11-.47c-1.77-3.14-1.76-7-1.07-10.52a8.92,8.92,0,0,1,1.75-4.2.62.62,0,0,1,.35-.23,3.46,3.46,0,0,0,.79.83L22,37.82a6.17,6.17,0,0,1,2.2,2.54,8,8,0,0,1-.1,3.76c-.16,1.11-1.15,4.55,0,6.17h-.5a6.92,6.92,0,0,0,.28,5.41c-.12-.76.54-1.38,1-2A3.69,3.69,0,0,0,25.31,51,.8.8,0,0,0,25.22,50.69Z"/><g id="_Группа_5" data-name="&lt;Группа&gt;"><g id="_Группа_6" data-name="&lt;Группа&gt;"><path id="_Контур_10" data-name="&lt;Контур&gt;" class="cls-11" d="M3.14,40.76a13.53,13.53,0,0,0-.8-1.93.25.25,0,0,0-.45.23c.31.62.67,1.21,1,1.86C2.92,41.12,3.21,41,3.14,40.76Z"/><path id="_Контур_11" data-name="&lt;Контур&gt;" class="cls-11" d="M2.28,41.47A4.16,4.16,0,0,0,.61,41.2c-.32,0-.37.51,0,.51a9.83,9.83,0,0,1,1.62.13C2.42,41.88,2.47,41.54,2.28,41.47Z"/><path id="_Контур_12" data-name="&lt;Контур&gt;" class="cls-11" d="M2.4,42.65a10.63,10.63,0,0,0-2.21.6c-.3.1-.22.58.1.5A10.86,10.86,0,0,0,2.52,43,.18.18,0,0,0,2.4,42.65Z"/></g><path id="_Контур_13" data-name="&lt;Контур&gt;" class="cls-11" d="M11.9,41.16c.51.07.78.62,1,1.1.78,1.93,1.64,3.82,2.6,5.66.49.94,2.78,3.59,1.29,4.29a30.6,30.6,0,0,1-6,2.1c-.35,0-.57-.4-.72-.72a98.63,98.63,0,0,0-4.84-9.15,1,1,0,0,1-.14-.95,1,1,0,0,1,.53-.35l5.36-2.08C11.29,41.13,11.55,41.1,11.9,41.16Z"/></g><path id="_Контур_14" data-name="&lt;Контур&gt;" class="cls-9" d="M11,47.74a1.67,1.67,0,0,0-.36,1.09L9.53,61.47c-.16,1.8-.25,3.81.92,5.18a1.41,1.41,0,0,0,1.17.6c1.6-3.91,1.93-8.21,2.24-12.42.15-2.1.28-4.33-.71-6.19a2.28,2.28,0,0,0-.89-1A1.08,1.08,0,0,0,11,47.74Z"/></g><path class="cls-12" d="M20.58.7C13.85-1,6.24.21,2,7.12S4.83,19.33,4.83,19.33c1.59,1.53,7.43,3,7.43,3l2.12,5.31L16,23.4c2.48.53,7.79,0,7.79,0,9.56-.53,10.26-8.13,10.08-12.91S28.88,2.82,20.58.7Z"/><path class="cls-13" d="M20.7,8.14a18.79,18.79,0,0,1-1.8,2.36,7.32,7.32,0,0,0-1,1.5q-.15.35-.27.66c-.06.17-.11.32-.15.46a10,10,0,0,0-.3,2.06,9.72,9.72,0,0,0,0,1.57.49.49,0,0,1-.4.62,1.32,1.32,0,0,1-.89-.07.6.6,0,0,1-.34-.53,3,3,0,0,1,0-.7,8,8,0,0,1,.08-1.44,8.72,8.72,0,0,1,1.06-3.5c.17-.31.38-.66.64-1l.27-.44.28-.47a3.88,3.88,0,0,0,.59-1.57,1.91,1.91,0,0,0,0-.89,1.07,1.07,0,0,0-1.08-.91,2.11,2.11,0,0,0-1.21.36,2,2,0,0,0-.8,1c0,.12-.09.26-.13.43s-.08.39-.11.57a1.65,1.65,0,0,0,.22,1.13.51.51,0,0,1-.05.57q-.18.2-.63.06a1.9,1.9,0,0,1-1-1.21,4.33,4.33,0,0,1,.49-3,4.32,4.32,0,0,1,1.34-1.5,4.78,4.78,0,0,1,2.41-.91,4.36,4.36,0,0,1,1.85.23,2.28,2.28,0,0,1,1.42,1.21A3.41,3.41,0,0,1,20.7,8.14ZM17.16,20.38a1,1,0,0,1-1.76.08,1.21,1.21,0,0,1-.23-.78,1.35,1.35,0,0,1,.61-1.06,1.2,1.2,0,0,1,1.15,0C17.48,19,17.56,19.54,17.16,20.38Z"/></g></g></g></svg>