<svg xmlns="http://www.w3.org/2000/svg" xmlns:xlink="http://www.w3.org/1999/xlink" viewBox="0 0 102.22 86.43"><defs><style>.cls-1{filter:url(#luminosity-noclip-3);}.cls-2{mask:url(#mask);}.cls-26,.cls-28,.cls-3,.cls-6{mix-blend-mode:multiply;}.cls-3{fill:url(#linear-gradient);}.cls-4{filter:url(#luminosity-noclip-4);}.cls-5{mask:url(#mask-2);}.cls-6{fill:url(#linear-gradient-2);}.cls-7{isolation:isolate;}.cls-8{fill:#303050;}.cls-9{fill:#e1d2c7;}.cls-10{fill:#008c87;}.cls-11,.cls-24{fill:#3a3d3d;}.cls-12{fill:#604b41;}.cls-13{fill:#008480;}.cls-14{fill:#303030;}.cls-15{fill:#eeddd0;}.cls-16{fill:#7a6356;}.cls-17{fill:#ffb02a;}.cls-18{fill:#4c4c4c;}.cls-19{fill:#b47d4f;}.cls-20{fill:#d3d3a7;}.cls-21{fill:#acc7ba;}.cls-22{fill:#57453f;}.cls-23{fill:#00979b;}.cls-24{opacity:0.37;}.cls-25{mask:url(#mask-3);}.cls-26,.cls-28{opacity:0.56;}.cls-26{fill:url(#linear-gradient-3);}.cls-27{mask:url(#mask-4);}.cls-28{fill:url(#linear-gradient-4);}.cls-29{filter:url(#luminosity-noclip-2);}.cls-30{filter:url(#luminosity-noclip);}</style><filter id="luminosity-noclip" x="54.08" y="-8642.03" width="48.14" height="32766" filterUnits="userSpaceOnUse" color-interpolation-filters="sRGB"><feFlood flood-color="#fff" result="bg"/><feBlend in="SourceGraphic" in2="bg"/></filter><mask id="mask" x="54.08" y="-8642.03" width="48.14" height="32766" maskUnits="userSpaceOnUse"><g class="cls-30"/></mask><linearGradient id="linear-gradient" x1="49.4" y1="189.22" x2="97.4" y2="189.22" gradientTransform="translate(14.04 -109.64) rotate(2.79)" gradientUnits="userSpaceOnUse"><stop offset="0" stop-color="#4d4d4d"/><stop offset="1"/></linearGradient><filter id="luminosity-noclip-2" x="3.96" y="-8642.03" width="48.14" height="32766" filterUnits="userSpaceOnUse" color-interpolation-filters="sRGB"><feFlood flood-color="#fff" result="bg"/><feBlend in="SourceGraphic" in2="bg"/></filter><mask id="mask-2" x="3.96" y="-8642.03" width="48.14" height="32766" maskUnits="userSpaceOnUse"><g class="cls-29"/></mask><linearGradient id="linear-gradient-2" x1="-0.58" y1="193.38" x2="47.41" y2="193.38" xlink:href="#linear-gradient"/><filter id="luminosity-noclip-3" x="54.08" y="81.03" width="48.14" height="3.46" filterUnits="userSpaceOnUse" color-interpolation-filters="sRGB"><feFlood flood-color="#fff" result="bg"/><feBlend in="SourceGraphic" in2="bg"/></filter><mask id="mask-3" x="54.08" y="81.03" width="48.14" height="3.46" maskUnits="userSpaceOnUse"><g id="_Группа_3" data-name="&lt;Группа&gt;" class="cls-1"><g class="cls-2"><path id="_Контур_" data-name="&lt;Контур&gt;" class="cls-3" d="M54.37,84.19a2.28,2.28,0,0,0,.74.16c.89.05,1.78.08,2.67.1,1.83,0,3.66,0,5.49,0,3.66,0,7.33-.15,11-.15.6,0,1.2,0,1.8,0,7.65-.42,12.08-.56,17.83-.9,7.29-.42,15-1.9-1.33-2.32-3.48-.08-7.14,0-10.63-.05-3.08-.07-6.17,0-9.26.06-2.68.08-5.37.19-8,.31s-6.08-.28-8.59,1.09c-.22.12-.43.26-.66.36a4.24,4.24,0,0,0-.93.46C53.91,83.78,54,84,54.37,84.19Z"/></g></g></mask><linearGradient id="linear-gradient-3" x1="49.4" y1="189.22" x2="97.4" y2="189.22" gradientTransform="translate(14.04 -109.64) rotate(2.79)" gradientUnits="userSpaceOnUse"><stop offset="0"/><stop offset="1"/></linearGradient><filter id="luminosity-noclip-4" x="3.96" y="82.76" width="48.14" height="3.46" filterUnits="userSpaceOnUse" color-interpolation-filters="sRGB"><feFlood flood-color="#fff" result="bg"/><feBlend in="SourceGraphic" in2="bg"/></filter><mask id="mask-4" x="3.96" y="82.76" width="48.14" height="3.46" maskUnits="userSpaceOnUse"><g id="_Группа_4" data-name="&lt;Группа&gt;" class="cls-4"><g class="cls-5"><path id="_Контур_2" data-name="&lt;Контур&gt;" class="cls-6" d="M4.24,85.92a2.28,2.28,0,0,0,.74.16c.89,0,1.78.08,2.67.1,1.83,0,3.66,0,5.49,0,3.67,0,7.33-.15,11-.15.6,0,1.2,0,1.8,0,7.65-.42,12.08-.56,17.83-.9,7.29-.42,15-1.9-1.33-2.32-3.47-.08-7.14,0-10.62,0-3.09-.07-6.18,0-9.27.06-2.68.08-5.36.19-8,.31s-6.07-.28-8.59,1.09c-.22.12-.43.26-.66.36a4.17,4.17,0,0,0-.92.46C3.78,85.51,3.92,85.77,4.24,85.92Z"/></g></g></mask><linearGradient id="linear-gradient-4" x1="-0.58" y1="193.38" x2="47.41" y2="193.38" xlink:href="#linear-gradient-3"/></defs><title>Ресурс 61</title><g class="cls-7"><g id="Слой_2" data-name="Слой 2"><g id="для_кого" data-name="для кого"><path class="cls-8" d="M10.82,43.14c-1.19,0-3,.1-3.57-.67s.4-1.83,1.09-2.48c.29-.27-.39-.57-.78-.34-1.27.77-2.26,2.13-1.63,3.17S9.19,44.08,11,43.88C11.75,43.79,11.57,43.12,10.82,43.14Z"/><path class="cls-9" d="M7.67,40.71a1.7,1.7,0,0,0,0,2.12,1.94,1.94,0,0,0,1.67.47,5.7,5.7,0,0,0,1.68-.63,45.08,45.08,0,0,1,1.25-4.73c-.25-.6-1.17-.57-1.67-.15a18,18,0,0,0-1.24,1.5C8.88,39.83,8.12,40.11,7.67,40.71Z"/><path class="cls-10" d="M13.66,38.82a5.48,5.48,0,0,1-3.27-1c-.54-.44,0-.41.42-.76A3.72,3.72,0,0,0,11.6,36a44.73,44.73,0,0,0,3.25-7.57c.22-.73.41-1.46.6-2.19L17,20.28c.39-1.48,1.12-2.8,1.52-4.26.32-1.17.6-2.58,1.68-3.3A5.49,5.49,0,0,1,22,12a2.49,2.49,0,0,1,2.3.22,2.74,2.74,0,0,1,1.23,1.93,4.46,4.46,0,0,1-.8,2.48Q18.68,27.47,13.66,38.82Z"/><path class="cls-11" d="M9.36,38.91A13.07,13.07,0,0,0,8,40.47a2.44,2.44,0,0,0-.63,1.45,1.64,1.64,0,0,0,1.19,1.45,2.9,2.9,0,0,0,1.89-.24,2.1,2.1,0,0,0,1.16-1c.3-.65.08-1.5.48-2.09A3.44,3.44,0,0,1,9.36,38.91ZM8.09,42a.15.15,0,0,1-.18.12.16.16,0,0,1-.11-.2,2.2,2.2,0,0,1,.4-.66c.14-.15.35.08.22.23A1.72,1.72,0,0,0,8.09,42Zm1-.24a2.08,2.08,0,0,1-.34.72.15.15,0,0,1-.26-.16,1.77,1.77,0,0,0,.31-.65C8.8,41.49,9.09,41.58,9.05,41.78Zm.69.41a2,2,0,0,0-.3.51c-.09.18-.35,0-.26-.17A2.53,2.53,0,0,1,9.52,42C9.66,41.81,9.87,42,9.74,42.19Z"/><path class="cls-9" d="M40.77,52.4a9.9,9.9,0,0,0-4.35.61,1.17,1.17,0,0,0-.62.38,1.3,1.3,0,0,0-.18.68l-.36,5.35a34.31,34.31,0,0,0-.11,4.3c.07,1.37.58,2.58.71,3.9.31,3.1.91,6.17,1.51,9.23l1.49,0s-.18-3.84-.2-4.08c0-.91-.31-1.75-.36-2.68s0-2.1,0-3.15a14.14,14.14,0,0,1,.24-3.12,14.64,14.64,0,0,1,.6-1.84l3.42-9.08A4.05,4.05,0,0,0,40.77,52.4Z"/><path class="cls-12" d="M35.12,32.33a2,2,0,0,0-.38.94c.09,6.75,0,14.32.06,21.07a31.48,31.48,0,0,0,7.76.09c3.35-8.59,6.75-17.44,6.67-26.66l-13.75,5C35.19,32.86,35.29,32.07,35.12,32.33Z"/><path class="cls-13" d="M17.07,20.23a13.75,13.75,0,0,1,4.6,3.46c1.23,1.21,2.31,2.56,3.56,3.75a38.2,38.2,0,0,0,5.9,4.35,6.39,6.39,0,0,0,2.15,1,5.26,5.26,0,0,0,1.68,0c5.19-.64,9.67-3.71,14.84-3-.57-6.5-7.66-10.19-12.76-13.62a18.74,18.74,0,0,0-2.47-1.57c-1-.45-1.91-.86-2.9-1.23a39.59,39.59,0,0,0-5.94-1.73c-2.67-.55-5.26-.36-6.89,2.06A11.06,11.06,0,0,0,17.07,20.23Z"/><path class="cls-14" d="M24.39,66.81a9.08,9.08,0,0,0-4.74-4.5A14,14,0,0,0,4.71,65C1.71,67.94-.72,72.58.2,76.89,1.88,84.71,13.46,89.2,20,84.53,25,81,27.13,72.45,24.39,66.81Zm-1.61,8-8.31,0a1.63,1.63,0,0,0-.23-.94,1.82,1.82,0,0,0-.35-.42l0,0q3.11-3.83,6.33-7.51a6.21,6.21,0,0,1,.81.73C23.1,68.78,23.42,71.9,22.78,74.77ZM2.62,74.64A11.28,11.28,0,0,1,4.27,69l6.9,5c0,.06-.05.13-.07.2a1.73,1.73,0,0,0,0,.5Zm17.43-8.93c-2.15,2.45-4.26,5-6.32,7.5a1.46,1.46,0,0,0-.92-.33c.22-3,.51-5.92.87-8.85A10.26,10.26,0,0,1,20.05,65.71ZM7.93,65.45A14,14,0,0,1,13.49,64c-.35,2.94-.64,5.9-.87,8.86a1.55,1.55,0,0,0-.59.21,1.75,1.75,0,0,0-.78.72L4.37,68.87A9.47,9.47,0,0,1,7.93,65.45ZM3,77.12a7.94,7.94,0,0,1-.35-2.29l8.43,0a1.8,1.8,0,0,0,.52,1c-1.56,2-3.09,4-4.59,6A8.19,8.19,0,0,1,3,77.12Zm13.14,6.09a14.94,14.94,0,0,1-9-1.25c1.49-2,3-4,4.56-5.95a1.76,1.76,0,0,0,.58.29l.09,0c-.13,2.34-.23,4.68-.28,7h.18c.05-2.33.15-4.66.28-7a1.77,1.77,0,0,0,1.31-.41l6.3,4.54A6.52,6.52,0,0,1,16.12,83.21Zm5.11-4.37a14.36,14.36,0,0,1-.94,1.49L14,75.81a1.68,1.68,0,0,0,.41-.71c0-.07,0-.13,0-.2l8.28,0c-.08.32-.17.64-.27,1A17.17,17.17,0,0,1,21.23,78.84Z"/><path class="cls-14" d="M75.81,68.07a9.09,9.09,0,0,0-3.91-5.23A14,14,0,0,0,56.72,63c-3.46,2.39-6.64,6.56-6.45,11,.34,8,11,14.37,18.24,10.86C74,82.12,77.56,74.09,75.81,68.07Zm-2.92,7.57L64.71,74.2a1.78,1.78,0,0,0-.07-1,1.83,1.83,0,0,0-.28-.47l0,0c2.46-2.17,5-4.28,7.5-6.34a7.07,7.07,0,0,1,.67.86C74.2,69.79,74,72.92,72.89,75.64ZM53,72.13a11.24,11.24,0,0,1,2.57-5.26l6,6.06-.1.18a1.71,1.71,0,0,0-.14.49Zm18.68-5.87c-2.53,2-5,4.16-7.5,6.33a1.43,1.43,0,0,0-.85-.48q1.08-4.33,2.35-8.58A10.27,10.27,0,0,1,71.72,66.26ZM59.81,64a13.79,13.79,0,0,1,5.72-.46q-1.26,4.26-2.34,8.59a1.47,1.47,0,0,0-.62.1,1.73,1.73,0,0,0-.89.59l-6-6A9.44,9.44,0,0,1,59.81,64ZM53,74.64a7.93,7.93,0,0,1,0-2.33l8.31,1.47a1.79,1.79,0,0,0,.34,1.09c-1.87,1.68-3.72,3.4-5.53,5.13A8.16,8.16,0,0,1,53,74.64Zm11.92,8.2a14.91,14.91,0,0,1-8.62-2.73c1.8-1.72,3.64-3.43,5.5-5.1a1.66,1.66,0,0,0,.52.38l.09,0q-.8,3.42-1.46,6.86l.18,0c.44-2.28.93-4.57,1.45-6.84a1.72,1.72,0,0,0,1.35-.19l5.45,5.53A6.47,6.47,0,0,1,64.9,82.84Zm5.77-3.44a13.19,13.19,0,0,1-1.17,1.31L64.07,75.2a1.78,1.78,0,0,0,.52-.63,1.59,1.59,0,0,0,.07-.2l8.15,1.45c-.13.3-.27.6-.42.89A17.77,17.77,0,0,1,70.67,79.4Z"/><path class="cls-8" d="M44.08,50.39a60.57,60.57,0,0,1-6.87-.08q-3.62-.11-7.23-.26c-2.4-.1-4.81-.23-7.22-.37a69.5,69.5,0,0,0-7.21-.38c-.42,0-.55.68-.1.77a52,52,0,0,0,7,.64c2.41.17,4.81.31,7.22.43s4.82.23,7.23.31,4.85,0,7.23.25C44.91,51.79,44.92,50.32,44.08,50.39Z"/><path class="cls-8" d="M47.16,39.65c-1.84,4.8-2.6,10.08-3.29,15.15-.72,5.26-1.17,10.58-2.08,15.82-.08.46.63.67.72.19,1-5.1,1.62-10.25,2.34-15.39.35-2.57.76-5.13,1.28-7.67s1.31-5.22,2.09-7.81C48.43,39.25,47.41,39,47.16,39.65Z"/><path class="cls-8" d="M63.18,73.77c-2-4.21-4.84-7.77-7.63-11.33-3.13-4-6.25-8-9.49-11.89-.33-.39-.8.18-.51.58,2.91,4,6,8,9,11.92,2.76,3.59,5.58,7.18,7.55,11.43C62.48,75.28,63.56,74.57,63.18,73.77Z"/><path class="cls-8" d="M64.62,72.87c-1.81-.3-3.67-.4-5.49-.59q-3-.3-6.06-.56c-3.92-.34-7.85-.61-11.78-.72-.53,0-.51.76,0,.81,3.81.33,7.62.61,11.42,1q2.86.26,5.71.55c2,.21,4,.55,6,.69C65.11,74.06,65.26,73,64.62,72.87Z"/><path class="cls-8" d="M42.07,70.34A31.31,31.31,0,0,0,39,68.17l-3.53-2.46C33.22,64.13,31,62.55,28.74,61c-4.48-3.18-8.93-6.42-13.44-9.57-.37-.25-.83.35-.48.62,4.29,3.33,8.67,6.52,13.06,9.7l6.7,4.84,3.21,2.31a37.1,37.1,0,0,0,3.52,2.47C41.92,71.65,42.62,70.82,42.07,70.34Z"/><path class="cls-8" d="M15.69,41.07a.49.49,0,0,0-1,0c-.36,2.83-.43,5.72-.61,8.57s-.38,5.91-.56,8.87c-.34,5.65-.79,11.33-2.38,16.78a.8.8,0,0,0,1.53.43c1.56-5.49,2-11.19,2.25-16.86.15-3,.28-5.91.42-8.87S15.75,44,15.69,41.07Z"/><path class="cls-8" d="M15.25,40.57c-1.28-.25-2.6-.37-3.89-.52a22.57,22.57,0,0,0-4.47-.43.45.45,0,0,0-.12.88,20.66,20.66,0,0,0,4.08.74c1.4.21,2.81.47,4.22.6A.65.65,0,0,0,15.25,40.57Z"/><path class="cls-8" d="M9.74,44.88c-1.19,0-3,.15-3.57-1s.4-2.7,1.09-3.66c.29-.4-.39-.84-.77-.5-1.28,1.13-2.27,3.14-1.64,4.67.71,1.71,3.27,1.85,5.07,1.56C10.67,45.85,10.49,44.86,9.74,44.88Z"/><path class="cls-8" d="M52.09,38.82c-2.17.14-4.32.31-6.49.36-1.09,0-2.17,0-3.25,0a9.25,9.25,0,0,0-3,.16.48.48,0,0,0-.11.87A7.18,7.18,0,0,0,42,40.7c1.08.09,2.17.12,3.25.14a60.32,60.32,0,0,0,6.86-.17C53.27,40.56,53.3,38.74,52.09,38.82Z"/><path class="cls-15" d="M40.48,66.16a4.5,4.5,0,0,0,2-2.55c-3.31-2.46-6.72-5.37-9-8.85a2,2,0,0,1-.42-1.24,2.09,2.09,0,0,1,.67-1.09c.46-.48,2.89-2.26,2.72-2.78s-1.86-1.06-2.32-1.3a6.55,6.55,0,0,0-2.66-.85.62.62,0,0,0-.64.21,9,9,0,0,0-2.11,3.6,5.47,5.47,0,0,0-.3,1.92c.12,2.14,2.23,3.36,3.7,4.6,1.92,1.6,3.73,3.33,5.54,5.05A12.68,12.68,0,0,1,40.48,66.16Z"/><path class="cls-16" d="M46.76,27.85a1.92,1.92,0,0,1,2.46.8,12.45,12.45,0,0,1-.56,12.84,24.28,24.28,0,0,1-5.32,5L37,51.38a21.94,21.94,0,0,0-5.22-3.69,1.61,1.61,0,0,1-.63-.48,1.46,1.46,0,0,1,.18-1.41,52.93,52.93,0,0,0,3.25-6.53,9.58,9.58,0,0,0,.06-7.14A81,81,0,0,0,46.76,27.85Z"/><path class="cls-17" d="M38.65,69.24c0,.32.29.54,1,.48a5.13,5.13,0,0,0,4.23-3.16,6.68,6.68,0,0,1,.37-.87c.3-.52.85-1,.79-1.56s-.77-.92-1.36-1.11-.9-.4-1.28.12a29.29,29.29,0,0,0-2,3,10,10,0,0,1-1.19,2A1.86,1.86,0,0,0,38.65,69.24Z"/><path class="cls-17" d="M33.19,78.06c-.16.28-.08.61.5,1A5.18,5.18,0,0,0,39,78.86a6,6,0,0,1,.8-.51c.54-.24,1.25-.29,1.54-.81s-.09-1.2-.47-1.7-.5-.84-1.11-.63a27.86,27.86,0,0,0-3.32,1.3,9.74,9.74,0,0,1-2.1.91A1.9,1.9,0,0,0,33.19,78.06Z"/><path class="cls-18" d="M43.66,72.34a1.65,1.65,0,0,0-.71-.9,2.83,2.83,0,1,0-3,4.78,3.57,3.57,0,0,0,2.25.48A2.93,2.93,0,0,0,44,75.25,2.34,2.34,0,0,0,43.66,72.34Z"/><path class="cls-18" d="M46.84,66.11a14,14,0,0,0-3.36.93c-.43.2-.19.94.27.8a15.43,15.43,0,0,1,3.29-.7C47.7,67.08,47.51,66,46.84,66.11Z"/><path class="cls-18" d="M43.46,67.13a58.19,58.19,0,0,0-2.53,5.58c-.24.59.7.92.93.33.73-1.86,1.58-3.69,2.29-5.56C44.31,67.07,43.67,66.74,43.46,67.13Z"/><path class="cls-18" d="M39.93,75.47a13.85,13.85,0,0,0-.39,2.1,11.69,11.69,0,0,1-.16,2,14.77,14.77,0,0,1-2.45-.3.74.74,0,0,0-.39,1.43A7.33,7.33,0,0,0,40,80.9a.65.65,0,0,0,.48-.63c0-.66.11-1.36.14-2a23.52,23.52,0,0,1,.29-2.51C41,75.13,40.11,74.85,39.93,75.47Z"/><path class="cls-15" d="M9,43.87A1.67,1.67,0,0,0,9,46a1.92,1.92,0,0,0,1.67.47,5.64,5.64,0,0,0,1.67-.63,42.79,42.79,0,0,1,1.26-4.73c-.26-.6-1.18-.56-1.68-.15a18,18,0,0,0-1.24,1.5C10.16,43,9.4,43.26,9,43.87Z"/><path class="cls-15" d="M7.19,8.84a3.62,3.62,0,0,0,.52,3,8.14,8.14,0,0,0,1.81,2.52,8.68,8.68,0,0,0,1.86,1.14c.83.41,1.73.73,2.53,1.18a2.83,2.83,0,0,0,2.16.56,1.74,1.74,0,0,0,.61-.23,2.23,2.23,0,0,0,.78-1.3A6.41,6.41,0,0,0,18,13.3c-.09-.83-.78-1.42-1-2.16a8.35,8.35,0,0,0-.62-2,3.6,3.6,0,0,0-.84-.9,7,7,0,0,0-5.91-1A3.25,3.25,0,0,0,7.19,8.84Z"/><path class="cls-19" d="M17.85,12.46a2.36,2.36,0,0,0,.53-.88,4.51,4.51,0,0,0,.06-2.13c-.14-.83-.33-2.68-1-3.3s-2.22-.48-3-.28a3,3,0,0,0-2.07,1.78,4.41,4.41,0,0,1,2.51,1,4.36,4.36,0,0,1,1.59,2.06,11.22,11.22,0,0,0,.36,2.2A1.43,1.43,0,0,0,17.85,12.46Z"/><path class="cls-18" d="M17.41,4a5.71,5.71,0,0,0,.19,2.25,42,42,0,0,0-6.15,2.61l-.08-.33a3.47,3.47,0,0,0,1.81-1.28,21,21,0,0,1,2.13-2A7.8,7.8,0,0,1,17.41,4Z"/><path class="cls-20" d="M19.11,3.3c.28-.23.52-.54.39-.86A.92.92,0,0,0,18.79,2c-.71-.13-1.44-.12-2.16-.18-.55-.06-1.1-.16-1.65-.22A10.44,10.44,0,0,0,5.71,5.7a4.27,4.27,0,0,0-.48.79A4,4,0,0,0,5.08,9c.19.84.48,1.19,1.4,1.08.77-.09,1.4.07,2.15,0a6.41,6.41,0,0,0,2.51-.86c1.32-.5,2.38-2.08,3.43-3a10.22,10.22,0,0,1,1.88-1.18c.84-.45,1.63-1.07,2.43-1.59Z"/><path class="cls-18" d="M4.64,10.22a1.34,1.34,0,0,1,.63-.7,4.68,4.68,0,0,0,2.92.34A2.76,2.76,0,0,0,9,9.58a3.18,3.18,0,0,0,.77-.69.28.28,0,0,1,.13-.11.24.24,0,0,1,.24.08.65.65,0,0,1,0,.81,2.45,2.45,0,0,1-.71.64L7.59,11.59a8.17,8.17,0,0,1-2.92,1.49,1,1,0,0,1-.43,0,.56.56,0,0,1-.43-.47,1.39,1.39,0,0,1,.1-.66A11,11,0,0,1,4.64,10.22Z"/><path class="cls-18" d="M15.61,13.59c-.48-.81-.92-1.62-1.47-2.39a8.4,8.4,0,0,1-1.45-2.78c-.08-.28-.47-.15-.43.12a9.11,9.11,0,0,0,2,3.56,6.82,6.82,0,0,1,1,2.32c.17.66.55,2.63-.29,3-.37.16-.05.71.31.54A1.53,1.53,0,0,0,16,16.56,5.88,5.88,0,0,0,15.61,13.59Z"/><path class="cls-18" d="M17.06,6.12c0-.36-.59-.36-.56,0,.21,2.35-.86,4.75-1.44,7a.19.19,0,0,0,.37.1C16.17,11,17.19,8.52,17.06,6.12Z"/><path class="cls-21" d="M54.92,20.36A3.84,3.84,0,0,0,55.86,18a3.76,3.76,0,0,0-1.74-2.4,120.31,120.31,0,0,0-18.44-12,2.91,2.91,0,0,0-1.61-.48c-.9.09-1.5,1-2,1.73L27.78,12A65.72,65.72,0,0,0,43,24.73a9.1,9.1,0,0,0,3.41,1.45,6.64,6.64,0,0,0,5-1.67A19.62,19.62,0,0,0,54.92,20.36Z"/><path class="cls-21" d="M26.71,11.76c.67.19.95,1.11,1.63,1.27s1.15-.4,1.55-.89c2.56-3.2,5-6.51,7.23-9.92a8.31,8.31,0,0,0-4-2.22q-3.64,5.1-6.93,10.43c-.23.37-.43.91-.08,1.17A1.72,1.72,0,0,0,26.71,11.76Z"/><path class="cls-22" d="M35.81,2.58A29.41,29.41,0,0,1,28.4,12.83c-.22.19.09.48.31.31A26,26,0,0,0,36.45,2.85.35.35,0,1,0,35.81,2.58Z"/><path class="cls-21" d="M27.45,12.05c-3.26-.34-6.64.15-9,2.59-1.95,2-3,5.93-.6,8,.89.76,2.19-.53,1.29-1.28-2-1.68-.42-4.7,1.1-6.08,1.89-1.72,4.77-2.09,7.23-2C28.23,13.27,28.2,12.13,27.45,12.05Z"/><path class="cls-21" d="M41,25a9.09,9.09,0,0,1-7.91,4.25,12.41,12.41,0,0,1-9.25-4.15c-.43-.52-1.28.16-.93.71,2.09,3.27,6.45,5,10.18,5.18s7.84-1.68,9.62-5A1,1,0,0,0,41,25Z"/><path class="cls-23" d="M14.94,42a6.12,6.12,0,0,1-3.74-1.29c4.21-8.33,7.2-17.2,10.18-26a9,9,0,0,1,3.32.29,3,3,0,0,1,2.1,2.38,4.46,4.46,0,0,1-.8,2.48Q20,30.62,14.94,42Z"/><path class="cls-18" d="M10.52,42.14a12.17,12.17,0,0,0-1.4,1.55,2.41,2.41,0,0,0-.63,1.46,1.64,1.64,0,0,0,1.19,1.44,2.89,2.89,0,0,0,1.89-.23,2.11,2.11,0,0,0,1.16-1c.3-.65.08-1.5.48-2.09A3.44,3.44,0,0,1,10.52,42.14ZM9.26,45.25a.15.15,0,0,1-.19.11.17.17,0,0,1-.1-.2,2.08,2.08,0,0,1,.4-.65c.14-.15.35.08.22.22A1.49,1.49,0,0,0,9.26,45.25Zm1-.25a2,2,0,0,1-.34.72.15.15,0,0,1-.26-.16,1.64,1.64,0,0,0,.3-.64A.16.16,0,0,1,10.22,45Zm.68.42a1.77,1.77,0,0,0-.29.5c-.09.19-.35,0-.26-.16a1.92,1.92,0,0,1,.34-.57C10.83,45,11,45.27,10.9,45.42Z"/><path class="cls-24" d="M9.24,6.32C7.78,7,7.53,8.7,7.68,10.14c0,.31.5.32.48,0C8.09,8.82,8,7.3,9.39,6.57,9.55,6.48,9.41,6.24,9.24,6.32Z"/><path class="cls-24" d="M6.85,10c-1.08-.92-.75-2.63,0-3.69.1-.14-.12-.3-.23-.18a3.31,3.31,0,0,0-.18,4.22C6.67,10.67,7.15,10.23,6.85,10Z"/><g class="cls-25"><path id="_Контур_3" data-name="&lt;Контур&gt;" class="cls-26" d="M54.37,84.19a2.28,2.28,0,0,0,.74.16c.89.05,1.78.08,2.67.1,1.83,0,3.66,0,5.49,0,3.66,0,7.33-.15,11-.15.6,0,1.2,0,1.8,0,7.65-.42,12.08-.56,17.83-.9,7.29-.42,15-1.9-1.33-2.32-3.48-.08-7.14,0-10.63-.05-3.08-.07-6.17,0-9.26.06-2.68.08-5.37.19-8,.31s-6.08-.28-8.59,1.09c-.22.12-.43.26-.66.36a4.24,4.24,0,0,0-.93.46C53.91,83.78,54,84,54.37,84.19Z"/></g><g class="cls-27"><path id="_Контур_4" data-name="&lt;Контур&gt;" class="cls-28" d="M4.24,85.92a2.28,2.28,0,0,0,.74.16c.89,0,1.78.08,2.67.1,1.83,0,3.66,0,5.49,0,3.67,0,7.33-.15,11-.15.6,0,1.2,0,1.8,0,7.65-.42,12.08-.56,17.83-.9,7.29-.42,15-1.9-1.33-2.32-3.47-.08-7.14,0-10.62,0-3.09-.07-6.18,0-9.27.06-2.68.08-5.36.19-8,.31s-6.07-.28-8.59,1.09c-.22.12-.43.26-.66.36a4.17,4.17,0,0,0-.92.46C3.78,85.51,3.92,85.77,4.24,85.92Z"/></g></g></g></g></svg>