<svg xmlns="http://www.w3.org/2000/svg" xmlns:xlink="http://www.w3.org/1999/xlink" viewBox="0 0 86.38 117.51"><defs><style>.cls-1{fill:none;}.cls-2{isolation:isolate;}.cls-3,.cls-4{opacity:0.2;mix-blend-mode:multiply;}.cls-3{fill:url(#linear-gradient);}.cls-4{fill:url(#linear-gradient-2);}.cls-5{fill:#f5e7d5;}.cls-6{fill:#c4e5f2;}.cls-7{fill:#2aa9e1;}.cls-8{fill:#4c4c4c;}.cls-9{fill:#9bd9c3;}.cls-10{fill:#977c6c;}.cls-11{fill:#96d1bd;}.cls-12{fill:#00a07a;}.cls-13{fill:#006e52;}.cls-14{fill:#fff;}.cls-15{clip-path:url(#clip-path);}.cls-16{fill:#1c81ad;}.cls-17{fill:#c9eaf7;}.cls-18{fill:#ffe9dd;}.cls-19{fill:#7a6356;}.cls-20{fill:#e9eeea;}.cls-21{fill:#417183;}.cls-22{fill:#f8c385;}.cls-23{fill:#dfeff7;}.cls-24{fill:#bfdeeb;}</style><linearGradient id="linear-gradient" x1="9.8" y1="99.82" x2="33.89" y2="99.82" gradientUnits="userSpaceOnUse"><stop offset="0" stop-color="#232020"/><stop offset="1" stop-color="#fff"/></linearGradient><linearGradient id="linear-gradient-2" x1="55.03" y1="100.67" x2="86.38" y2="100.67" xlink:href="#linear-gradient"/><clipPath id="clip-path"><path id="SVGID" class="cls-1" d="M44.34,51.87a4,4,0,0,1,3.06,1.47,4.33,4.33,0,0,1,.52,1.33l2,7.44A7,7,0,0,1,50.22,66a6,6,0,0,1-3.86,3.37,21.91,21.91,0,0,1-5.62,1l-4,.34a3.16,3.16,0,0,1-1.3-.07,2,2,0,0,1-.92-.71c-1.12-1.52-.58-3.48,0-5.2l1.62-4.91a8.74,8.74,0,0,1,1-2.3c.66-1,1.71-1.69,2.29-2.68.43-.74.52-1.9,1.42-2.36A8.12,8.12,0,0,1,44.34,51.87Z"/></clipPath></defs><title>Ресурс 14</title><g class="cls-2"><g id="Слой_2" data-name="Слой 2"><g id="для_кого" data-name="для кого"><path class="cls-3" d="M28.87,101.12a15.07,15.07,0,0,0,4.22-.73c.35-.13.74-.35.79-.73.07-.54-.55-.86-1.06-1a23.48,23.48,0,0,0-5.09-.4l-9.37,0a27.92,27.92,0,0,0-6.65.51,2.57,2.57,0,0,0-1.68,1c-1,1.78,1.68,1.45,2.45,1.48,1.82.07,3.65.12,5.47.15C21.59,101.42,25.23,101.37,28.87,101.12Z"/><path class="cls-4" d="M85.49,101.15a1.43,1.43,0,0,0,.74-.32.73.73,0,0,0-.06-1,2,2,0,0,0-1-.52,13.59,13.59,0,0,0-4.37-.27q-9.57.43-19.16.25a13.81,13.81,0,0,0-5.22.56,2.27,2.27,0,0,0-1.27,1c-1,1.91,2.92,1.29,3.89,1.29,2.13,0,4.25,0,6.38.07,4.27.09,8.56.19,12.82-.11A54.3,54.3,0,0,0,85.49,101.15Z"/><path class="cls-5" d="M58,40.26a11.11,11.11,0,0,0-1.35-.87l-.4-.12-.55.2a3,3,0,0,1-.47.13,74.85,74.85,0,0,1-7.7,9.84h0a1.59,1.59,0,0,1-.13.13,5.18,5.18,0,0,1-1.72,1c-.15.05-.32.11-.37.27s.22.43.45.51a2.6,2.6,0,0,0-1.38,1.76.81.81,0,0,0,.29.41.91.91,0,0,0,.52,0,6.15,6.15,0,0,0,4-2.67h0l9.23-8.19a1.87,1.87,0,0,0,.57-.71A1.85,1.85,0,0,0,59,40.94,7.34,7.34,0,0,1,58,40.26Z"/><path class="cls-6" d="M41.07,43l-.36-4.21A15.12,15.12,0,0,1,40.64,35,2.83,2.83,0,0,1,41,33.89c.28-.42.72-.61,1-1s.29-.74.16-1.33a1.53,1.53,0,0,0,1.32-.25c0,.51-.16,1.12.13,1.56.17.26.46.32.72.45a2.79,2.79,0,0,1,1.24,1.58,10.48,10.48,0,0,1,.44,2.16c.23,1.78.49,3.56.67,5.35A18.65,18.65,0,0,1,47,45.77c-.11,1.42-1,1.56-2,1.91a2.81,2.81,0,0,1-1.87.11,3.21,3.21,0,0,1-1.63-2A12,12,0,0,1,41.07,43Z"/><path class="cls-7" d="M42.09,31.64l0-.44a.57.57,0,0,1,0-.29.36.36,0,0,1,.29-.2,3.63,3.63,0,0,1,.86-.08c.14,0,.27,0,.34.2a1.18,1.18,0,0,1,0,.2c.07.48.16,1-.32,1.12a1.86,1.86,0,0,1-.78.05.46.46,0,0,1-.35-.19A.65.65,0,0,1,42.09,31.64Z"/><path class="cls-8" d="M77,90.51c-4.14-6.06-8.26-12.15-11.7-18.4-2.51-4.56-6.57-10.36-5.68-15.29.66-3.61,5.37-7.11,11.21-4.68,3.49,1.46,1.84,4.5,1.72,6.85a42.52,42.52,0,0,0,.4,8.58A46.82,46.82,0,0,0,78.6,83.66c1.93,3.45,2.65,5.11,4.26,8.63a8.15,8.15,0,0,1,.7,2,1.42,1.42,0,0,1,.34.64A2.24,2.24,0,0,1,83,96.82a15.15,15.15,0,0,1-4.61,3,4,4,0,0,1-1.92.42,1.29,1.29,0,0,1,.29-1.54c.39-.41.9-.66,1.3-1,1-1,1.1-2.55,1.57-3.89l.11-.26A16.06,16.06,0,0,1,77,90.51Z"/><path class="cls-5" d="M53.09,7.9a.75.75,0,0,1,.07-.39.83.83,0,0,1,.38-.27A27.57,27.57,0,0,1,59.88,5.5a2,2,0,0,1,.69,0,1.25,1.25,0,0,1,.65.37A7.24,7.24,0,0,1,63,9a10.37,10.37,0,0,1,.75,4.46c-.14,1.14-.61,2.31-.23,3.37q-3.34.79-6.61,1.83A19,19,0,0,1,53.09,7.9Z"/><path class="cls-8" d="M65.06,98.43c1.15-13.81,2.27-34.78,3.42-48.59-3.33-.38-6.91,4.62-10.26,4.7-1,0-2.43-3.11-2.64-1.81-.14.89,1.16,5.18,1.29,6.11.89,6.39,1.93,12.83,2.28,19.3.1,1.88.05,3.76.09,5.64.06,3.19.46,6.36.77,9.54.21,2.25,1.77,3.73,1.57,4.79-.06.33-2.66,1.49-3.61,1.89a2.47,2.47,0,0,0-.88.53.81.81,0,0,0-.11,1,1,1,0,0,0,.83.27,34,34,0,0,0,6.83-.61A.65.65,0,0,0,65,101a.64.64,0,0,0,.14-.3A3.56,3.56,0,0,0,65,98.43Z"/><path class="cls-9" d="M59.55,18.74l.87-.28L64.74,17a1.29,1.29,0,0,1,.67-.11,1.07,1.07,0,0,1,.45.23C68.55,19,69.29,22.08,70,24.87c2.61,9.83,5,19.61,4,29.65-6.43.95-14.53,1.95-21.05,2.23.36,0,1.11-6.89,1.19-7.57a88.68,88.68,0,0,0,.72-12c-.05-4,.2-8,.53-12,.14-1.62.29-3.24.46-4.85.07-.64,2.18-1.29,2.71-1.39A9,9,0,0,0,59.55,18.74Z"/><path class="cls-5" d="M41.75,43.08a2.54,2.54,0,0,1,2-.86c-.17-.19-.34-.49-.15-.67s.29-.08.45-.06a4.77,4.77,0,0,0,2-.06l.18,0h0a72.42,72.42,0,0,0,11.52-4.89,15.62,15.62,0,0,1,0-4l.54-5.8a3.19,3.19,0,0,1,.7-2.06c.92-.9,2.59-.19,3.13,1a6.43,6.43,0,0,1,0,3.86q-1,5.06-2,10.1A1.35,1.35,0,0,1,59,41l-11.94,2.6v0a6,6,0,0,1-4.79.34.63.63,0,0,1-.5-.79Z"/><path class="cls-10" d="M49.5,2.49C50,.7,52.36,0,53.89,0a12.35,12.35,0,0,1,3.9.59c.41.13.86.31,1.33.46.75-.06,1.47-.2,2.24-.27A1.58,1.58,0,0,1,63,1.43,15.4,15.4,0,0,1,64.86,8c.06.76-.2,2.25-1.31,1.71a16,16,0,0,1-2.69-2.12c-1.41-1.1-3.8,0-5.27.43C52.17,9,48.34,6.64,49.5,2.49Z"/><path class="cls-11" d="M63.63,32.52s3.67-10.21-1.75-10.11S56.79,30.86,57,33.16C57,33.16,63.16,33.68,63.63,32.52Z"/><path class="cls-12" d="M46,51.79a4.18,4.18,0,0,1,1.31.63,5.34,5.34,0,0,1,1.48,2.72c1.87,6.13,3.38,12.48,3.17,18.91a23.8,23.8,0,0,0,0,4.7c.3,1.8,1.15,3.49,1.28,5.31a2.49,2.49,0,0,1-.15,1.21,2.43,2.43,0,0,1-1,1c-2.43,1.51-5.43,1.6-8.25,1.39s-5.69-.68-8.47-.12a11.37,11.37,0,0,1-2.09.33A2.2,2.2,0,0,1,31.44,87c-.67-1-.07-2.35.43-3.47a17.11,17.11,0,0,0,1.48-6.8c0-.87.89-4.54.54-5.33-.22-.49-.54-.92-.73-1.41-.44-1.15-.1-1.84.21-3,.54-2,.12-1.85.66-3.87a21.63,21.63,0,0,1,1.3-3.86,20.79,20.79,0,0,1,1.61-2.63l2.21-3.27a3.62,3.62,0,0,1,2.65-1.94A10.09,10.09,0,0,1,46,51.79Z"/><path class="cls-13" d="M44.34,51.87a4,4,0,0,1,3.06,1.47,4.33,4.33,0,0,1,.52,1.33l2,7.44A7,7,0,0,1,50.22,66a6,6,0,0,1-3.86,3.37,21.91,21.91,0,0,1-5.62,1l-4,.34a3.16,3.16,0,0,1-1.3-.07,2,2,0,0,1-.92-.71c-1.12-1.52-.58-3.48,0-5.2l1.62-4.91a8.74,8.74,0,0,1,1-2.3c.66-1,1.71-1.69,2.29-2.68.43-.74.52-1.9,1.42-2.36A8.12,8.12,0,0,1,44.34,51.87Z"/><path class="cls-14" d="M41.82,80.85a.62.62,0,0,0-.19,0q-.52,0-1.05.09a.17.17,0,0,1-.1,0c-.09,0-.07-.18,0-.28l.28-.68s.05-.11.1-.11.13.09.21.11a.17.17,0,0,0,.16-.13.56.56,0,0,0,0-.22c-.13-.38-.25-.77-.37-1.16,0,0,0-.07-.06-.09a.14.14,0,0,0-.14,0,7.9,7.9,0,0,0-1.31.55c-.07,0-.16.14-.11.21s.33.1.3.35a3.94,3.94,0,0,1-.3.67,1.51,1.51,0,0,0-.11.84,1.91,1.91,0,0,0,.54.86.7.7,0,0,0,.75.32A10.9,10.9,0,0,0,41.87,82,.14.14,0,0,0,42,82a.17.17,0,0,0,0-.1,2.82,2.82,0,0,0,0-.58C42,81.1,42,80.91,41.82,80.85Z"/><path class="cls-14" d="M42.32,76.69a.46.46,0,0,1,.07.07l.34.51c.06.11.12.26,0,.34s-.22.06-.24.16.1.14.19.16l1.37.19h.09s.07-.09.08-.14c.08-.46.15-.93.19-1.39a.09.09,0,0,0,0-.07.1.1,0,0,0-.13-.06.31.31,0,0,0-.14.09.21.21,0,0,1-.13.07.23.23,0,0,1-.11-.08c-.34-.45-.67-1-1.2-1.11a2,2,0,0,0-.85,0,1,1,0,0,0-.55.19.74.74,0,0,0-.18.21,4.59,4.59,0,0,0-.48.87c-.07.15-.33.7-.25.85a.46.46,0,0,0,.16.11l.57.23a.35.35,0,0,0,.24,0,.36.36,0,0,0,.15-.15,7.84,7.84,0,0,0,.49-.9.46.46,0,0,1,.11-.16A.16.16,0,0,1,42.32,76.69Z"/><path class="cls-14" d="M46.17,79.66c0-.18-.21-.28-.35-.41s-.39-.6-.63-.87a.31.31,0,0,0-.3-.15.35.35,0,0,0-.16.08l-.41.3c-.1.08-.22.18-.2.31a.42.42,0,0,0,.06.14c.23.4.49.78.76,1.16,0,0-.64.11-.68.11s-.29.06-.36,0-.08-.2-.09-.31a.19.19,0,0,0,0-.08.12.12,0,0,0-.16,0,.71.71,0,0,0-.1.14,3.39,3.39,0,0,1-.38.53,1.75,1.75,0,0,0-.33.39.52.52,0,0,0,0,.5.77.77,0,0,0,.19.17l.65.47a.52.52,0,0,0,.19.11.19.19,0,0,0,.2-.06c.07-.09,0-.22.08-.31s.15-.11.24-.13l.84-.16a.85.85,0,0,0,.58-.28A.9.9,0,0,0,45.9,81c.08-.36.17-.71.25-1.06A.67.67,0,0,0,46.17,79.66Z"/><g class="cls-15"><path class="cls-6" d="M44,75.54l-3.51-2.23a14.78,14.78,0,0,1-3-2.18,2.86,2.86,0,0,1-.67-1,10,10,0,0,1-.14-1.44c-.1-.56-.4-.68-.94-.92a1.63,1.63,0,0,0,.6-1.24c.4.29.78.8,1.29.83a1.55,1.55,0,0,0,.78-.32,2.71,2.71,0,0,1,2-.07,9.64,9.64,0,0,1,1.94.94c1.53.88,3.07,1.73,4.57,2.65a17.46,17.46,0,0,1,2.78,1.77c1,.93.64,1.72.31,2.74a2.88,2.88,0,0,1-1,1.61,3.09,3.09,0,0,1-2.54.14A11.45,11.45,0,0,1,44,75.54Z"/><path class="cls-7" d="M35.73,67.91l-.36-.24a.85.85,0,0,1-.22-.2.44.44,0,0,1,0-.37,4.44,4.44,0,0,1,.46-.75c.09-.11.17-.2.35-.15a.64.64,0,0,1,.19.08c.41.24.86.46.68.94a2,2,0,0,1-.43.67.45.45,0,0,1-.36.17A.71.71,0,0,1,35.73,67.91Z"/><path class="cls-6" d="M45.06,70.09a1.87,1.87,0,0,0,1-.46c.28-.2.3-.27.58-.47a8,8,0,0,0,.64-.51,1,1,0,0,0,.41-.76.49.49,0,0,0-.08-.21c0-.05-.1-.13-.1-.19s.27-.26.34-.32.07-.07.06-.11a.08.08,0,0,0,0,0,4,4,0,0,0-.49-.68l-.06,0a.14.14,0,0,0-.14,0l-.3.19c-.16.1-.25.06-.4-.05a1,1,0,0,0-.48-.21,1.3,1.3,0,0,0-.87.32,7.55,7.55,0,0,0-1,.78c-.26.22-.59.42-.68.76a.51.51,0,0,0,0,.17h0a1.35,1.35,0,0,0-.89.35c-.7.51-1.93,1.49-2.58,2.06-.26.22-.61.44-.71.79a1.36,1.36,0,0,0,.13,1,1.9,1.9,0,0,0,.87,1,1.24,1.24,0,0,0,.42.11,2.39,2.39,0,0,0,1.25-.62l1.42-1.11c.45-.34.9-.68,1.32-1.06A1.25,1.25,0,0,0,45.06,70.09Z"/><path class="cls-16" d="M48.42,66.8a.27.27,0,0,0,.08-.07.29.29,0,0,0,0-.16.37.37,0,0,0-.07-.14,1.73,1.73,0,0,0-.19-.28l-.23-.3-.12-.13s0,0-.08,0a.18.18,0,0,0-.09,0l-.51.36-.08.06a.09.09,0,0,0,0,0,.27.27,0,0,0,.06.17c.06.09.14.18.17.22l.25.35c0,.06.16.27.26.27l0,0,.05,0Z"/></g><path class="cls-17" d="M29.83,48.35a2.68,2.68,0,0,0-1.29-.83c-.46-.18-.55-.15-1-.34a7.15,7.15,0,0,0-1.1-.38,1.26,1.26,0,0,0-1.21.09.83.83,0,0,0-.19.26c0,.07-.07.23-.14.27s-.52-.12-.65-.16-.13,0-.17,0l-.05.07a6.15,6.15,0,0,0-.4,1.14.4.4,0,0,0,0,.11c0,.07.08.11.15.15l.46.22c.24.11.26.25.25.52a1.51,1.51,0,0,0,.13.76,1.88,1.88,0,0,0,1.06.81,9.35,9.35,0,0,0,1.7.62,2.37,2.37,0,0,0,1.42.24,1.45,1.45,0,0,0,.22-.09h0a2,2,0,0,0,1.12.82c1.14.47,3.25,1.21,4.43,1.57a2.58,2.58,0,0,0,1.49.24,1.82,1.82,0,0,0,1-.9,2.87,2.87,0,0,0,.45-1.83,2.37,2.37,0,0,0-.21-.6,3.47,3.47,0,0,0-1.71-1l-2.41-.88c-.75-.29-1.51-.57-2.28-.79A1.64,1.64,0,0,0,29.83,48.35Z"/><path class="cls-16" d="M23.33,46.79a.32.32,0,0,0-.14,0,.33.33,0,0,0-.2.09,2,2,0,0,0-.12.19l-.17.45c-.05.18-.11.35-.17.52a1.19,1.19,0,0,0-.05.26.25.25,0,0,0,0,.12.32.32,0,0,0,.12.08l.82.34a.26.26,0,0,0,.13.06.11.11,0,0,0,.08,0c.07,0,.12-.11.16-.21a3,3,0,0,0,.12-.38l.21-.59c0-.11.2-.41.11-.53a.09.09,0,0,0-.06,0l-.08,0C23.86,47,23.6,46.88,23.33,46.79Z"/><path class="cls-18" d="M28.36,47.75a1.2,1.2,0,0,0-1.1-.26.47.47,0,0,0-.2.06.58.58,0,0,0-.16.19,2,2,0,0,0-.24.57,3.79,3.79,0,0,1-.14.48.66.66,0,0,1-.31.38.71.71,0,0,0-.15.08.44.44,0,0,0-.11.25c-.07.44-.14.89-.22,1.33a2.29,2.29,0,0,0-.08.48,4.89,4.89,0,0,0-.15.78A10.52,10.52,0,0,1,25,53.83,12.42,12.42,0,0,1,23.3,57c-.45.61-.95,1.18-1.42,1.79-.1.12.2.62.19.77s.23.46.45.58a1.9,1.9,0,0,0,2.15,0,2.28,2.28,0,0,0,.42-.56,23.67,23.67,0,0,0,1.56-3.48A15.05,15.05,0,0,0,27.78,52v-.19l0-.07a3.12,3.12,0,0,0,.05-.44,7.28,7.28,0,0,1,.52-1.46A4.16,4.16,0,0,0,28.6,49,1.43,1.43,0,0,0,28.36,47.75Z"/><path class="cls-18" d="M14.11,85.18A7.83,7.83,0,0,1,14,91.1c-.18.41-.39.87-.14,1.25a1.73,1.73,0,0,0,1.28.52,1.14,1.14,0,0,0,.52,0,.84.84,0,0,0,.4-.45c.3-.59.58-1.18.85-1.79a6.79,6.79,0,0,0,.53-1.49,7.43,7.43,0,0,0,.08-1.7l-.09-3.72a1.09,1.09,0,0,0-.09-.47.83.83,0,0,0-.29-.3,3.1,3.1,0,0,0-2-.49c-.59,0-1.9.08-1.83.69A10.3,10.3,0,0,0,14.11,85.18Z"/><path class="cls-19" d="M13.78,92a.71.71,0,0,0-.45,0,.71.71,0,0,0-.33.52,41.08,41.08,0,0,0-1,4.26,5.11,5.11,0,0,0-.1,1.46.26.26,0,0,0,.07.19.3.3,0,0,0,.18.06q2.38.15,4.77.18a2.47,2.47,0,0,0,1.27-.2.94.94,0,0,0,.47-1.12,1.12,1.12,0,0,0-1.08-.51,2.72,2.72,0,0,1-1.24-.12.52.52,0,0,1-.19-.14.72.72,0,0,1-.11-.32,9.45,9.45,0,0,1,.21-3c.09-.56-.36-.51-.84-.66Z"/><path class="cls-18" d="M21.2,88.28a15.54,15.54,0,0,1-.62,3.44c-.33,1.26-.65,2.53-1,3.8-.16.61-.73,1.16-.6,1.78a.39.39,0,0,1,0,.26.26.26,0,0,1-.18.12A2,2,0,0,1,17,97.63a.93.93,0,0,1-.41-.35,1.1,1.1,0,0,1,0-.57,12.3,12.3,0,0,1,.64-2.56,8.67,8.67,0,0,0,.86-3,6.31,6.31,0,0,0-.24-1.41,59.51,59.51,0,0,0-2-6.4,1.68,1.68,0,0,1-.17-1c.13-.54.72-.8,1.24-1,1.25-.38,3.87-.83,3.89,1.13S21.26,86.35,21.2,88.28Z"/><path class="cls-18" d="M19.37,48.7a8.44,8.44,0,0,1,1.7,3.49,9.84,9.84,0,0,1,.38,3.66,4.91,4.91,0,0,1-1.51,3.2A5.55,5.55,0,0,1,17,60.17,3.47,3.47,0,0,1,14.77,60a3.26,3.26,0,0,1-.93-.85A9.19,9.19,0,0,1,13,49.52,3.72,3.72,0,0,1,19.37,48.7Z"/><path class="cls-20" d="M22,57.34a13.74,13.74,0,0,1-1.59,2.22,5.58,5.58,0,0,1-3,1.29c-1.21.21-2.54.29-3.42,1.16a3.87,3.87,0,0,0-1,2.55c-.06.93.07,1.86.07,2.79A51.82,51.82,0,0,1,12.26,73a31,31,0,0,0,.43,7.92l.55,3.91a17,17,0,0,0,7.68-.32,2,2,0,0,0,.9-.43c.7-.68.27-1.86,0-2.8-.91-2.78-.22-5.79-.1-8.72.08-1.87-.08-3.74-.15-5.6a2.57,2.57,0,0,1,.67-2.1q1.27-1.77,2.58-3.51c.62-.84,1.74-1.9,1.86-3s-1-2-1.88-2.28A2.57,2.57,0,0,0,22,57.34Z"/><path class="cls-21" d="M14.82,62a4.21,4.21,0,0,0-.77,2.76l-.14,3.63a4.06,4.06,0,0,0,.35,2.27,2.66,2.66,0,0,0,1.21,1A4.1,4.1,0,0,0,20.55,70a6.59,6.59,0,0,0,.68-3.37.9.9,0,0,1,.15-.63c.23-.25.67-.1.84.19a1.62,1.62,0,0,1,.13,1c-.4,5.36-.93,10.81.19,16a1.11,1.11,0,0,1,0,.88,1,1,0,0,1-.38.3,11.87,11.87,0,0,1-8.42,1.13,1.28,1.28,0,0,1-.59-.27,1.41,1.41,0,0,1-.32-.76L11.71,79a16,16,0,0,1-.36-2.47c-.13-3.57,2.13-7,1.59-10.51-.17-1.09-.6-2.25-.17-3.26a3.38,3.38,0,0,1,2-1.64,6.81,6.81,0,0,1,2.46-.58C16.72,61.29,15.46,61.34,14.82,62Z"/><path class="cls-19" d="M20.2,93.67a.47.47,0,0,1,.3.1.52.52,0,0,1,.08.44l-.27,2.06c-.12,1-.16,2.1.6,2.66a2.67,2.67,0,0,0,1.33.38,2.57,2.57,0,0,1,1.34.37,1,1,0,0,1,.29,1.25,1.33,1.33,0,0,1-1,.36,22,22,0,0,1-6.45-.75.46.46,0,0,1-.2-.09.48.48,0,0,1-.1-.37,55.89,55.89,0,0,1,.44-5.64c.1-.72.26-1,1-1A26.24,26.24,0,0,1,20.2,93.67Z"/><path class="cls-22" d="M21.27,49.35a6.36,6.36,0,0,1,.79,3,1.12,1.12,0,0,0-1.18-.11,3,3,0,0,1-.45.27,3.77,3.77,0,0,1-.95.07,2.67,2.67,0,0,0-.78.27,5,5,0,0,1-2,.34,1.2,1.2,0,0,0-.5,0,1,1,0,0,0-.5.56,4.18,4.18,0,0,0,.49,4,6.05,6.05,0,0,0,3.42,2.25,6.12,6.12,0,0,1-3.21.82q-1.34.09-2.67.12a3.6,3.6,0,0,1-2-.35c-1-.58-1.25-1.84-1.43-3A20.72,20.72,0,0,1,10,53a8,8,0,0,1,1.54-4.38,4.28,4.28,0,0,1,1-.94,5.47,5.47,0,0,1,2.17-.86C17,46.33,20,47.12,21.27,49.35Z"/><path class="cls-23" d="M38,101.78l3.89-1.41a14.13,14.13,0,0,1,3.52-1,2.64,2.64,0,0,1,1.16.08,8.67,8.67,0,0,1,1.18.79c.48.27.77.11,1.29-.17a1.64,1.64,0,0,0,.56,1.25c-.47.14-1.09.12-1.44.52a1.57,1.57,0,0,0-.24.82,2.81,2.81,0,0,1-1.2,1.63,10,10,0,0,1-1.93,1c-1.62.67-3.23,1.37-4.88,2a16.44,16.44,0,0,1-3.08,1.11c-1.36.24-1.71-.56-2.28-1.47a3,3,0,0,1-.57-1.83,3.24,3.24,0,0,1,1.48-2.12A11,11,0,0,1,38,101.78Z"/><path class="cls-7" d="M48.92,100l.41-.13a.69.69,0,0,1,.28,0c.14,0,.21.14.27.24a4.36,4.36,0,0,1,.28.84c0,.14.05.27-.1.38a1,1,0,0,1-.18.1c-.44.18-.89.39-1.14,0a2,2,0,0,1-.24-.76.53.53,0,0,1,.09-.4A.8.8,0,0,1,48.92,100Z"/><path class="cls-6" d="M53.13,108.57,49,108a14.35,14.35,0,0,1-3.57-.74,2.71,2.71,0,0,1-1-.61,10.15,10.15,0,0,1-.69-1.25c-.32-.47-.64-.46-1.23-.45a1.68,1.68,0,0,0,.05-1.38c.48.1,1,.41,1.51.21.29-.11.41-.39.58-.62a2.75,2.75,0,0,1,1.78-.89,9.1,9.1,0,0,1,2.15,0c1.75.16,3.49.28,5.23.49a17.43,17.43,0,0,1,3.24.44c1.32.42,1.28,1.3,1.38,2.37a2.89,2.89,0,0,1-.3,1.9,3.1,3.1,0,0,1-2.25,1.2A11.31,11.31,0,0,1,53.13,108.57Z"/><path class="cls-7" d="M42.56,105.08l-.42-.07a.48.48,0,0,1-.27-.09.39.39,0,0,1-.13-.34,3.73,3.73,0,0,1,.12-.88c0-.13.07-.25.25-.29h.2c.48,0,1,.06,1,.57a1.93,1.93,0,0,1-.12.79.48.48,0,0,1-.26.31A.77.77,0,0,1,42.56,105.08Z"/><path class="cls-24" d="M5,104.31l4.12-.11a14.29,14.29,0,0,1,3.64.16,2.65,2.65,0,0,1,1.09.45c.39.31.55.77.88,1.12s.7.35,1.28.25a1.64,1.64,0,0,0,.16,1.36c-.49,0-1.08-.23-1.53,0-.26.16-.34.45-.48.7a2.73,2.73,0,0,1-1.62,1.18,9.44,9.44,0,0,1-2.13.31c-1.74.12-3.49.28-5.24.35a17,17,0,0,1-3.26.09C.52,110,.43,109.13.16,108.08a2.94,2.94,0,0,1,0-1.92,3.12,3.12,0,0,1,2-1.54A10.7,10.7,0,0,1,5,104.31Z"/><path class="cls-7" d="M16,106.06h.43a.66.66,0,0,1,.28,0,.42.42,0,0,1,.18.32,3.79,3.79,0,0,1,0,.89c0,.14,0,.27-.21.33a1.25,1.25,0,0,1-.19,0c-.48,0-1,.1-1.08-.4a2.15,2.15,0,0,1,0-.8.5.5,0,0,1,.21-.35A.76.76,0,0,1,16,106.06Z"/><path class="cls-6" d="M29.12,111.14a1.85,1.85,0,0,0,1,.25c.34,0,.39,0,.74,0a4.28,4.28,0,0,0,.8,0,.86.86,0,0,0,.78-.34.52.52,0,0,0,.07-.21c0-.06,0-.17,0-.21s.37,0,.46,0,.1,0,.12,0a.11.11,0,0,0,0,0,3.45,3.45,0,0,0,0-.85.17.17,0,0,0,0-.07.15.15,0,0,0-.14-.06l-.35,0c-.19,0-.23-.11-.28-.29a1.19,1.19,0,0,0-.25-.47,1.32,1.32,0,0,0-.88-.29,6.63,6.63,0,0,0-1.26,0,1.67,1.67,0,0,0-1,.17l-.12.11h0a1.35,1.35,0,0,0-.92-.28c-.85,0-2.41,0-3.26,0a1.83,1.83,0,0,0-1,.19,1.28,1.28,0,0,0-.47.82,2,2,0,0,0,.11,1.31,1.36,1.36,0,0,0,.27.35,2.32,2.32,0,0,0,1.36.3l1.78,0c.56,0,1.12,0,1.68,0A1.15,1.15,0,0,0,29.12,111.14Z"/><path class="cls-16" d="M33.75,110.66h.1a.18.18,0,0,0,.1-.11.28.28,0,0,0,0-.15c0-.11,0-.23,0-.34a2.41,2.41,0,0,0,0-.38.55.55,0,0,0,0-.18s0-.06,0-.07a.16.16,0,0,0-.09,0l-.62,0h-.15a.23.23,0,0,0-.06.18,2.55,2.55,0,0,0,0,.28v.43c0,.09,0,.32,0,.38h0l.06,0C33.36,110.67,33.55,110.66,33.75,110.66Z"/><path class="cls-6" d="M60.55,115.81a2.47,2.47,0,0,0,1.4,0c.44-.09.5-.16.94-.25a7.46,7.46,0,0,0,1-.24,1.17,1.17,0,0,0,.89-.68.7.7,0,0,0,0-.29,1.41,1.41,0,0,1,0-.28c.06-.12.47-.16.59-.2s.12,0,.13-.09a.09.09,0,0,0,0-.07,5.14,5.14,0,0,0-.22-1.09.14.14,0,0,0,0-.08c0-.06-.12,0-.19,0l-.46,0c-.24,0-.32-.07-.44-.28a1.36,1.36,0,0,0-.46-.52,1.68,1.68,0,0,0-1.21-.11,8.92,8.92,0,0,0-1.61.36,2.22,2.22,0,0,0-1.22.53.57.57,0,0,0-.12.18h0a1.81,1.81,0,0,0-1.26-.08c-1.11.21-3.1.68-4.18,1a2.35,2.35,0,0,0-1.28.55,1.71,1.71,0,0,0-.36,1.2A2.57,2.57,0,0,0,53,117a1.59,1.59,0,0,0,.45.37,3.15,3.15,0,0,0,1.82,0l2.29-.51c.72-.15,1.44-.3,2.14-.52A1.48,1.48,0,0,0,60.55,115.81Z"/><path class="cls-16" d="M66.34,113.8l.12,0a.25.25,0,0,0,.11-.17.74.74,0,0,0,0-.21,3.39,3.39,0,0,0-.08-.44c0-.16-.07-.32-.11-.49a1,1,0,0,0-.08-.22.27.27,0,0,0-.07-.08.19.19,0,0,0-.13,0l-.8.14a.21.21,0,0,0-.13,0l-.07,0a.44.44,0,0,0,0,.24,2.66,2.66,0,0,0,.09.36l.11.55c0,.11,0,.42.16.47h.16C65.85,113.92,66.09,113.86,66.34,113.8Z"/></g></g></g></svg>