<svg xmlns="http://www.w3.org/2000/svg" viewBox="0 0 53.7 134.93"><defs><style>.cls-1{opacity:0.08;}.cls-2{fill:#e8dbce;}.cls-3{fill:#333;}.cls-4{fill:#649397;}.cls-5{fill:#534741;}.cls-6{fill:#53724b;}.cls-7{fill:#bbbf96;}.cls-8{fill:gray;}.cls-9{fill:#666;}.cls-10{fill:#f0f0f0;}.cls-11{fill:#f9ac17;}.cls-12{fill:#cacaca;}.cls-13{fill:#453b36;}.cls-14{fill:#b0e0b9;}.cls-15{fill:#fff;opacity:0.4;}.cls-16{fill:#2db473;}.cls-17{fill:#f9f7f6;}.cls-18{fill:#a3d6e3;}.cls-19{fill:#4d4d4d;}.cls-20{fill:#009244;}.cls-21{fill:#55a66a;}</style></defs><title>Ресурс 24</title><g id="Слой_2" data-name="Слой 2"><g id="для_кого" data-name="для кого"><path class="cls-1" d="M4.28,132.08c-.9,1.21,3.29,2.12,6.88,2.42,10.53.88,21.59.22,32.26-.44,3.82-.24,8.74-1,8-2.27-.43-.71-2.48-1.14-4.39-1.46-12.79-2.11-29.44-2.5-40.28.62A5.38,5.38,0,0,0,4.28,132.08Z"/><path class="cls-2" d="M38.31,35.91a3.06,3.06,0,0,0-1.23,1,11.26,11.26,0,0,0-2.62,6.62,4.53,4.53,0,0,0,.18,1.72,4.78,4.78,0,0,0,1,1.56A14.5,14.5,0,0,0,39,49.58a1.29,1.29,0,0,0,1.57,0c.77-.37,1.51-.77,2.24-1.21a5.08,5.08,0,0,0,1.72-1.5,5.35,5.35,0,0,0,.62-2.66q0-1,.06-2a7.27,7.27,0,0,0-.1-1.47,4.9,4.9,0,0,0-1.54-2.61A11.28,11.28,0,0,0,41,36.42,3.4,3.4,0,0,0,38.31,35.91Z"/><path class="cls-2" d="M33.26,73.87a9.76,9.76,0,0,1,.09,5.86,1.35,1.35,0,0,0-.1.56,1.13,1.13,0,0,0,.68.78,10.85,10.85,0,0,0,5.14.93,70,70,0,0,0,8.44-.49c.32-.4.1-1,0-1.49a12,12,0,0,1,0-4.67.72.72,0,0,0-.39-.85,12.46,12.46,0,0,0-6.58-1.91,17.45,17.45,0,0,0-2.8.25A32.67,32.67,0,0,0,33.26,73.87Z"/><path class="cls-3" d="M38.62,128.82a12.38,12.38,0,0,0-3.1.13A11.77,11.77,0,0,1,33,130.39a2.09,2.09,0,0,0-.74.42.63.63,0,0,0-.09.78.87.87,0,0,0,.69.21,30.3,30.3,0,0,0,5.71-.48.58.58,0,0,0,.31-.13A.46.46,0,0,0,39,131,2.7,2.7,0,0,0,38.62,128.82Z"/><path class="cls-3" d="M49.49,128.47a12.47,12.47,0,0,0-3,.72,11.23,11.23,0,0,1-2.19,1.87,1.8,1.8,0,0,0-.62.54.6.6,0,0,0,.05.76.87.87,0,0,0,.71.08,30.37,30.37,0,0,0,5.38-1.55.64.64,0,0,0,.28-.18.48.48,0,0,0,.06-.26A2.64,2.64,0,0,0,49.49,128.47Z"/><path class="cls-4" d="M48.5,106.27c-.31-6.89.34-13.9.29-20.83a16.51,16.51,0,0,0-1-7.1A1.16,1.16,0,0,0,47.6,78c-.32-.33-.87-.16-1.3,0a14,14,0,0,1-12.73-1.1,9.16,9.16,0,0,0-1.14,3.85c-.29,2.17-.62,4.33-.7,6.5h0c0,.47,0,.94,0,1.4a62.31,62.31,0,0,0,1,8.05,38.72,38.72,0,0,1,.52,5.26,19.46,19.46,0,0,0,.14,4.18c.79,3.48.8,7.27,1.13,10.83.36,3.81.72,7.62,1,11.43,0,.16,0,.31,0,.46.19,0,3.13.73,3.13,0q.34-11.11.7-22.22a41.14,41.14,0,0,1,1-9.24l1,.09,5.37,29.4c.16.86-.23,1.89.33,2.44s2.22.31,2.39-.55C48.9,121.24,48.84,113.76,48.5,106.27Z"/><path class="cls-5" d="M36.2,40.64a1.43,1.43,0,0,0-.53.81,4.41,4.41,0,0,0-.06,1.45,12.31,12.31,0,0,0,.75,3.86c.22.53.8,1.47.6,2.07s-1.07-.26-1.42-.63a8.44,8.44,0,0,1-2-3.76,10,10,0,0,1-.13-4.82,7.65,7.65,0,0,1,2.45-4.11A7.39,7.39,0,0,1,42,34a8.54,8.54,0,0,1,5.3,3.55,5.82,5.82,0,0,1,.95,2,6.07,6.07,0,0,1,.06,2,9.89,9.89,0,0,1-4.08,6.85,16,16,0,0,0-.08-6,1.88,1.88,0,0,0-.27-.74,1.82,1.82,0,0,0-.6-.47c-.73-.4-1.51-.7-2.22-1.13a3.43,3.43,0,0,1-1.6-1.84A11.2,11.2,0,0,1,37.32,40C36.92,40.25,36.51,40.39,36.2,40.64Z"/><path class="cls-6" d="M48.79,72.58c.15,1.41.09,3.19-1.2,3.79-.23-1-1.38-1.34-2.36-1.5a25.87,25.87,0,0,0-9.88.32c-.77.17-1.68.56-1.73,1.34-1.26-.94-1.59-2.67-1.7-4.24-.49-7.13,1.77-14.12,4-20.91.18-.56.58-1.25,1.15-1.11-.06.18.08.37.21.5,1,.91,2.52.81,3.8.43A11.36,11.36,0,0,1,45,50.3a9.88,9.88,0,0,0-.16,4.15A17.33,17.33,0,0,0,46,57.25a20.86,20.86,0,0,1,1.31,5Q48.22,67.39,48.79,72.58Z"/><path class="cls-7" d="M47,51.81c-.83-.91-1.92-1.9-3.12-1.62a8.38,8.38,0,0,1-.37,1.39,8.78,8.78,0,0,0,.57,4.62c3.87,13,2.73,27,1.55,40.55A27.17,27.17,0,0,0,50,96.49a39.33,39.33,0,0,1,1.11-7.44c1.45-7.57,1.46-15.33,1.38-23a22,22,0,0,0-1-7.84A21.18,21.18,0,0,0,47,51.81Z"/><path class="cls-7" d="M34.43,52.1a3.51,3.51,0,0,1,1.29-1.84c.66-.39,1.72-.14,1.85.61-2.12,2.45-2.72,5.84-3.12,9.05-1.06,8.49-1.3,17.06-1.54,25.61-.11,4-.21,8.08,1,11.89a10.34,10.34,0,0,0-3.14.21,105.15,105.15,0,0,0-.51-11.37c-.3-2.47-.77-4.92-1-7.4C28.43,69.73,31,60.6,34.43,52.1Z"/><path class="cls-8" d="M47.89,63a1.35,1.35,0,0,0-.34-.5,1.26,1.26,0,0,0-.74-.18L33.22,61.9a.89.89,0,0,0-.85.57,49.66,49.66,0,0,0-2.15,5,.37.37,0,0,0,.34.49c6.11.08,12.54.74,18.65.23a.65.65,0,0,0,.49-.91C49.09,65.88,48.5,64.27,47.89,63Z"/><path class="cls-9" d="M47.77,62.63a1.43,1.43,0,0,0-.34-.5,1.19,1.19,0,0,0-.72-.18L33.38,61.5a.9.9,0,0,0-.84.57,49.38,49.38,0,0,0-2.11,5,.38.38,0,0,0,.33.49c6,.08,12.31.75,18.3.23a.63.63,0,0,0,.48-.9C49,65.49,48.36,63.87,47.77,62.63Z"/><path class="cls-10" d="M47.06,63a.88.88,0,0,0-.3-.36,1.27,1.27,0,0,0-.65-.14l-12-.32a.82.82,0,0,0-.75.41,31.44,31.44,0,0,0-1.9,3.57c-.07.17.08.35.3.35,5.41.06,11.1.54,16.5.17a.45.45,0,0,0,.43-.65C48.13,65,47.6,63.89,47.06,63Z"/><path class="cls-2" d="M45.29,70.32c-.6-1.23-1.23-4-3.12-3.35s-.2,3.12.37,4.27,1.25,2.35,1.92,3.5a.75.75,0,0,0,.33.37c.34.15.68-.23.87-.56a6,6,0,0,0,1.06-2.38,12.3,12.3,0,0,0-.28-3.58,9.5,9.5,0,0,0-1,2C45.38,70.5,45.33,70.41,45.29,70.32Z"/><path class="cls-2" d="M34.78,70.47c.6-1.22,1.23-4,3.12-3.35s.2,3.13-.37,4.27-1.25,2.35-1.92,3.5a.78.78,0,0,1-.32.37c-.35.15-.69-.23-.88-.56a6,6,0,0,1-1.06-2.38,12,12,0,0,1,.29-3.58,10,10,0,0,1,1,2Z"/><path class="cls-11" d="M41.79,63.36a.14.14,0,0,0,0,.11,13.68,13.68,0,0,0,.68,2.77h3.22a5.65,5.65,0,0,0,1-.06l-1.08-2.79c-1.23,0-2.45,0-3.68-.07C41.88,63.32,41.82,63.32,41.79,63.36Z"/><path class="cls-12" d="M40.44,63.26c-2,.11-3.93.07-5.91,0a.12.12,0,0,0,0,.24,48.57,48.57,0,0,0,5.91,0C40.61,63.52,40.61,63.25,40.44,63.26Z"/><path class="cls-12" d="M40.64,64c-1.93,0-3.86.06-5.79.16a.12.12,0,0,0,0,.23c1.93-.09,3.86-.12,5.79-.11A.14.14,0,0,0,40.64,64Z"/><path class="cls-12" d="M40.64,65c-2-.09-4.07-.11-6.11-.1a.12.12,0,0,0,0,.23c2,0,4.08.1,6.11.15A.14.14,0,0,0,40.64,65Z"/><path class="cls-12" d="M40.1,65.69c-1.81,0-3.62,0-5.43,0a.12.12,0,0,0,0,.24c1.81,0,3.62.05,5.43,0A.15.15,0,0,0,40.1,65.69Z"/><path class="cls-12" d="M44.23,65.16a.11.11,0,0,0-.2.11c-.12.07,0,.26.12.19A.22.22,0,0,0,44.23,65.16Z"/><path class="cls-12" d="M45,63.82c0-.09-.07-.19-.16-.18l-1.9.28a.17.17,0,0,0-.13.1.12.12,0,0,0-.08.15,1.67,1.67,0,0,0,.81,1.09h0l.21.09c-.24.25-.1.83.31.77.19,0,.43-.12.45-.39a.61.61,0,0,0-.09-.4A2.09,2.09,0,0,0,45,63.82Z"/><path class="cls-5" d="M33.05,94.54a6.57,6.57,0,0,1-2.25.19c-.15,0-.18.22,0,.25a5.51,5.51,0,0,0,2.39-.06C33.4,94.86,33.29,94.48,33.05,94.54Z"/><path class="cls-5" d="M31.33,95.61a.12.12,0,0,0-.23,0c0,.34.07.68.12,1,0,.16.29.12.27,0A8.66,8.66,0,0,0,31.33,95.61Z"/><path class="cls-5" d="M33,96.33c-.06-.27-.13-.53-.18-.8s-.25-.1-.24,0a4.66,4.66,0,0,0,.15.83A.14.14,0,0,0,33,96.33Z"/><path class="cls-5" d="M50,93.4a15.4,15.4,0,0,1-2,.08,10.37,10.37,0,0,0-1.84-.14.12.12,0,0,0,0,.24c.62,0,1.23.2,1.84.26A8.12,8.12,0,0,0,50,93.76C50.22,93.73,50.18,93.37,50,93.4Z"/><path class="cls-5" d="M46.71,94.77c0,.33,0,.65-.05,1,0,.15.23.15.23,0,0-.33,0-.65,0-1C47,94.62,46.72,94.62,46.71,94.77Z"/><path class="cls-5" d="M48.81,94.46c0-.15-.21-.15-.23,0a4.35,4.35,0,0,0,0,1.44c0,.18.29.1.26-.07A5.7,5.7,0,0,1,48.81,94.46Z"/><path class="cls-5" d="M49.77,92.28a12.7,12.7,0,0,1-3.26.13c-.16,0-.16.23,0,.25a11.07,11.07,0,0,0,3.35-.06C50.07,92.56,50,92.23,49.77,92.28Z"/><path class="cls-5" d="M32.83,93.78a2.57,2.57,0,0,1-1.62,0c-.15-.05-.2.18-.06.23a2.48,2.48,0,0,0,1.76.07A.15.15,0,0,0,32.83,93.78Z"/><path class="cls-5" d="M47.05,91.45a1.32,1.32,0,0,0-.3.09.12.12,0,1,0,.06.24l.31-.07A.13.13,0,0,0,47.05,91.45Z"/><path class="cls-5" d="M48.75,91.41l-.34,0a.12.12,0,1,0,0,.24h.34A.14.14,0,0,0,48.75,91.41Z"/><path class="cls-5" d="M49.77,91.42h-.11a.13.13,0,0,0,0,.25h.11A.13.13,0,0,0,49.77,91.42Z"/><path class="cls-5" d="M31.36,92.82h-.27a.13.13,0,0,0,0,.25h.27A.13.13,0,0,0,31.36,92.82Z"/><path class="cls-5" d="M32.65,92.76l-.23,0a.14.14,0,0,0,0,.27h.23C32.84,93.07,32.84,92.75,32.65,92.76Z"/><path class="cls-2" d="M27.67,44.12a.8.8,0,0,0-.22-.44.63.63,0,0,0-.45-.1,2.35,2.35,0,0,0-1,1.81c-.16-.18-.42-.36-.6-.21a.49.49,0,0,0-.1.41A4.55,4.55,0,0,1,25,47.45a1,1,0,0,1-.06.16c-1.56,3.53-2.25,6.35-4.36,9.55a8.06,8.06,0,0,1-2.11-2.7c-.91-1.68-2.09-4.25-4.43-3.85a1.43,1.43,0,0,0-1,1.54A4.13,4.13,0,0,0,13.83,54a41.3,41.3,0,0,0,5.66,6.61c.46.47,1.34,1.78,2.08,1.61S22.7,60.54,23,60a2.53,2.53,0,0,0,.22-.51Q25.07,54,26.88,48.57l0,0A5.77,5.77,0,0,0,27.67,44.12Z"/><path class="cls-2" d="M13.6,34.72a8.14,8.14,0,0,0-2.15,3A11.91,11.91,0,0,0,10,42.16c-.08,1.15.15,2.38-.37,3.4,2,.75,3.89,1.59,5.78,2.5a21.85,21.85,0,0,0,5.34-10.47.74.74,0,0,0,0-.39.77.77,0,0,0-.31-.31,22.38,22.38,0,0,0-5.55-2.37,1.48,1.48,0,0,0-.62-.11A1.33,1.33,0,0,0,13.6,34.72Z"/><path class="cls-3" d="M7.14,128.81C6.06,116.49,5,97.79,3.93,85.47c3.13-.33,6.49,4.12,9.64,4.2,1,0,2.29-2.78,2.48-1.63.14.8-1.09,4.63-1.21,5.46C14,99.19,13,104.94,12.7,110.72c-.09,1.67,0,3.35-.08,5a78.16,78.16,0,0,1-.72,8.5c-.15,1.11-.88,3.16-.61,4.22.24.9,1.62,1.38,2.51,1.74a2.2,2.2,0,0,1,.84.48.69.69,0,0,1,.1.87,1,1,0,0,1-.78.24,33.67,33.67,0,0,1-6.42-.54.76.76,0,0,1-.36-.14.72.72,0,0,1-.13-.28,3,3,0,0,1,.18-2Z"/><path class="cls-13" d="M23.39,37.31c-3.44,1.12-6.36-.1-9.23-1.85,0,1.72-1.34,4.3-2.2,5.76-.74-.83-1.79-.09-1.9,1-.08.67.63.82.62,1.44a6.06,6.06,0,0,1-1.06,2c-.22-3.78-2.55-9.93,1.21-12.5a6.7,6.7,0,0,1,6.58-.78c2.21.93,4.37,2.28,6.92,1.31a6,6,0,0,1-1.57,1.51c.57.7,1.82.74,2.63,1.17-.54.95-1.86.88-2.78,1.19Z"/><path class="cls-14" d="M13.39,48.38l-.87-.33L8.17,46.39a1.12,1.12,0,0,0-.67-.12,1,1,0,0,0-.46.26c-2.7,2.18-3.44,5.73-4.18,8.95A112.21,112.21,0,0,0,.42,90.33,166.47,166.47,0,0,0,20,92.48c-.36,0-1.11-8-1.2-8.78a121.52,121.52,0,0,1-.72-13.88c.05-4.66-.2-9.29-.53-13.94q-.21-2.81-.47-5.63c-.07-.73-2.19-1.49-2.72-1.61C14,48.57,13.7,48.48,13.39,48.38Z"/><path class="cls-15" d="M3.42,62.47c1,.09,1.91.16,2.87.2,1.88.06,3.79.11,5.68,0a45.84,45.84,0,0,0,5.94-.62h0c-.08-1.92-.2-3.83-.33-5.75a58.75,58.75,0,0,1-11.11.45,23,23,0,0,1-3.89-.31c-.42,1.92-.78,3.85-1.1,5.79A11.93,11.93,0,0,0,3.42,62.47Z"/><path class="cls-15" d="M11.61,64.24A44,44,0,0,0,18,63.7c0-.36,0-.71,0-1.07-.51.1-1,.19-1.53.27a43.48,43.48,0,0,1-6.14.41A57.8,57.8,0,0,1,2.85,63c-.47-.06-1-.08-1.44-.18L1.23,64A87.69,87.69,0,0,0,11.61,64.24Z"/><path class="cls-15" d="M10.94,66a33.1,33.1,0,0,0,7.1-.65c0-.34,0-.68,0-1a42.87,42.87,0,0,1-6.41.54,91.39,91.39,0,0,1-10.47-.25c0,.19,0,.38-.07.57A43,43,0,0,0,10.94,66Z"/><path class="cls-2" d="M30.78,72.13a2.4,2.4,0,0,0-1.92-.78c.16-.18.32-.46.15-.62s-.28-.07-.43,0a4.71,4.71,0,0,1-1.87-.06l-.17,0h0A68.12,68.12,0,0,1,15.72,66.1a14.33,14.33,0,0,0,0-3.7l-.51-5.31a2.92,2.92,0,0,0-.65-1.9c-.88-.82-2.44-.17-2.95.92a5.77,5.77,0,0,0-.05,3.54q.93,4.62,1.84,9.24a1.69,1.69,0,0,0,.43,1,1.73,1.73,0,0,0,.78.31L25.8,72.57v0a5.78,5.78,0,0,0,4.5.32.78.78,0,0,0,.41-.27A.72.72,0,0,0,30.78,72.13Z"/><path class="cls-9" d="M6,92.74a.13.13,0,0,0-.25,0c0,.32,0,.65,0,1a.14.14,0,0,0,.27,0C6,93.39,6,93.06,6,92.74Z"/><path class="cls-9" d="M6.27,96c0-.15-.24-.15-.25,0v.74a.13.13,0,0,0,.25,0Z"/><path class="cls-9" d="M6.3,98.54c0-.15-.25-.15-.23,0s.07.61.11.91c0,.15.25.15.23,0Z"/><path class="cls-9" d="M6.61,101.1a.12.12,0,1,0-.24,0c0,.28,0,.57,0,.85a.13.13,0,0,0,.25,0Z"/><path class="cls-9" d="M6.84,103.88a.13.13,0,0,0-.25,0v1a.13.13,0,1,0,.25,0Z"/><path class="cls-9" d="M7,106.44a.13.13,0,0,0-.25,0c0,.3,0,.61,0,.91a.14.14,0,0,0,.27,0C7,107.05,7,106.74,7,106.44Z"/><path class="cls-9" d="M7.23,109.73a.12.12,0,0,0-.24,0c0,.38,0,.76,0,1.14a.13.13,0,0,0,.26,0C7.25,110.49,7.24,110.11,7.23,109.73Z"/><path class="cls-9" d="M7.44,112.74c0-.14-.22-.17-.24,0a4,4,0,0,0,0,1.38c0,.17.28.1.26-.07A5,5,0,0,1,7.44,112.74Z"/><path class="cls-9" d="M7.52,115.82c0-.15-.24-.16-.24,0,0,.34,0,.68.06,1,0,.17.27.17.26,0C7.58,116.5,7.55,116.16,7.52,115.82Z"/><path class="cls-9" d="M7.81,119.57c0-.17-.25-.17-.26,0a5.3,5.3,0,0,0,.07,1.05c0,.17.27.1.25-.07A5.32,5.32,0,0,1,7.81,119.57Z"/><path class="cls-9" d="M8.06,123.09c0-.14-.21-.17-.23,0a3.39,3.39,0,0,0,0,1.27c0,.17.28.1.26-.07A4.11,4.11,0,0,1,8.06,123.09Z"/><path class="cls-9" d="M8.44,127.58a.14.14,0,0,0-.27,0v.4a.14.14,0,0,0,.27,0Z"/><path id="_Контур_" data-name="&lt;Контур&gt;" class="cls-16" d="M13.63,28.09,12.8,24.9s-7,0-7.68-4.47S6.49,9.15,15.36,9.5s13.33,4.65,12,8.13-3.66,8.53-11,7.56Z"/><path class="cls-17" d="M14.2,11.74a1.7,1.7,0,0,0-2.32.11c-.93.87-.76,2.65-.36,3.7A1.71,1.71,0,0,0,14,16.69a1.88,1.88,0,0,0,.37-2.7l-.41.57.2,0c.48,0,1.15-.73.38-.71a2.67,2.67,0,0,0-.79.13c-.21.06-.62.31-.41.56s.49,1.13.16,1.49c-.18.2-.22.08-.43-.16a2.68,2.68,0,0,1-.42-.78,4.74,4.74,0,0,1-.21-1.54c0-.13.16-2,.78-1.26.28.32,1.36-.14,1-.52Z"/><path class="cls-17" d="M18,12a1.39,1.39,0,0,0-2.18.36A3.3,3.3,0,0,0,16,15.71a1.37,1.37,0,0,0,2.22-.23A3.16,3.16,0,0,0,18,12.11c-.24-.34-1.31.1-1.13.36A3.14,3.14,0,0,1,17.41,14a2.92,2.92,0,0,1-.06.93l-.07.23c-.15.43-.19.5-.12.22A2.09,2.09,0,0,1,16.59,14a4.21,4.21,0,0,1,.08-1.06,3.47,3.47,0,0,1,.16-.55c-.09-.14,0-.11.13.09s1.33-.21,1-.49Z"/><path class="cls-17" d="M11.06,18.17c-.48-.76-1.62-.49-2.1.13a3.17,3.17,0,0,0-.14,3.35,1.58,1.58,0,0,0,2.22.72c.8-.59,1.12-1.95-.12-2.15,0,.2,0,.4,0,.6l.67-.25c.64-.24.1-.74-.4-.55l-.67.25c-.35.13-.4.54,0,.6s.2.6.1.77-.2.25-.31.23c-.36-.08-.7-.77-.79-1.05a2.65,2.65,0,0,1-.08-1.22c0-.11.39-1.51.68-1.05s1.18,0,.92-.38Z"/><path class="cls-17" d="M12.52,19.73A8.45,8.45,0,0,1,13,22l1-.23a1.66,1.66,0,0,1,.68-2.12c.15-.08.28-.22.11-.34s-.54,0-.7.08A2.07,2.07,0,0,0,13,22c.12.29,1,.1,1-.23a8.37,8.37,0,0,0-.49-2.27c-.12-.32-1.1-.05-1,.22Z"/><path class="cls-17" d="M15.86,21c.67-.15,1.63-.75,1.6-1.55s-1.44-.6-1.88-.23a1.89,1.89,0,0,0-.51,2.2c.5.73,1.8.55,2.46.21s.09-.85-.41-.59a1.07,1.07,0,0,1-1,.1c-.32-.18-.23-.66-.15-1a1.24,1.24,0,0,1,.21-.47c.13-.14.28-.23.21,0a.94.94,0,0,1-.71.6c-.61.14-.46.81.16.67Z"/><path class="cls-17" d="M18.37,20.4a1.87,1.87,0,0,0,2.12-1.54c0-1-1.52-.82-2-.41A1.9,1.9,0,0,0,18.19,21c.86.77,2.13-.07,2.77-.69.17-.17-.13-.25-.24-.26a1,1,0,0,0-.67.23c-.15.15-.46.52-.72.5s-.37-.28-.44-.46a1.89,1.89,0,0,1,0-1.13c0-.14.14-.52.29-.57,0-.07,0-.07.1,0a.49.49,0,0,1,.18.2.76.76,0,0,1-.1.57c0,.05-.29.53-.36.52a1,1,0,0,0-.71.16c-.12.12-.16.28.07.31Z"/><path class="cls-17" d="M21,18.37c.19.79.37,1.59.55,2.39.09.38,1,.21,1-.14a7.14,7.14,0,0,1,.15-1.13,3.19,3.19,0,0,1,.41-1.18l-.6.19s.2.69.23.76a1.64,1.64,0,0,0,.33.61,1.14,1.14,0,0,0,1.16.3c.6-.15.48-.76-.13-.6s-.39-2-1.53-1.68c-.43.14-.55.64-.68,1a6.61,6.61,0,0,0-.34,1.76l1-.14L22,18.14c-.09-.41-1.09-.19-1,.23Z"/><g id="_Группа_" data-name="&lt;Группа&gt;"><g id="_Группа_2" data-name="&lt;Группа&gt;"><g id="_Группа_3" data-name="&lt;Группа&gt;"><path id="_Контур_2" data-name="&lt;Контур&gt;" class="cls-18" d="M39.9,21.89c-.47-.26.3-2.44-.17-2.73-.66-.4-4.16-2.95-3.79-6.92S38.75,5.5,42.76,5.6s6.76,2.6,6.82,6.8-3.25,6.4-3.34,7.08.3,2.26.06,2.45C45.75,22.35,40.71,22.33,39.9,21.89Z"/><g id="_Группа_4" data-name="&lt;Группа&gt;"><path id="_Контур_3" data-name="&lt;Контур&gt;" class="cls-19" d="M44.41,24.45c-1,0-2.44-.08-4.55-.2a.79.79,0,0,1,.08-1.58,47,47,0,0,0,6.12.19.8.8,0,0,1,.74,1.38C46.6,24.39,46.47,24.5,44.41,24.45Z"/></g><g id="_Группа_5" data-name="&lt;Группа&gt;"><path id="_Контур_4" data-name="&lt;Контур&gt;" class="cls-19" d="M44,26.63c-.72,0-1.75-.07-3.27-.17-.31,0-.55-.39-.53-.82s.29-.78.6-.76c1.88.12,4,.21,4.4.15a.48.48,0,0,1,.61.25,1.05,1.05,0,0,1-.09,1.12C45.56,26.56,45.46,26.67,44,26.63Z"/></g></g></g><path id="_Контур_5" data-name="&lt;Контур&gt;" class="cls-20" d="M43.92.46c0-.48-.79-.67-.88-.14a12.46,12.46,0,0,0-.1,1.84A4.13,4.13,0,0,0,43.06,4a.18.18,0,0,0,.31,0,3.77,3.77,0,0,0,.36-1.67A12.89,12.89,0,0,0,43.92.46Z"/><path id="_Контур_6" data-name="&lt;Контур&gt;" class="cls-20" d="M49.9,1.86a3.5,3.5,0,0,0-.73.71c-.26.28-.53.56-.78.84A17.87,17.87,0,0,0,47,5.05c-.21.29.22.61.47.38.5-.46,1-1,1.46-1.44.24-.24.49-.47.74-.7a5.2,5.2,0,0,0,.83-.79A.46.46,0,0,0,49.9,1.86Z"/><path id="_Контур_7" data-name="&lt;Контур&gt;" class="cls-20" d="M38.69,4.8C37.85,3.87,37,3,36.06,2.06c-.39-.39-1,.22-.62.59.94.85,1.89,1.71,2.86,2.52C38.56,5.39,38.93,5.07,38.69,4.8Z"/><path id="_Контур_8" data-name="&lt;Контур&gt;" class="cls-20" d="M34.53,8.17a12.44,12.44,0,0,1-1.62-.27c-.27-.08-.54-.17-.81-.28a4.81,4.81,0,0,0-.77-.35c-.31-.07-.65.32-.36.57a4.26,4.26,0,0,0,1.65.61,3.78,3.78,0,0,0,1.89.14C34.77,8.51,34.8,8.2,34.53,8.17Z"/><path id="_Контур_9" data-name="&lt;Контур&gt;" class="cls-20" d="M53.41,8.26a2.58,2.58,0,0,0-1.26.06,11.22,11.22,0,0,0-1.41.24.25.25,0,0,0,0,.48,9.59,9.59,0,0,0,1.31.07A2.94,2.94,0,0,0,53.49,9,.41.41,0,0,0,53.41,8.26Z"/></g><path id="_Контур_10" data-name="&lt;Контур&gt;" class="cls-20" d="M44.24,18.3s-2.7.26-3.74-3.18-1.73-4.24-1.73-4.24.06-.26.7.08,4.8,1.45,5.21,3.56S44.62,17.84,44.24,18.3Z"/><g id="_Группа_6" data-name="&lt;Группа&gt;"><path id="_Контур_11" data-name="&lt;Контур&gt;" class="cls-21" d="M44.8,19.36a.29.29,0,0,1-.22.25.29.29,0,0,1-.37-.21,1.23,1.23,0,0,0,0-.61,14.78,14.78,0,0,0-2.61-5.51c-.11-.12-.4-.35-.28-.46s.46.17.58.29c1.86,2,2.87,6,2.92,6.13A.49.49,0,0,1,44.8,19.36Z"/></g></g></g></svg>