<svg xmlns="http://www.w3.org/2000/svg" xmlns:xlink="http://www.w3.org/1999/xlink" viewBox="0 0 67.6 145.44"><defs><style>.cls-1{filter:url(#luminosity-noclip-2);}.cls-2{mask:url(#mask);}.cls-10,.cls-3{mix-blend-mode:multiply;}.cls-3{fill:url(#linear-gradient);}.cls-4{isolation:isolate;}.cls-5{fill:#4d4d4d;}.cls-6{fill:#e6e6e6;}.cls-7{fill:#7d7c9b;}.cls-8{fill:#9f8a8a;}.cls-9{mask:url(#mask-2);}.cls-10{opacity:0.56;fill:url(#linear-gradient-2);}.cls-11{fill:#f5e7d5;}.cls-12{fill:#cfb298;}.cls-13{fill:#3c7367;}.cls-14{fill:#7a6356;}.cls-15{fill:#292827;}.cls-16{fill:#474d2b;}.cls-17{fill:#303030;}.cls-18{fill:#a08675;}.cls-19{fill:#88b99c;}.cls-20{fill:#8b7564;}.cls-21{fill:#2db473;}.cls-22{filter:url(#luminosity-noclip);}</style><filter id="luminosity-noclip" x="9.25" y="-8447" width="58.35" height="32766" filterUnits="userSpaceOnUse" color-interpolation-filters="sRGB"><feFlood flood-color="#fff" result="bg"/><feBlend in="SourceGraphic" in2="bg"/></filter><mask id="mask" x="9.25" y="-8447" width="58.35" height="32766" maskUnits="userSpaceOnUse"><g class="cls-22"/></mask><linearGradient id="linear-gradient" x1="17.05" y1="251.2" x2="75.22" y2="251.2" gradientTransform="translate(4.56 -109.6) rotate(2.79)" gradientUnits="userSpaceOnUse"><stop offset="0" stop-color="#4d4d4d"/><stop offset="1"/></linearGradient><filter id="luminosity-noclip-2" x="9.25" y="141.25" width="58.35" height="4.19" filterUnits="userSpaceOnUse" color-interpolation-filters="sRGB"><feFlood flood-color="#fff" result="bg"/><feBlend in="SourceGraphic" in2="bg"/></filter><mask id="mask-2" x="9.25" y="141.25" width="58.35" height="4.19" maskUnits="userSpaceOnUse"><g id="_Группа_2" data-name="&lt;Группа&gt;" class="cls-1"><g class="cls-2"><path id="_Контур_" data-name="&lt;Контур&gt;" class="cls-3" d="M9.6,145.07a2.4,2.4,0,0,0,.89.19c1.08.06,2.16.1,3.24.13,2.22.06,4.44.06,6.65,0,4.45-.05,8.89-.19,13.33-.19.72,0,1.45.06,2.17,0,9.28-.52,14.65-.69,21.62-1.09,8.84-.52,18.13-2.31-1.61-2.81-4.22-.11-8.66,0-12.88-.08-3.75-.07-7.49,0-11.23.08-3.25.1-6.51.24-9.76.38s-7.36-.34-10.41,1.32c-.27.15-.52.31-.8.44a4.86,4.86,0,0,0-1.12.55C9,144.58,9.2,144.9,9.6,145.07Z"/></g></g></mask><linearGradient id="linear-gradient-2" x1="17.05" y1="251.2" x2="75.22" y2="251.2" gradientTransform="translate(4.56 -109.6) rotate(2.79)" gradientUnits="userSpaceOnUse"><stop offset="0"/><stop offset="1"/></linearGradient></defs><title>Ресурс 62</title><g class="cls-4"><g id="Слой_2" data-name="Слой 2"><g id="для_кого" data-name="для кого"><path class="cls-5" d="M3.68,37.37A31.18,31.18,0,0,0,0,38.74a6,6,0,0,0,.66,1.6c1.16,2.49,2.05,5.13,3.22,7.39,1.62.1,2.64-1.81,4.2-2.28a13.87,13.87,0,0,0-1.68-4.6L5,38a1.24,1.24,0,0,0-.61-.68A1.18,1.18,0,0,0,3.68,37.37Z"/><path class="cls-6" d="M4.07,39a17.5,17.5,0,0,0-2.33.95A5.16,5.16,0,0,0,2.16,41a33.68,33.68,0,0,0,2,5.12c1,.07,1.68-1.26,2.67-1.58A10.36,10.36,0,0,0,5.8,41.36c-.31-.66-.61-1.32-.92-2a.86.86,0,0,0-.38-.47A.72.72,0,0,0,4.07,39Z"/><path class="cls-7" d="M3.24,40.94a1.17,1.17,0,0,0-.22,1,1.14,1.14,0,0,0,.65.77,1.17,1.17,0,0,0,.41.1.83.83,0,0,0,.35-.06,1.21,1.21,0,0,0,.28-.18A1.55,1.55,0,0,0,5.14,42a1.1,1.1,0,0,0-.22-1.11,1.16,1.16,0,0,0-1.1-.31A1.14,1.14,0,0,0,3.24,40.94Z"/><path class="cls-8" d="M5.45,43.06c-.41.21-.82.43-1.22.66-.12.07,0,.29.1.24.44-.14.88-.3,1.31-.47A.24.24,0,1,0,5.45,43.06Z"/><path class="cls-8" d="M5.54,44.1a3.32,3.32,0,0,0-.94.72.13.13,0,0,0,.16.21,9,9,0,0,1,1-.51C6.07,44.4,5.83,44,5.54,44.1Z"/><g class="cls-9"><path id="_Контур_2" data-name="&lt;Контур&gt;" class="cls-10" d="M9.6,145.07a2.4,2.4,0,0,0,.89.19c1.08.06,2.16.1,3.24.13,2.22.06,4.44.06,6.65,0,4.45-.05,8.89-.19,13.33-.19.72,0,1.45.06,2.17,0,9.28-.52,14.65-.69,21.62-1.09,8.84-.52,18.13-2.31-1.61-2.81-4.22-.11-8.66,0-12.88-.08-3.75-.07-7.49,0-11.23.08-3.25.1-6.51.24-9.76.38s-7.36-.34-10.41,1.32c-.27.15-.52.31-.8.44a4.86,4.86,0,0,0-1.12.55C9,144.58,9.2,144.9,9.6,145.07Z"/></g><path class="cls-11" d="M4.92,42.51c1,0,2.68,1.31,2.07,2,.2-.22.53-.46.78-.29a.55.55,0,0,1,.17.49,5.1,5.1,0,0,0,.52,2.19l.09.19c1,1.78,1.83,3.62,2.79,5.41s2.1,3.43,2.94,5.27c.25.54.49,1.08.73,1.62s.49,1.12.72,1.69a5.48,5.48,0,0,1,.71,2.49,2,2,0,0,1-2.08,1.35c-1.34-.23-1.59-1.88-2-2.81l-1.77-3.85C9.5,57,9,54.72,8.28,53.22a30.33,30.33,0,0,1-1.91-4.76,10.59,10.59,0,0,0-.92-2.54,11.21,11.21,0,0,1-1-1.72C4.07,43,4.38,42.53,4.92,42.51Z"/><path class="cls-12" d="M1.4,62.38a.49.49,0,0,1-.1-.3,65.21,65.21,0,0,1-.49-8.27c1.82.2,3.64.33,5.47.38a39.52,39.52,0,0,1-1.15,8.27,15.57,15.57,0,0,1-3.48,0A.44.44,0,0,1,1.4,62.38Z"/><path class="cls-13" d="M5.56,57.67a.2.2,0,0,1,.1.08.16.16,0,0,1,0,.12c0,.39-.09.79-.13,1.19L1.32,59a10.83,10.83,0,0,1-.05-1.8,11.81,11.81,0,0,0,3.29.39A2.24,2.24,0,0,1,5.56,57.67Z"/><path class="cls-14" d="M.26,54.54v-1q3.26,0,6.5.19c0,.28-.06.55-.1.83a.17.17,0,0,1,0,.12.14.14,0,0,1-.11,0A27.2,27.2,0,0,1,.26,54.54Z"/><path class="cls-15" d="M13.34,78a.17.17,0,0,0,0,.33A.17.17,0,0,0,13.34,78Z"/><path class="cls-11" d="M12.32,71.61A12.24,12.24,0,0,1,12.43,79a1.83,1.83,0,0,0-.12.69,1.45,1.45,0,0,0,.86,1,13.47,13.47,0,0,0,6.44,1.17,87.11,87.11,0,0,0,10.59-.62c.41-.49.14-1.24-.05-1.86-.56-1.88-.14-3.9.06-5.86a1.23,1.23,0,0,0-.06-.66,1.21,1.21,0,0,0-.43-.41A15.66,15.66,0,0,0,21.45,70a21.92,21.92,0,0,0-3.51.32A41.58,41.58,0,0,0,12.32,71.61Z"/><path class="cls-16" d="M31.45,112.26c-.39-8.63.43-17.44.36-26.13a20.64,20.64,0,0,0-1.22-8.91,1.37,1.37,0,0,0-.27-.49c-.4-.42-1.1-.2-1.64,0a17.6,17.6,0,0,1-16-1.37,11.45,11.45,0,0,0-1.43,4.83c-.37,2.72-.77,5.42-.87,8.15v0h0c0,.58,0,1.17,0,1.76a76.38,76.38,0,0,0,1.24,10.09,47.28,47.28,0,0,1,.65,6.6,24.2,24.2,0,0,0,.18,5.25c1,4.36,1,9.12,1.42,13.59.45,4.78.9,9.56,1.27,14.35,0,.19,0,.38,0,.57.24.06,3.93.91,3.93,0q.43-14,.88-27.88a52,52,0,0,1,1.25-11.6l1.23.12q3.36,18.45,6.73,36.89A5.56,5.56,0,0,0,30.35,141a1.33,1.33,0,0,0,2.26-.58C32,131.05,31.87,121.66,31.45,112.26Z"/><path class="cls-15" d="M29.9,82.74c-.07-.17-.34-.1-.28.07A5.73,5.73,0,0,1,30,84.33c0,.2.33.2.31,0A5.8,5.8,0,0,0,29.9,82.74Z"/><path class="cls-15" d="M30.72,88.37c0-.18-.3-.18-.28,0,0,.37.06.74.1,1.1,0,.19.31.19.29,0C30.79,89.11,30.76,88.74,30.72,88.37Z"/><path class="cls-15" d="M30.65,94.34a.15.15,0,0,0-.29,0v1.19a.15.15,0,0,0,.29,0Z"/><path class="cls-15" d="M30.83,101a.15.15,0,0,0-.29,0v1.28a.15.15,0,0,0,.3,0C30.84,101.89,30.83,101.47,30.83,101Z"/><path class="cls-15" d="M30.52,106.26c0-.16-.27-.2-.29,0a8.54,8.54,0,0,0-.06,1.6c0,.2.33.2.31,0A7.51,7.51,0,0,1,30.52,106.26Z"/><path class="cls-15" d="M30.52,112.6c0-.19-.28-.19-.3,0a12.42,12.42,0,0,0,0,1.93c0,.19.31.19.3,0A11.29,11.29,0,0,1,30.52,112.6Z"/><path class="cls-15" d="M14.26,110c0-.22-.33-.21-.35,0a6.18,6.18,0,0,0,.08,1.61c0,.2.33.11.3-.08A7.12,7.12,0,0,1,14.26,110Z"/><path class="cls-15" d="M13.44,105.21c0-.21-.37-.12-.33.09a5,5,0,0,1,.06,1.34c0,.2.3.2.32,0A4.58,4.58,0,0,0,13.44,105.21Z"/><path class="cls-15" d="M13.33,99.57c0-.21-.31-.21-.33,0a5.37,5.37,0,0,0,.09,1.6c0,.19.31.11.28-.08A7,7,0,0,1,13.33,99.57Z"/><path class="cls-15" d="M12.18,93.14V94.8a.15.15,0,0,0,.3,0V93.14A.15.15,0,0,0,12.18,93.14Z"/><path class="cls-15" d="M12,87.09c0,.58,0,1.16,0,1.74a.16.16,0,0,0,.32,0V87.09A.17.17,0,0,0,12,87.09Z"/><path class="cls-15" d="M12.47,80.31a2.43,2.43,0,0,0-.3,1.27c0,.2.32.2.31,0a2.15,2.15,0,0,1,.27-1.11C12.84,80.29,12.57,80.13,12.47,80.31Z"/><path class="cls-17" d="M32.37,139.83a1.05,1.05,0,0,1,.38.63,6.38,6.38,0,0,1,.24,1.43,1.19,1.19,0,0,1-.2.85,1.31,1.31,0,0,1-.89.32l-3.88.39a1.23,1.23,0,0,1-1.05-.22,1.22,1.22,0,0,1-.14-1,.83.83,0,0,1,.23-.55.74.74,0,0,1,.42-.12,3.33,3.33,0,0,0,2-.44c.38-.31.56-.83,1-1.12a2.28,2.28,0,0,1,1.24-.3A1.15,1.15,0,0,1,32.37,139.83Z"/><path class="cls-17" d="M18.3,139.84a1.11,1.11,0,0,1,.41.67A7.22,7.22,0,0,1,19,142a1.32,1.32,0,0,1-.21.9,1.39,1.39,0,0,1-1,.35l-4.14.41a1.27,1.27,0,0,1-1.11-.24,1.28,1.28,0,0,1-.16-1,.86.86,0,0,1,.25-.58.77.77,0,0,1,.45-.13,3.59,3.59,0,0,0,2.12-.46c.4-.34.6-.89,1-1.2a2.38,2.38,0,0,1,1.32-.32A1.21,1.21,0,0,1,18.3,139.84Z"/><path class="cls-18" d="M15.85,49.4a9.94,9.94,0,0,0,2,1.16,8.3,8.3,0,0,0,8.52-1.38,6.82,6.82,0,0,1,3.9,4.3,21.32,21.32,0,0,1,.93,6Q32,73.81,32.83,88.12a2.88,2.88,0,0,1-.15,1.4c-.42.87-1.52,1-2.46,1.1a117.06,117.06,0,0,1-19-.44,1.7,1.7,0,0,1-.76-.21c-.49-.31-.55-1-.56-1.6a206.64,206.64,0,0,1,1.34-27.13,32,32,0,0,1,2.23-9.64A3.76,3.76,0,0,1,14.62,50C15.16,49.62,15.31,49,15.85,49.4Z"/><path class="cls-11" d="M25.13,38.39a9.46,9.46,0,0,0-.36-1.82c-.65-2.07-3.07-5-5.54-3.91a5.08,5.08,0,0,0-1.49,1.12,10.31,10.31,0,0,0-1.27,1.45,6.22,6.22,0,0,0-1.14,3.46,9.75,9.75,0,0,0,.78,3.36,6.12,6.12,0,0,0,2.55,3.54,4.37,4.37,0,0,0,5.24-1.52A8.14,8.14,0,0,0,25.13,38.39Z"/><path class="cls-11" d="M27.37,52.6a1.51,1.51,0,0,0-.67-.41c-1-.27-1.87.76-2.42,1.66a96.85,96.85,0,0,0-5.21,9.33,3.1,3.1,0,0,0-1-.26c-3.78-.58-6.93-1-11.1-1.42l-.46-.09A9.1,9.1,0,0,1,4,60a2.51,2.51,0,0,0-.54-.38.65.65,0,0,0-.62,0,.39.39,0,0,0-.07.57A4,4,0,0,0,1.31,60a1.35,1.35,0,0,0-1.18.81,1.66,1.66,0,0,0,.8,1.72A9,9,0,0,0,5.78,64,21.41,21.41,0,0,0,8,64.75l7.14,2.16a11.41,11.41,0,0,0,3.45.67,4.89,4.89,0,0,0,1.84-.42C24,65.6,26.48,60,27.62,56.93,28.15,55.49,28.47,53.67,27.37,52.6Z"/><path class="cls-17" d="M31.41,41.57l-1.26-4.11a15,15,0,0,0-2.73-5.76c-2.66-2.92-7.34-3-10.69-1A6.49,6.49,0,0,0,14.31,33c-1.07,1.91-.67,4.32-.1,6.45S15.5,43.84,15,46a1.57,1.57,0,0,0,1.29-1.09,5.49,5.49,0,0,0,.22-1.81A17.15,17.15,0,0,1,17,38a5.83,5.83,0,0,1,3.07-3.77,18.45,18.45,0,0,1,4.71,12.17,6.3,6.3,0,0,1,3.31-.06,5,5,0,0,0,1.37.26c1,0,2-.88,2.82-.29A14.2,14.2,0,0,0,31.41,41.57Z"/><path class="cls-19" d="M23.48,48.86c.83-.64,1.08-2.76.47-3.91a2.91,2.91,0,0,1,.67-3.12,3,3,0,0,1,2.24-.22,23.17,23.17,0,0,0,4.22-.39.61.61,0,0,1,.57.15A2.31,2.31,0,0,1,32,42.65q.46,4.44.92,8.88a.69.69,0,0,1-1.16.41c-.4-.31-.77-.83-1.21-.86-.71,0-1.3,1.2-2,1.05-.33-.06-.62-.43-.94-.54-.66-.23-1.38.61-2,.12-.17-.14-.31-.37-.49-.49s-.66,0-1,.18A22,22,0,0,1,23.48,48.86Z"/><path class="cls-19" d="M12.66,50.35a1.7,1.7,0,0,1-.13-.64C12.45,47.61,14,46,14.28,44a3.65,3.65,0,0,1,.35-1.59c.38-.55,1.11-.32,1.46.27a4.72,4.72,0,0,1,.45,2.16,10.18,10.18,0,0,1-.6,4.64c-.62,1.34-2,2.12-3,1.27A1.06,1.06,0,0,1,12.66,50.35Z"/><path class="cls-20" d="M24.9,51.09q-2.41,4-4.82,8a8.43,8.43,0,0,1-1.76,2.29,2.91,2.91,0,0,1-2.71.64c-.44-.15-1-.43-1.3-.1a1,1,0,0,0-.2.62l-.72,7.87,8.31-.95a2.08,2.08,0,0,0,1.1-.35,2.05,2.05,0,0,0,.48-.75l5.58-12.19c.6-1.32,1.16-3,.22-4.08S26.36,51.28,24.9,51.09Z"/><path class="cls-6" d="M34.19,82.89A33.67,33.67,0,0,0,33,74a1.24,1.24,0,0,0-1.17-.89h-.21a9.93,9.93,0,0,0,.16-2,64.49,64.49,0,0,0-1-11.69c-.46-2.68-.88-5.73-3-7.63a3.22,3.22,0,0,0-4.28.28,20.27,20.27,0,0,0-4,8.33c.49-.37,1-.73,1.49-1.07a.76.76,0,0,1,.49-.13.93.93,0,0,1,.49-.12,33.35,33.35,0,0,1,1.94-4.47l3.24-.42a7.45,7.45,0,0,1,.77,2.06,47.1,47.1,0,0,1,1,5,63.55,63.55,0,0,1,.7,9.85c0,3.48-5.26,1.12-8.82.91a.86.86,0,0,0-.39,0,5,5,0,0,0-.78,0c0-.35.05-.69.07-1a6.66,6.66,0,0,1-1.49-.48c0,.68,0,1.34,0,2a.43.43,0,0,0,0,.17,1.87,1.87,0,0,0-.28.35c-1,1.77-.93,4.74-1.14,6.74a94.1,94.1,0,0,0-.47,10.88,1.21,1.21,0,0,0,1.2,1.2c4.48.06,12,.62,15.64-2.43C34.5,88.15,34.16,84.49,34.19,82.89ZM32,83.7c0-.14-.1-.29-.15-.43s.12-.13.17-.21c0,.22,0,.43,0,.65Z"/><g id="_Группа_3" data-name="&lt;Группа&gt;"><path id="_Контур_3" data-name="&lt;Контур&gt;" class="cls-21" d="M23.52,10.23h-.44a.57.57,0,0,0,0-.13L23,7.42c0-.13,0-.39-.16-.48a.84.84,0,0,0-.77,0,.77.77,0,0,0-.19.43c0,.85,0,1.65,0,2.49a2.16,2.16,0,0,0,0,.36H19.14V10.1l-.05-2.68c0-.13,0-.39-.16-.48a.84.84,0,0,0-.77,0,.8.8,0,0,0-.2.43c0,.85,0,1.65,0,2.49a1.58,1.58,0,0,0,0,.38c-.58,0-1.07,0-1.39.08-1.42.16-.24,4,1.53,5.09a4.45,4.45,0,0,0,4.47.12,5.06,5.06,0,0,0,2.6-4.3C25.19,10.32,24.27,10.23,23.52,10.23Z"/><g id="_Группа_4" data-name="&lt;Группа&gt;"><path id="_Контур_4" data-name="&lt;Контур&gt;" class="cls-21" d="M18.31,22.22h0a10.07,10.07,0,0,1-6.94-3.62,11.32,11.32,0,0,1-2.6-8.28A11.63,11.63,0,0,1,20.25,0a11.93,11.93,0,0,1,8.63,3.56,11.27,11.27,0,0,1,2.94,8.16A10.8,10.8,0,0,1,22.6,22.19a2.51,2.51,0,0,1-2-.54c-.9-.86-.85-2.53-.78-4.83,0-.26,0-.52,0-.78a.42.42,0,0,1,.84,0c0,.27,0,.53,0,.78-.06,2-.11,3.6.52,4.2a1.72,1.72,0,0,0,1.36.32A9.93,9.93,0,0,0,31,11.69a10.44,10.44,0,0,0-2.7-7.55,11.13,11.13,0,0,0-8-3.3A10.78,10.78,0,0,0,9.57,10.4,10.64,10.64,0,0,0,12,18.06a9.21,9.21,0,0,0,6.37,3.32c.23,0,.24.24.22.47S18.53,22.22,18.31,22.22Z"/></g></g></g></g></g></svg>