<svg xmlns="http://www.w3.org/2000/svg" viewBox="0 0 101.95 101.63"><defs><style>.cls-1{fill:#a1cc36;}.cls-1,.cls-2{fill-rule:evenodd;}.cls-2,.cls-3{fill:#1a1a18;}</style></defs><title>Ресурс 2</title><g id="Слой_2" data-name="Слой 2"><g id="_1_экран" data-name="1 экран"><path class="cls-1" d="M16.29,58.88c1.5,1.31,2.87,2.44,4.33,3.51l1.54,1.1a14.52,14.52,0,0,1,3.35,22.87l-.06.06C16.36,77.14,9.89,66.49,6.73,55.47A56.4,56.4,0,0,0,22,89,14.56,14.56,0,0,1,1.54,79.62a16.8,16.8,0,0,1-1.3-4.86c-.65-4.9.12-9.32,1-14.42a86.47,86.47,0,0,1,4-15.2,15.52,15.52,0,0,0,1.08,3.15c1.52,3,7.33,8.3,10,10.59"/><path class="cls-2" d="M54.43,97.28c-1.16.11-2.35.16-3.54.16-16.24,0-30.24-10.27-36.6-25.07,8,12.1,22.55,21.3,40.14,24.91"/><path class="cls-3" d="M52.67,97.33,54,97.25a72.57,72.57,0,0,1-23.11-9.11A54.05,54.05,0,0,1,14.67,73.07,42.41,42.41,0,0,0,29.23,90.61a38.16,38.16,0,0,0,21.66,6.76c.6,0,1.19,0,1.78,0m1.77,0c-.59.05-1.17.09-1.77.12s-1.19,0-1.78,0a38.27,38.27,0,0,1-21.74-6.8A42.51,42.51,0,0,1,14.22,72.39l-.31-.73.43.67A53.49,53.49,0,0,0,30.91,88a72.51,72.51,0,0,0,23.54,9.19l.47.09Z"/><path class="cls-1" d="M72.33,85.19c.39-2,.67-3.7.87-5.51.08-.66.13-1.27.19-1.88a14.25,14.25,0,0,1,.53-4.17,14.55,14.55,0,0,1,17.6-10.16l.08,0C88.1,76,82.12,86.93,74.16,95.18a56.54,56.54,0,0,0,21.39-30,14.55,14.55,0,0,1,2.11,22.37,16.88,16.88,0,0,1-3.55,3.56c-3.92,3-8.13,4.55-13,6.32A88,88,0,0,1,66,101.63a16,16,0,0,0,2.19-2.52c1.8-2.8,3.52-10.5,4.19-13.92"/><path class="cls-2" d="M86.51,33c.68,1,1.32,1.95,1.92,3C96.55,50,94.64,67.27,85,80.18,91.5,67.2,92.18,50,86.51,33"/><path class="cls-3" d="M87.44,34.46c-.24-.36-.47-.72-.72-1.07A72.14,72.14,0,0,1,90.39,58a53.91,53.91,0,0,1-5,21.54,42.37,42.37,0,0,0,7.92-21.38,38.18,38.18,0,0,0-5-22.14c-.29-.52-.6-1-.92-1.52m-.88-1.54c.34.48.68,1,1,1.46s.63,1,.93,1.53a38.35,38.35,0,0,1,5,22.22,42.64,42.64,0,0,1-8.41,22.1l-.48.64.36-.72A53.59,53.59,0,0,0,90.25,58a72.22,72.22,0,0,0-3.81-25l-.15-.45Z"/><path class="cls-1" d="M68.07,24.24c-1.91.57-3.6,1.12-5.29,1.78L61,26.73a14.5,14.5,0,0,1-21.11-9.42s0,0,0-.08c12.7-2.7,25.16-2.47,36.16.77a56.43,56.43,0,0,0-36.46-5.07A14.56,14.56,0,0,1,58.45.68a16.66,16.66,0,0,1,4.8,1.51c4.49,2.07,7.81,5.09,11.63,8.58A87.54,87.54,0,0,1,85.59,22.28a16.76,16.76,0,0,0-3.24-.78c-3.32-.29-10.94,1.75-14.28,2.74"/><path class="cls-2" d="M15.21,35.89c.54-1,1.12-2.07,1.76-3.08,8.7-13.72,24.88-20,40.78-17.48C43.24,15.6,27.69,23,15.21,35.89"/><path class="cls-3" d="M16.11,34.37,15.5,35.5A72.12,72.12,0,0,1,35.57,20.86,54.06,54.06,0,0,1,57,15.28a42.27,42.27,0,0,0-22.61,2.9A38.08,38.08,0,0,0,17,32.85c-.32.5-.62,1-.92,1.52m-1,1.49q.4-.78.84-1.56c.3-.52.6-1,.92-1.53A38.27,38.27,0,0,1,34.29,18.05a42.47,42.47,0,0,1,23.47-2.79l.79.12-.8,0A53.41,53.41,0,0,0,35.63,21a72.22,72.22,0,0,0-20.36,15l-.34.35Z"/><path class="cls-3" d="M36.89,71.51a1.51,1.51,0,0,0-.39-1,1.2,1.2,0,0,0-.9-.34,1.42,1.42,0,0,0-1,.28,1,1,0,0,0-.33.73.81.81,0,0,0,.28.56,4.86,4.86,0,0,0,1.68.84,3.71,3.71,0,0,1,1.46.78,1.86,1.86,0,0,1,.5,1.35,1.84,1.84,0,0,1-.56,1.34,2.7,2.7,0,0,1-2,.79,2.77,2.77,0,0,1-2-.67,3,3,0,0,1-.68-2.3H34a2.46,2.46,0,0,0,.33,1.57,2,2,0,0,0,2.35,0,1.08,1.08,0,0,0,.34-.79,1,1,0,0,0-.34-.67,3.57,3.57,0,0,0-1.28-.67,5.29,5.29,0,0,1-1.85-1,1.64,1.64,0,0,1-.51-1.23,1.88,1.88,0,0,1,.62-1.34,2.58,2.58,0,0,1,1.9-.62,2.47,2.47,0,0,1,1.8.67A2,2,0,0,1,38,71.51Zm7.34.34a2.15,2.15,0,0,0-.5-1.29,1.14,1.14,0,0,0-.84-.34,1.56,1.56,0,0,0-1.12.5,3.58,3.58,0,0,0-.68,2.53,3,3,0,0,0,.62,2.12,1.55,1.55,0,0,0,1.12.51,1.39,1.39,0,0,0,1-.45,2.29,2.29,0,0,0,.5-1.79h1.29a3.13,3.13,0,0,1-.84,2.46,2.62,2.62,0,0,1-2,.79,2.83,2.83,0,0,1-2.07-.9,3.7,3.7,0,0,1-.95-2.74,4.25,4.25,0,0,1,1.06-3.14,2.79,2.79,0,0,1,2-.9,2.46,2.46,0,0,1,1.79.67,2.8,2.8,0,0,1,.78,2Zm4-1.29a6.15,6.15,0,0,1,.56-.68,2.43,2.43,0,0,1,1.79-.67,2.05,2.05,0,0,1,1.51.56,1.88,1.88,0,0,1,.51,1.4v5.72H51.51V71.57a1.5,1.5,0,0,0-.39-1.13,1.21,1.21,0,0,0-.89-.33,1.72,1.72,0,0,0-1.18.61,2.84,2.84,0,0,0-.78,2.08v4.09H47.14V66h1.13ZM55,70.11a2.91,2.91,0,0,1,2.13-.9,2.85,2.85,0,0,1,2.07.9,4.06,4.06,0,0,1,.9,3,4,4,0,0,1-.9,2.91,2.85,2.85,0,0,1-2.07.9A2.91,2.91,0,0,1,55,76a4,4,0,0,1-.9-2.91A4.06,4.06,0,0,1,55,70.11Zm2.13.11a1.64,1.64,0,0,0-1.18.5,3.39,3.39,0,0,0-.62,2.36,3.24,3.24,0,0,0,.62,2.29,1.61,1.61,0,0,0,1.18.51,1.55,1.55,0,0,0,1.12-.51,3.24,3.24,0,0,0,.62-2.29,3.39,3.39,0,0,0-.62-2.36A1.58,1.58,0,0,0,57.12,70.22Zm5-.11a2.91,2.91,0,0,1,2.13-.9,2.85,2.85,0,0,1,2.07.9,4.06,4.06,0,0,1,.9,3,4,4,0,0,1-.9,2.91,2.85,2.85,0,0,1-2.07.9,2.91,2.91,0,0,1-2.13-.9,4,4,0,0,1-.9-2.91A4.06,4.06,0,0,1,62.16,70.11Zm2.13.11a1.64,1.64,0,0,0-1.18.5,3.4,3.4,0,0,0-.61,2.36,3.24,3.24,0,0,0,.61,2.29,1.61,1.61,0,0,0,1.18.51,1.55,1.55,0,0,0,1.12-.51A3.24,3.24,0,0,0,66,73.08a3.39,3.39,0,0,0-.62-2.36A1.58,1.58,0,0,0,64.29,70.22ZM70,76.89H68.91V66H70Z"/><path class="cls-3" d="M70.3,42.56a8.23,8.23,0,0,0-.19-2.3.79.79,0,0,0-.8-.5.87.87,0,0,0-.79.41,5.84,5.84,0,0,0-.27,2.39v12a11.9,11.9,0,0,0,.18,2.76.77.77,0,0,0,.83.53.82.82,0,0,0,.86-.6,13.53,13.53,0,0,0,.18-2.88ZM77,51a53,53,0,0,1-.19,5.5,6.13,6.13,0,0,1-3.74,5,9.43,9.43,0,0,1-3.82.72,9.7,9.7,0,0,1-3.71-.68,6,6,0,0,1-2.65-2,6.18,6.18,0,0,1-1.19-2.94A54.07,54.07,0,0,1,61.53,51V46.62c0-2.59.06-4.43.18-5.5a6.11,6.11,0,0,1,3.75-5,9.38,9.38,0,0,1,3.81-.72,9.75,9.75,0,0,1,3.72.68,6,6,0,0,1,2.64,2A6.1,6.1,0,0,1,76.83,41C77,42.11,77,44,77,46.62Zm-17.7-3.87H52.6V42.68a8.26,8.26,0,0,0-.21-2.44.92.92,0,0,0-.94-.48,1,1,0,0,0-1,.59,9.34,9.34,0,0,0-.22,2.55v12a8.79,8.79,0,0,0,.22,2.46,1.13,1.13,0,0,0,2,0,9.67,9.67,0,0,0,.22-2.7V51.37h6.72v1a20.14,20.14,0,0,1-.56,5.69A5.86,5.86,0,0,1,56.26,61a8.6,8.6,0,0,1-4.78,1.26,9.94,9.94,0,0,1-4.86-1.06,5.22,5.22,0,0,1-2.53-3,19.55,19.55,0,0,1-.62-5.68V45a35,35,0,0,1,.19-4.18,5.92,5.92,0,0,1,1.14-2.69,6.31,6.31,0,0,1,2.63-2,9.39,9.39,0,0,1,3.86-.74,9.43,9.43,0,0,1,4.9,1.15,5.51,5.51,0,0,1,2.53,2.85,17.29,17.29,0,0,1,.6,5.32ZM30.12,35.91H41.3v5.15H36.84V46H41v4.89H36.84v5.67h4.92v5.16H30.12Z"/></g></g></svg>